<svg width="40" height="40" viewBox="0 0 40 40" fill="none" xmlns="http://www.w3.org/2000/svg">
<circle cx="20" cy="20" r="20" fill="#1F1F1F"/>
<path d="M7.66894 24.0896C8.02756 24.0896 8.32411 23.9862 8.5586 23.7793C8.80687 23.5724 8.99997 23.3241 9.13791 23.0345C9.27584 22.731 9.44825 22.2965 9.65515 21.731L13.6896 10.662H15.1379L19.5448 21.9379C19.6551 22.2138 19.7724 22.5586 19.8965 22.9724C20.0207 23.3724 20.0965 23.7103 20.1241 23.9862C20.5793 23.9448 20.9793 23.9241 21.3241 23.9241V25.5172H15.7586V24.1517C16.4207 24.1517 16.7517 23.8758 16.7517 23.3241C16.7517 23.0482 16.6758 22.7172 16.5241 22.331L16.1103 21.1931L11.6207 21.2758L11.2896 22.2482C11.2483 22.3586 11.1517 22.6069 11 22.9931C10.862 23.3793 10.7379 23.6896 10.6276 23.9241C11.0689 23.8827 11.5586 23.862 12.0965 23.862V25.5172H7.66894V24.0896ZM15.5931 19.7241L14.6414 17.1379C14.2414 16.0069 13.9793 15.062 13.8551 14.3034H13.8345C13.6138 15.2965 13.3586 16.2069 13.0689 17.0345L12.1379 19.7241H15.5931ZM24.8407 25.8482C23.9717 25.8482 23.2821 25.5931 22.7717 25.0827C22.2752 24.5586 22.0269 23.8965 22.0269 23.0965C22.0269 21.8827 22.5924 20.9655 23.7235 20.3448C24.8545 19.7103 26.2131 19.3586 27.7993 19.2896V18.2138C27.7993 16.9586 27.3304 16.331 26.3924 16.331C25.7855 16.331 25.289 16.5241 24.9028 16.9103C25.0683 17.1034 25.1511 17.3655 25.1511 17.6965C25.1511 18.0276 25.0338 18.3241 24.7993 18.5862C24.5786 18.8482 24.2476 18.9793 23.8062 18.9793C23.3924 18.9793 23.0683 18.8482 22.8338 18.5862C22.5993 18.3103 22.4821 17.9724 22.4821 17.5724C22.4821 17.0345 22.6752 16.5586 23.0614 16.1448C23.4476 15.731 23.9717 15.4138 24.6338 15.1931C25.3097 14.9586 26.0476 14.8414 26.8476 14.8414C29.3993 14.8414 30.6752 16.1586 30.6752 18.7931L30.6545 22.1862C30.6545 22.8482 30.6269 23.4551 30.5717 24.0069C31.0269 23.9655 31.4752 23.9448 31.9166 23.9448V25.5172H28.0062C27.9786 25.3379 27.9511 25.0207 27.9235 24.5655H27.9028C27.0614 25.4207 26.0407 25.8482 24.8407 25.8482ZM26.1442 23.8207C26.7648 23.8207 27.3097 23.5724 27.7786 23.0758V20.7586C26.9648 20.8414 26.289 21.0482 25.7511 21.3793C25.2269 21.7103 24.9648 22.1586 24.9648 22.7241C24.9648 23.0965 25.0752 23.3724 25.2959 23.5517C25.5304 23.731 25.8131 23.8207 26.1442 23.8207Z" fill="#ECECEC"/>
</svg>
