<svg width="16" height="16" viewBox="0 0 16 16" fill="none" xmlns="http://www.w3.org/2000/svg">
<path d="M6.94775 0.437073C10.3187 0.437073 13.0512 3.16969 13.0513 6.54059C13.0513 7.96127 12.5664 9.26904 11.7524 10.3062L15.6069 14.1607C15.9474 14.5012 15.9474 15.0536 15.6069 15.3941C15.2948 15.706 14.805 15.7313 14.4634 15.4713L14.3735 15.3941L10.4907 11.5113C9.49179 12.2246 8.26877 12.6441 6.94775 12.6441C3.57686 12.644 0.844238 9.9115 0.844238 6.54059C0.844329 3.16975 3.57692 0.437163 6.94775 0.437073ZM6.94775 1.60016C4.21897 1.6002 2.00645 3.81182 2.00635 6.54059C2.00635 9.26945 4.21891 11.482 6.94775 11.482C9.67663 11.482 11.8892 9.26947 11.8892 6.54059C11.8891 3.8118 9.67657 1.60016 6.94775 1.60016Z" fill="#8E8E93"/>
</svg>
