<svg width="32" height="25" viewBox="0 0 32 25" fill="none" xmlns="http://www.w3.org/2000/svg">
<g clip-path="url(#clip0_1_2223)">
<path d="M6.04588 10.4935V23.2084H11.9765V18.6557C11.9765 17.7336 13.3914 16.3096 14.2064 15.8928C16.7735 14.582 20.11 16.6049 20.11 19.3939V23.2084H25.9559V10.4935C26.593 10.7084 26.9691 11.3138 27.5656 11.6009L27.6554 11.8421L27.652 24.0714C27.5876 24.5866 27.203 24.9196 26.6794 24.9344C24.3054 24.7654 21.6384 25.1444 19.3017 24.9344C18.5985 24.8704 18.4002 24.5603 18.3308 23.9057C18.1376 22.0469 19.2475 17.4892 16.4279 17.2168C12.4781 16.8362 13.9251 21.681 13.671 23.9894C13.6032 24.6062 13.3321 24.8786 12.7 24.936C10.3617 25.1477 7.69459 24.7687 5.32234 24.936C4.64964 24.8737 4.40733 24.5439 4.34802 23.9106L4.35141 11.7666L4.43783 11.6042C5.03428 11.3155 5.40706 10.7133 6.04757 10.4968L6.04588 10.4935Z" fill="#1F1F1F"/>
<path d="M15.8535 0.00807998C16.2043 -0.0411391 16.4212 0.131128 16.716 0.283707L31.7595 11.8042C32.4491 12.7164 31.5341 13.7418 30.5361 13.0708L16.001 1.88169L1.46583 13.0708C0.383063 13.7582 -0.423503 12.746 0.242423 11.8042C2.12836 10.3769 4.04311 8.97743 5.91719 7.53695C8.92995 5.22366 12.0461 2.53958 15.1571 0.406754C15.3689 0.260738 15.5858 0.0474552 15.8535 0.00972062V0.00807998Z" fill="#1F1F1F"/>
</g>
<defs>
<clipPath id="clip0_1_2223">
<rect width="32" height="25" fill="white"/>
</clipPath>
</defs>
</svg>
