<svg width="108" height="15" viewBox="0 0 108 15" fill="none" xmlns="http://www.w3.org/2000/svg">
<rect opacity="0.36" x="0.18" y="0.18" width="107.64" height="14.04" rx="7.02" stroke="black" stroke-width="0.36"/>
<path opacity="0.36" d="M18.5023 10.1386C18.7154 10.1325 18.8676 10.0838 18.959 9.99249C19.0503 9.90116 19.102 9.79461 19.1142 9.67284C19.1264 9.54498 19.1325 9.32579 19.1325 9.01527V5.06987C19.1325 4.81414 19.1416 4.59496 19.1599 4.4123L18.5023 4.44883V4.04698C19.3547 4.0348 20.0336 4.02872 20.5389 4.02872C21.4461 4.02872 22.1311 4.18702 22.5938 4.50363C23.0627 4.82023 23.2971 5.28601 23.2971 5.90096C23.2971 6.2541 23.2027 6.59201 23.014 6.91471C22.8313 7.2374 22.5116 7.5053 22.055 7.7184C21.6044 7.9315 21.0047 8.03805 20.2558 8.03805C20.1158 8.03805 20.0062 8.03501 19.927 8.02892V9.35319C19.927 9.67588 19.9179 9.91638 19.8996 10.0747L20.7399 10.029V10.44H18.5023V10.1386ZM20.5207 7.68187C20.8677 7.68187 21.1843 7.6149 21.4705 7.48095C21.7627 7.34091 21.9911 7.14303 22.1555 6.88731C22.3259 6.6255 22.4112 6.32107 22.4112 5.97402C22.4112 5.42605 22.2437 5.0242 21.9089 4.76848C21.574 4.51276 21.1113 4.3849 20.5207 4.3849C20.3137 4.3849 20.1675 4.42752 20.0823 4.51276C20.0031 4.598 19.9575 4.70151 19.9453 4.82328C19.9331 4.93896 19.927 5.15511 19.927 5.47171V7.65447C20.0793 7.67274 20.2771 7.68187 20.5207 7.68187ZM26.1162 10.5861C25.6961 10.5861 25.3095 10.4887 24.9563 10.2939C24.6093 10.093 24.3323 9.81592 24.1252 9.46278C23.9243 9.10965 23.8239 8.71084 23.8239 8.26638C23.8239 7.79147 23.9243 7.36222 24.1252 6.97864C24.3262 6.58897 24.6002 6.28454 24.9472 6.06535C25.3003 5.84007 25.69 5.72743 26.1162 5.72743C26.5363 5.72743 26.9229 5.83094 27.2761 6.03795C27.6292 6.23887 27.9063 6.51591 28.1072 6.86904C28.3142 7.22218 28.4177 7.6149 28.4177 8.04719C28.4177 8.50992 28.3142 8.93612 28.1072 9.32579C27.9063 9.71546 27.6292 10.0229 27.2761 10.2482C26.929 10.4735 26.5424 10.5861 26.1162 10.5861ZM26.1893 10.2208C26.6337 10.2208 26.9595 10.0382 27.1665 9.67284C27.3796 9.30752 27.4861 8.85392 27.4861 8.31204C27.4861 7.69709 27.3705 7.17043 27.1391 6.73205C26.9138 6.29367 26.5729 6.07448 26.1162 6.07448C25.6657 6.07448 25.3247 6.26018 25.0933 6.63159C24.868 7.00299 24.7554 7.45964 24.7554 8.00152C24.7554 8.39119 24.8072 8.75651 24.9107 9.09747C25.0203 9.43234 25.1816 9.70328 25.3947 9.9103C25.6139 10.1173 25.8788 10.2208 26.1893 10.2208ZM31.4038 10.5861C30.9837 10.5861 30.6031 10.4887 30.2622 10.2939C29.9273 10.093 29.6625 9.80983 29.4676 9.44452C29.2728 9.07311 29.1754 8.64691 29.1754 8.16591C29.1754 7.73971 29.2728 7.34091 29.4676 6.96951C29.6625 6.59201 29.9334 6.29063 30.2804 6.06535C30.6336 5.84007 31.0324 5.72743 31.4769 5.72743C31.8239 5.72743 32.1375 5.80354 32.4175 5.95576C32.6976 6.10797 32.9199 6.33629 33.0842 6.64072C33.2486 6.93906 33.3308 7.30742 33.3308 7.7458L30.1161 7.8006C30.11 8.53123 30.2287 9.10051 30.4722 9.50845C30.7219 9.91638 31.1055 10.1204 31.623 10.1204C31.9031 10.1204 32.1892 10.0473 32.4815 9.90116C32.7798 9.75504 33.0081 9.57542 33.1664 9.36232L33.3856 9.54498C33.1543 9.89812 32.8529 10.1599 32.4815 10.3304C32.1162 10.5009 31.7569 10.5861 31.4038 10.5861ZM32.4723 7.41702C32.4723 7.0517 32.3901 6.73814 32.2258 6.47633C32.0614 6.21452 31.8148 6.08362 31.486 6.08362C30.731 6.08362 30.2835 6.52808 30.1435 7.41702H32.4723ZM34.1436 10.166C34.3202 10.166 34.445 10.1234 34.518 10.0382C34.5972 9.94683 34.6429 9.83419 34.655 9.70024C34.6733 9.5602 34.6824 9.34406 34.6824 9.0518V6.96951C34.6824 6.71378 34.6946 6.51591 34.719 6.37587L34.0705 6.4124V6.02882C34.4298 6.02882 34.6763 6.01055 34.8103 5.97402C34.9442 5.9314 35.0569 5.86747 35.1482 5.78223H35.4131C35.4252 5.87356 35.4374 6.03491 35.4496 6.26627C35.6383 6.10188 35.8514 5.97098 36.0889 5.87356C36.3263 5.77614 36.5608 5.72743 36.7921 5.72743C37.0905 5.72743 37.3431 5.78223 37.5502 5.89183C37.7633 5.99533 37.9276 6.1445 38.0433 6.33934C38.2625 6.16277 38.5061 6.01664 38.774 5.90096C39.0479 5.78527 39.3098 5.72743 39.5594 5.72743C40.0952 5.72743 40.4849 5.89183 40.7284 6.22061C40.978 6.5433 41.0968 7.06083 41.0846 7.7732L41.0754 9.47192C41.0754 9.7459 41.0633 9.95292 41.0389 10.093L41.6143 10.0656V10.44H39.7512V10.166C39.9277 10.166 40.0526 10.1234 40.1256 10.0382C40.2048 9.94683 40.2504 9.83419 40.2626 9.70024C40.2809 9.5602 40.29 9.34406 40.29 9.0518V7.7732C40.29 7.24958 40.2078 6.85991 40.0434 6.60419C39.879 6.34238 39.6203 6.21148 39.2671 6.21148C39.0784 6.21148 38.8866 6.2541 38.6918 6.33934C38.503 6.41849 38.3356 6.52504 38.1895 6.65899C38.2503 6.84773 38.2808 7.06997 38.2808 7.32569L38.2625 9.47192C38.2625 9.7459 38.2503 9.95292 38.226 10.093L38.8014 10.0656V10.44H36.9383V10.166C37.1148 10.166 37.2396 10.1234 37.3127 10.0382C37.3919 9.94683 37.4375 9.83723 37.4497 9.70937C37.4619 9.57542 37.471 9.35623 37.4771 9.0518L37.4862 7.7732C37.4923 7.24349 37.4162 6.84773 37.2579 6.58592C37.0996 6.32411 36.8469 6.19321 36.4999 6.19321C36.3111 6.19321 36.1224 6.23279 35.9336 6.31194C35.751 6.39109 35.5927 6.49764 35.4587 6.63159L35.4679 7.12476V9.47192C35.4679 9.7459 35.4557 9.95292 35.4313 10.093L36.0067 10.0656V10.44H34.1436V10.166ZM43.5829 10.5861C43.1385 10.5861 42.7975 10.4857 42.56 10.2847C42.3287 10.0838 42.213 9.82201 42.213 9.49932C42.213 9.14618 42.353 8.84784 42.6331 8.60429C42.9193 8.36075 43.2755 8.18114 43.7017 8.06545C44.1339 7.94368 44.5662 7.88584 44.9985 7.89193V7.32569C44.9985 6.92993 44.9407 6.62246 44.825 6.40327C44.7093 6.17799 44.4627 6.06535 44.0852 6.06535C43.8965 6.06535 43.7169 6.10493 43.5464 6.18408C43.3759 6.26323 43.2511 6.38196 43.1719 6.54026C43.2511 6.6255 43.2907 6.74118 43.2907 6.88731C43.2907 6.97864 43.2572 7.06692 43.1902 7.15216C43.1232 7.23132 43.0258 7.27089 42.898 7.27089C42.7701 7.27089 42.6696 7.23132 42.5966 7.15216C42.5235 7.06692 42.487 6.95733 42.487 6.82338C42.487 6.62246 42.5631 6.4398 42.7153 6.27541C42.8736 6.10493 43.0898 5.97098 43.3637 5.87356C43.6438 5.77614 43.9543 5.72743 44.2953 5.72743C44.8067 5.72743 45.1842 5.86443 45.4278 6.13841C45.6713 6.40631 45.79 6.83251 45.784 7.41702L45.7748 9.47192C45.7748 9.66675 45.7626 9.87376 45.7383 10.093L46.3867 10.0564V10.44H45.0807C45.0625 10.3487 45.0411 10.1751 45.0168 9.91943C44.5723 10.3639 44.0944 10.5861 43.5829 10.5861ZM43.793 10.0656C44.0243 10.0656 44.2344 10.0229 44.4232 9.93769C44.6119 9.84636 44.8037 9.70937 44.9985 9.52671C44.9924 9.43538 44.9894 9.28013 44.9894 9.06094L44.9985 8.20245C44.4993 8.22071 44.0548 8.32422 43.6651 8.51296C43.2755 8.69562 43.0806 8.97874 43.0806 9.36232C43.0806 9.5876 43.1476 9.76112 43.2815 9.8829C43.4155 10.0047 43.586 10.0656 43.793 10.0656ZM52.5361 10.5861C51.9394 10.5861 51.4036 10.443 50.9287 10.1569C50.4599 9.87072 50.0915 9.48105 49.8236 8.98787C49.5618 8.4947 49.4309 7.94672 49.4309 7.34395C49.4309 6.74727 49.5496 6.18712 49.7871 5.6635C50.0306 5.13988 50.3899 4.71673 50.8648 4.39403C51.3458 4.06525 51.9242 3.90086 52.6 3.90086C53.2698 3.90086 53.8847 4.08656 54.4449 4.45796L54.3992 3.96479H54.8924V6.08362H54.5636C54.5027 5.51738 54.3018 5.07595 53.9608 4.75935C53.6259 4.43665 53.1936 4.2753 52.6639 4.2753C52.2317 4.2753 51.8359 4.39708 51.4767 4.64062C51.1235 4.87807 50.8435 5.21904 50.6364 5.6635C50.4294 6.10797 50.3259 6.62246 50.3259 7.20696C50.3259 7.76711 50.4355 8.26942 50.6547 8.71389C50.8739 9.15227 51.1692 9.49627 51.5406 9.7459C51.912 9.98945 52.323 10.1112 52.7735 10.1112C53.1815 10.1112 53.5742 10.0199 53.9517 9.83723C54.3292 9.65457 54.6397 9.39581 54.8832 9.06094L55.1207 9.25273C54.7675 9.7459 54.3627 10.093 53.906 10.2939C53.4494 10.4887 52.9927 10.5861 52.5361 10.5861ZM58.0635 10.5861C57.6434 10.5861 57.2567 10.4887 56.9036 10.2939C56.5565 10.093 56.2795 9.81592 56.0725 9.46278C55.8716 9.10965 55.7711 8.71084 55.7711 8.26638C55.7711 7.79147 55.8716 7.36222 56.0725 6.97864C56.2734 6.58897 56.5474 6.28454 56.8945 6.06535C57.2476 5.84007 57.6373 5.72743 58.0635 5.72743C58.4836 5.72743 58.8702 5.83094 59.2234 6.03795C59.5765 6.23887 59.8535 6.51591 60.0544 6.86904C60.2615 7.22218 60.365 7.6149 60.365 8.04719C60.365 8.50992 60.2615 8.93612 60.0544 9.32579C59.8535 9.71546 59.5765 10.0229 59.2234 10.2482C58.8763 10.4735 58.4897 10.5861 58.0635 10.5861ZM58.1365 10.2208C58.581 10.2208 58.9067 10.0382 59.1138 9.67284C59.3269 9.30752 59.4334 8.85392 59.4334 8.31204C59.4334 7.69709 59.3177 7.17043 59.0864 6.73205C58.8611 6.29367 58.5201 6.07448 58.0635 6.07448C57.6129 6.07448 57.272 6.26018 57.0406 6.63159C56.8153 7.00299 56.7027 7.45964 56.7027 8.00152C56.7027 8.39119 56.7544 8.75651 56.8579 9.09747C56.9675 9.43234 57.1289 9.70328 57.342 9.9103C57.5612 10.1173 57.826 10.2208 58.1365 10.2208ZM61.0496 10.166C61.2261 10.166 61.351 10.1234 61.424 10.0382C61.5032 9.94683 61.5488 9.83419 61.561 9.70024C61.5793 9.5602 61.5884 9.34406 61.5884 9.0518V4.73195C61.5884 4.50058 61.5975 4.3027 61.6158 4.13831L60.9674 4.17484V3.79126C61.3327 3.79126 61.5915 3.76995 61.7437 3.72733C61.902 3.68471 62.0237 3.62382 62.109 3.54467H62.3738L62.383 9.47192C62.383 9.70937 62.3677 9.91638 62.3373 10.093L62.9127 10.0656V10.44H61.0496V10.166ZM64.9079 10.5861C64.4634 10.5861 64.1224 10.4857 63.885 10.2847C63.6536 10.0838 63.5379 9.82201 63.5379 9.49932C63.5379 9.14618 63.678 8.84784 63.958 8.60429C64.2442 8.36075 64.6004 8.18114 65.0266 8.06545C65.4589 7.94368 65.8912 7.88584 66.3235 7.89193V7.32569C66.3235 6.92993 66.2656 6.62246 66.1499 6.40327C66.0342 6.17799 65.7877 6.06535 65.4102 6.06535C65.2214 6.06535 65.0418 6.10493 64.8713 6.18408C64.7008 6.26323 64.576 6.38196 64.4969 6.54026C64.576 6.6255 64.6156 6.74118 64.6156 6.88731C64.6156 6.97864 64.5821 7.06692 64.5151 7.15216C64.4482 7.23132 64.3508 7.27089 64.2229 7.27089C64.095 7.27089 63.9946 7.23132 63.9215 7.15216C63.8484 7.06692 63.8119 6.95733 63.8119 6.82338C63.8119 6.62246 63.888 6.4398 64.0402 6.27541C64.1985 6.10493 64.4147 5.97098 64.6887 5.87356C64.9687 5.77614 65.2793 5.72743 65.6202 5.72743C66.1317 5.72743 66.5092 5.86443 66.7527 6.13841C66.9962 6.40631 67.115 6.83251 67.1089 7.41702L67.0997 9.47192C67.0997 9.66675 67.0876 9.87376 67.0632 10.093L67.7117 10.0564V10.44H66.4057C66.3874 10.3487 66.3661 10.1751 66.3417 9.91943C65.8973 10.3639 65.4193 10.5861 64.9079 10.5861ZM65.1179 10.0656C65.3493 10.0656 65.5593 10.0229 65.7481 9.93769C65.9368 9.84636 66.1286 9.70937 66.3235 9.52671C66.3174 9.43538 66.3143 9.28013 66.3143 9.06094L66.3235 8.20245C65.8242 8.22071 65.3797 8.32422 64.9901 8.51296C64.6004 8.69562 64.4055 8.97874 64.4055 9.36232C64.4055 9.5876 64.4725 9.76112 64.6065 9.8829C64.7404 10.0047 64.9109 10.0656 65.1179 10.0656ZM70.4938 10.5861C70.2502 10.5861 70.0097 10.5435 69.7723 10.4583C69.5348 10.373 69.3278 10.2299 69.1512 10.029L68.932 10.44H68.6124L68.6306 4.73195C68.6306 4.50058 68.6398 4.3027 68.658 4.13831L68.0096 4.17484V3.79126C68.3749 3.79126 68.6337 3.76995 68.7859 3.72733C68.9442 3.68471 69.066 3.62382 69.1512 3.54467H69.4161V6.26627C69.5866 6.09579 69.7875 5.96489 70.0188 5.87356C70.2563 5.77614 70.5151 5.72743 70.7951 5.72743C71.1848 5.72743 71.538 5.82181 71.8546 6.01055C72.1712 6.1993 72.4178 6.47024 72.5943 6.82338C72.777 7.17652 72.8683 7.58445 72.8683 8.04719C72.8683 8.55254 72.7587 8.99701 72.5395 9.38059C72.3203 9.76417 72.0281 10.0625 71.6628 10.2756C71.2975 10.4826 70.9078 10.5861 70.4938 10.5861ZM70.4938 10.2117C70.9321 10.2117 71.2792 10.0351 71.5349 9.68197C71.7967 9.32275 71.9276 8.85392 71.9276 8.27551C71.9276 7.63621 71.8089 7.12781 71.5714 6.75032C71.334 6.36674 70.9839 6.17494 70.5212 6.17494C70.3202 6.17494 70.1193 6.22365 69.9184 6.32107C69.7236 6.4124 69.5561 6.53722 69.4161 6.69552V9.00614C69.4161 9.80983 69.7753 10.2117 70.4938 10.2117ZM75.919 10.5861C75.4989 10.5861 75.1122 10.4887 74.7591 10.2939C74.4121 10.093 74.135 9.81592 73.928 9.46278C73.7271 9.10965 73.6266 8.71084 73.6266 8.26638C73.6266 7.79147 73.7271 7.36222 73.928 6.97864C74.1289 6.58897 74.4029 6.28454 74.75 6.06535C75.1031 5.84007 75.4928 5.72743 75.919 5.72743C76.3391 5.72743 76.7257 5.83094 77.0789 6.03795C77.432 6.23887 77.709 6.51591 77.9099 6.86904C78.117 7.22218 78.2205 7.6149 78.2205 8.04719C78.2205 8.50992 78.117 8.93612 77.9099 9.32579C77.709 9.71546 77.432 10.0229 77.0789 10.2482C76.7318 10.4735 76.3452 10.5861 75.919 10.5861ZM75.992 10.2208C76.4365 10.2208 76.7622 10.0382 76.9693 9.67284C77.1824 9.30752 77.2889 8.85392 77.2889 8.31204C77.2889 7.69709 77.1732 7.17043 76.9419 6.73205C76.7166 6.29367 76.3756 6.07448 75.919 6.07448C75.4684 6.07448 75.1275 6.26018 74.8961 6.63159C74.6708 7.00299 74.5582 7.45964 74.5582 8.00152C74.5582 8.39119 74.6099 8.75651 74.7134 9.09747C74.823 9.43234 74.9844 9.70328 75.1975 9.9103C75.4167 10.1173 75.6815 10.2208 75.992 10.2208ZM78.9964 10.166C79.173 10.166 79.2978 10.1234 79.3709 10.0382C79.45 9.94683 79.4957 9.83419 79.5078 9.70024C79.5261 9.5602 79.5352 9.34406 79.5352 9.0518V6.96951C79.5352 6.71378 79.5474 6.51591 79.5718 6.37587L78.9233 6.40327V6.02882H79.2065C79.4378 6.02882 79.6053 6.01055 79.7088 5.97402C79.8123 5.9314 79.9097 5.86747 80.001 5.78223H80.2659C80.2902 6.01969 80.3055 6.32107 80.3115 6.68639C80.4638 6.43675 80.6799 6.21452 80.96 6.01969C81.2461 5.82485 81.5414 5.72743 81.8459 5.72743C82.0285 5.72743 82.1807 5.77614 82.3025 5.87356C82.4243 5.97098 82.4852 6.11406 82.4852 6.30281C82.4852 6.40022 82.4456 6.49764 82.3664 6.59506C82.2934 6.69247 82.1868 6.74118 82.0468 6.74118C81.9128 6.74118 81.8032 6.69247 81.718 6.59506C81.6328 6.49155 81.5993 6.36978 81.6175 6.22974C81.3862 6.22365 81.1518 6.31194 80.9143 6.4946C80.6829 6.67725 80.4851 6.9208 80.3207 7.22523L80.3298 9.47192C80.3298 9.7459 80.3176 9.95292 80.2933 10.093L80.8686 10.0656V10.44H78.9964V10.166ZM84.1636 10.5861C83.7192 10.5861 83.3782 10.4857 83.1407 10.2847C82.9094 10.0838 82.7937 9.82201 82.7937 9.49932C82.7937 9.14618 82.9337 8.84784 83.2138 8.60429C83.5 8.36075 83.8561 8.18114 84.2823 8.06545C84.7146 7.94368 85.1469 7.88584 85.5792 7.89193V7.32569C85.5792 6.92993 85.5214 6.62246 85.4057 6.40327C85.29 6.17799 85.0434 6.06535 84.6659 6.06535C84.4772 6.06535 84.2976 6.10493 84.1271 6.18408C83.9566 6.26323 83.8318 6.38196 83.7526 6.54026C83.8318 6.6255 83.8714 6.74118 83.8714 6.88731C83.8714 6.97864 83.8379 7.06692 83.7709 7.15216C83.7039 7.23132 83.6065 7.27089 83.4787 7.27089C83.3508 7.27089 83.2503 7.23132 83.1773 7.15216C83.1042 7.06692 83.0677 6.95733 83.0677 6.82338C83.0677 6.62246 83.1438 6.4398 83.296 6.27541C83.4543 6.10493 83.6704 5.97098 83.9444 5.87356C84.2245 5.77614 84.535 5.72743 84.876 5.72743C85.3874 5.72743 85.7649 5.86443 86.0085 6.13841C86.252 6.40631 86.3707 6.83251 86.3646 7.41702L86.3555 9.47192C86.3555 9.66675 86.3433 9.87376 86.319 10.093L86.9674 10.0564V10.44H85.6614C85.6431 10.3487 85.6218 10.1751 85.5975 9.91943C85.153 10.3639 84.6751 10.5861 84.1636 10.5861ZM84.3737 10.0656C84.605 10.0656 84.8151 10.0229 85.0038 9.93769C85.1926 9.84636 85.3844 9.70937 85.5792 9.52671C85.5731 9.43538 85.5701 9.28013 85.5701 9.06094L85.5792 8.20245C85.08 8.22071 84.6355 8.32422 84.2458 8.51296C83.8561 8.69562 83.6613 8.97874 83.6613 9.36232C83.6613 9.5876 83.7283 9.76112 83.8622 9.8829C83.9962 10.0047 84.1667 10.0656 84.3737 10.0656ZM89.2487 10.5861C88.4146 10.5861 88.0006 10.026 88.0066 8.90568L88.0249 6.25714L87.3217 6.26627V5.87356C87.6139 5.86747 87.8605 5.73657 88.0614 5.48084C88.2684 5.21904 88.4207 4.92374 88.5181 4.59496H88.8286V5.87356H90.3629V6.22974L88.8286 6.24801C88.8225 7.17956 88.8164 7.82495 88.8103 8.18418C88.8103 8.54341 88.8103 8.74433 88.8103 8.78695C88.8103 9.21924 88.8621 9.54194 88.9656 9.75504C89.0691 9.96205 89.2487 10.0656 89.5044 10.0656C89.6627 10.0656 89.818 10.0168 89.9702 9.91943C90.1285 9.82201 90.2655 9.68806 90.3812 9.51758L90.6278 9.7185C90.3903 10.0716 90.1559 10.3061 89.9245 10.4217C89.6932 10.5313 89.4679 10.5861 89.2487 10.5861ZM91.9677 4.87807C91.8399 4.87807 91.7272 4.82632 91.6298 4.72282C91.5324 4.61322 91.4837 4.48536 91.4837 4.33923C91.4837 4.19311 91.5324 4.06525 91.6298 3.95565C91.7333 3.84606 91.849 3.79126 91.9769 3.79126C92.1169 3.79126 92.2326 3.84606 92.3239 3.95565C92.4213 4.05916 92.4701 4.18702 92.4701 4.33923C92.4701 4.48536 92.4183 4.61322 92.3148 4.72282C92.2174 4.82632 92.1017 4.87807 91.9677 4.87807ZM91.0636 10.166C91.2402 10.166 91.365 10.1234 91.438 10.0382C91.5172 9.94683 91.5629 9.83419 91.575 9.70024C91.5933 9.5602 91.6024 9.34406 91.6024 9.0518V6.96951C91.6024 6.79294 91.6146 6.59506 91.639 6.37587L90.9905 6.4124V6.02882C91.3498 6.02882 91.6055 6.00751 91.7577 5.96489C91.916 5.92227 92.0378 5.86138 92.123 5.78223H92.3879V9.47192C92.3879 9.7459 92.3757 9.95292 92.3513 10.093L92.9267 10.0656V10.44H91.0636V10.166ZM94.0615 7.49008C93.8179 6.92993 93.6901 6.50677 93.6779 6.22061L93.2852 6.24801V5.87356H94.9656V6.14755C94.6977 6.14755 94.5638 6.26018 94.5638 6.48546C94.5638 6.64985 94.6277 6.87513 94.7556 7.1613L95.4588 8.76868C95.5379 8.95743 95.6293 9.18271 95.7328 9.44452H95.7419C95.7602 9.38363 95.7845 9.31666 95.815 9.24359L95.952 8.85088L96.6826 6.85078C96.7435 6.67421 96.8348 6.46415 96.9566 6.22061L96.3721 6.24801V5.87356H97.8151V6.14755C97.6872 6.14755 97.5776 6.19321 97.4863 6.28454C97.395 6.36978 97.3097 6.49155 97.2306 6.64985C97.1575 6.80816 97.057 7.0517 96.9292 7.38049L95.7328 10.4674H95.3675L94.0615 7.49008ZM100.464 10.5861C100.043 10.5861 99.6569 10.4887 99.3037 10.2939C98.9567 10.093 98.6797 9.81592 98.4726 9.46278C98.2717 9.10965 98.1713 8.71084 98.1713 8.26638C98.1713 7.79147 98.2717 7.36222 98.4726 6.97864C98.6736 6.58897 98.9476 6.28454 99.2946 6.06535C99.6477 5.84007 100.037 5.72743 100.464 5.72743C100.884 5.72743 101.27 5.83094 101.623 6.03795C101.977 6.23887 102.254 6.51591 102.455 6.86904C102.662 7.22218 102.765 7.6149 102.765 8.04719C102.765 8.50992 102.662 8.93612 102.455 9.32579C102.254 9.71546 101.977 10.0229 101.623 10.2482C101.276 10.4735 100.89 10.5861 100.464 10.5861ZM100.537 10.2208C100.981 10.2208 101.307 10.0382 101.514 9.67284C101.727 9.30752 101.834 8.85392 101.834 8.31204C101.834 7.69709 101.718 7.17043 101.486 6.73205C101.261 6.29367 100.92 6.07448 100.464 6.07448C100.013 6.07448 99.6721 6.26018 99.4407 6.63159C99.2154 7.00299 99.1028 7.45964 99.1028 8.00152C99.1028 8.39119 99.1546 8.75651 99.2581 9.09747C99.3677 9.43234 99.529 9.70328 99.7421 9.9103C99.9613 10.1173 100.226 10.2208 100.537 10.2208Z" fill="black"/>
<path opacity="0.36" d="M6.64282 3.82532C7.40851 2.94579 8.76415 2.50439 10.1086 3.18469L10.2278 3.25012C10.4912 3.4052 10.7035 3.60163 10.9348 3.79016C10.9963 3.74141 11.0551 3.68833 11.1145 3.63293C11.1789 3.5729 11.2456 3.51194 11.3196 3.45715L11.4661 3.35559C13.0029 2.36148 15.197 3.03432 15.7083 4.73645L15.7571 4.92786C15.9628 5.87564 15.5757 6.77923 14.7971 7.42004C15.0561 7.96553 14.6712 8.58791 14.011 8.56946C14.006 9.04358 13.619 9.38717 13.1106 9.38684C13.1174 9.41576 13.1199 9.44524 13.1165 9.47375L13.092 9.59192C13.002 9.97517 12.6467 10.1972 12.2375 10.2023C12.2498 10.7026 11.7811 11.094 11.2522 11.0099L11.1438 10.9855C11.1101 10.9761 11.0645 10.9533 11.0256 10.9347C11.0054 10.925 10.9863 10.9156 10.97 10.9093C10.9529 10.9027 10.9415 10.9006 10.9358 10.9005H10.9348C10.9342 10.9006 10.933 10.9013 10.9319 10.9015C10.9297 10.902 10.9265 10.9023 10.9231 10.9034C10.9159 10.9059 10.9071 10.9096 10.8967 10.9142C10.8752 10.9238 10.8492 10.9374 10.8206 10.9513C10.7928 10.9648 10.762 10.9792 10.7317 10.9913L10.6458 11.0167C10.3419 11.0601 10.0816 10.9974 9.89478 10.8517C9.71361 10.7103 9.60541 10.4928 9.59106 10.2247C9.35062 10.2337 9.12198 10.1424 8.95923 9.99133C8.79763 9.84128 8.69994 9.63213 8.72095 9.40735C8.21874 9.404 7.81388 9.07287 7.83618 8.59094C7.30896 8.61012 6.89741 8.20577 6.95044 7.71301L6.97192 7.62903C6.98288 7.59736 6.99689 7.56256 7.01001 7.5304C7.02331 7.49781 7.03596 7.46845 7.04517 7.44543C7.0497 7.43409 7.05273 7.42465 7.05493 7.41809V7.41711L7.01489 7.37708C6.98605 7.34939 6.94775 7.31366 6.90747 7.27747L6.71313 7.10071C5.69997 6.02638 5.87696 4.70532 6.64282 3.82532ZM10.9006 9.43274L10.8987 9.43372H10.8977V9.43274C10.8665 9.43625 10.8197 9.45182 10.7854 9.46399V9.46497C10.7587 9.47446 10.7105 9.50438 10.6497 9.54993C10.5897 9.5948 10.5202 9.65261 10.4514 9.71204C10.3825 9.77153 10.315 9.83273 10.259 9.88586L10.136 10.0109C10.0578 10.1041 10.0319 10.2012 10.0413 10.2882C10.0507 10.3755 10.0953 10.4562 10.1633 10.5167C10.2994 10.6378 10.5248 10.6771 10.7258 10.5294L11.0208 10.2609C11.085 10.1997 11.1479 10.138 11.1965 10.089C11.2208 10.0645 11.2418 10.0432 11.2571 10.0265C11.2732 10.0089 11.2816 9.99856 11.2834 9.99524L11.3069 9.94543C11.4055 9.69376 11.2035 9.40534 10.9006 9.43274ZM11.7385 10.0519C11.6917 10.1619 11.6209 10.2562 11.5403 10.3419C11.494 10.3911 11.4442 10.438 11.3958 10.4845C11.3593 10.5195 11.3239 10.5548 11.2893 10.59C11.4745 10.6279 11.6309 10.5648 11.719 10.4562C11.8057 10.3491 11.8267 10.1981 11.7385 10.0519ZM9.96997 8.61633H9.96704L9.87817 8.64661C9.86512 8.65208 9.84471 8.66436 9.8186 8.68274C9.79282 8.70092 9.76212 8.72481 9.72876 8.75208C9.66173 8.80688 9.58299 8.87664 9.50708 8.94836C9.43132 9.01994 9.3582 9.09347 9.30103 9.15637C9.27239 9.18789 9.24738 9.21712 9.22876 9.24133L9.1936 9.29602C9.1242 9.46511 9.18388 9.62569 9.30298 9.72278C9.42239 9.82005 9.6009 9.85236 9.76685 9.76282L9.81079 9.72961C9.8326 9.71188 9.86 9.68851 9.89087 9.66125C9.95256 9.60679 10.0284 9.53747 10.1028 9.46692C10.1773 9.39626 10.2511 9.32479 10.3079 9.26672C10.3362 9.23772 10.3601 9.21182 10.3782 9.19153C10.3971 9.17026 10.4076 9.1568 10.4104 9.15149L10.4329 9.09973C10.4754 8.97758 10.443 8.85516 10.3655 8.76282C10.2765 8.65701 10.1288 8.5918 9.96997 8.61633ZM10.2874 3.79504C9.35487 3.06149 7.96175 3.13265 7.12524 3.922L6.96606 4.08997C6.16352 5.02694 6.3616 6.34568 7.34595 7.09778C7.46182 7.01604 7.55056 6.9222 7.65161 6.83215C7.75634 6.73885 7.87245 6.65526 8.03931 6.61243L8.14868 6.58997C8.68202 6.51255 9.12505 6.88613 9.1311 7.3927C9.37235 7.37833 9.60186 7.47062 9.76489 7.62317C9.92659 7.77449 10.0221 7.98561 9.99927 8.21008C10.4918 8.18651 10.916 8.56476 10.886 9.02747C11.0313 9.02956 11.2117 9.05441 11.342 9.11536L11.4124 9.15442C11.4815 9.1997 11.5495 9.26217 11.6165 9.32825C11.7069 9.4175 11.7958 9.5141 11.8899 9.59778C11.9839 9.68128 12.0796 9.74836 12.1799 9.77747C12.2789 9.80611 12.3847 9.7988 12.5012 9.72961L12.5813 9.66809C12.6489 9.60077 12.6772 9.51823 12.676 9.43372C12.6748 9.34839 12.6437 9.25908 12.5881 9.17981L12.5247 9.10461C12.3414 8.92028 12.1256 8.73992 11.9104 8.55774C11.7492 8.42124 11.588 8.28362 11.4426 8.1427L11.304 8.0011C11.1964 7.88528 11.1629 7.76077 11.2141 7.67786C11.2535 7.61427 11.3334 7.58906 11.4358 7.60754L11.5452 7.64075L11.554 7.64465L11.553 7.64563L12.928 8.90442C13.1225 9.0108 13.3175 8.97811 13.4397 8.87415C13.5612 8.77053 13.6127 8.59503 13.5149 8.40735L12.1165 7.11243L12.1116 7.10852L12.135 7.0929L12.1125 7.10754C12.0767 7.05489 12.0631 7.00083 12.0696 6.95129C12.0761 6.90208 12.1014 6.85898 12.1379 6.82825C12.1931 6.78186 12.2737 6.76329 12.3557 6.78723L12.4368 6.82532L12.4407 6.82825L13.801 8.08313C14.0345 8.20923 14.253 8.14543 14.3665 8.01086C14.4235 7.94295 14.4542 7.85604 14.4475 7.76575C14.4424 7.69837 14.4167 7.62739 14.3635 7.55872L14.301 7.49036L11.8186 5.21008C11.6354 5.36055 11.4598 5.52017 11.2854 5.68176L10.7434 6.18372C10.6071 6.30617 10.533 6.40522 10.3518 6.47083L10.2668 6.49719C9.86156 6.6026 9.50775 6.43652 9.32056 6.17102C9.13334 5.90535 9.11301 5.53916 9.37427 5.24719L9.50415 5.11047C9.63985 4.97644 9.79181 4.8467 9.9436 4.7179C10.1469 4.54539 10.3508 4.37453 10.5178 4.19543L10.5637 4.13879C10.5752 4.12412 10.5882 4.10949 10.6018 4.09485C10.5951 4.08642 10.5852 4.07509 10.5725 4.06165C10.546 4.03364 10.5093 3.99752 10.4709 3.96106C10.3936 3.88764 10.31 3.81374 10.2874 3.79602V3.79504ZM9.05981 7.81946L8.95532 7.85754C8.9281 7.86986 8.87601 7.90714 8.81079 7.96204C8.7467 8.01599 8.67221 8.08436 8.59985 8.15442C8.52739 8.2246 8.45726 8.29715 8.40259 8.35852C8.37529 8.38917 8.35205 8.41706 8.33423 8.44055L8.30005 8.49329C8.23927 8.63899 8.27678 8.77224 8.36938 8.86438C8.46301 8.95733 8.61461 9.00972 8.77954 8.98547L8.84595 8.95813C8.87496 8.94228 8.90865 8.92012 8.94556 8.89368C9.01951 8.84067 9.10546 8.77062 9.18774 8.69641C9.26989 8.62231 9.3484 8.54428 9.4104 8.47668C9.44144 8.44284 9.46799 8.41163 9.48853 8.38489C9.50939 8.35771 9.52344 8.33668 9.52954 8.32239L9.55005 8.26477C9.58768 8.13293 9.55512 8.01688 9.47876 7.93567C9.41254 7.8654 9.31098 7.81937 9.18872 7.81262L9.05981 7.81946ZM8.21704 6.98157C8.19111 6.98547 8.1598 6.99649 8.12915 7.00989L8.04517 7.05481C8.02866 7.06587 7.98469 7.10232 7.92603 7.15442C7.86781 7.20613 7.79682 7.27161 7.72681 7.33704C7.65668 7.40257 7.58756 7.46878 7.53442 7.52161C7.50799 7.54789 7.48572 7.57095 7.46899 7.58899L7.4397 7.62317C7.34508 7.79144 7.39104 7.96144 7.50806 8.06555C7.6253 8.16972 7.81613 8.2088 8.01392 8.10657L8.07349 8.0675C8.09806 8.04959 8.12683 8.02714 8.15845 8.0011C8.22108 7.9495 8.2938 7.8862 8.36353 7.82043C8.43329 7.75463 8.50012 7.68644 8.55298 7.62805C8.57919 7.59909 8.60191 7.57279 8.61938 7.54993C8.63725 7.52652 8.64924 7.50754 8.65454 7.49524L8.67114 7.44641C8.72751 7.23165 8.56181 7.00793 8.32935 6.97961L8.21704 6.98157ZM12.7854 3.30676C12.0619 3.36863 11.5869 3.76082 11.1282 4.19934L10.6663 4.6427C10.5199 4.77815 10.3575 4.91529 10.1985 5.05286C10.1189 5.12166 10.0402 5.19073 9.96411 5.25989L9.74634 5.4679C9.58459 5.63271 9.59997 5.82986 9.70435 5.96399C9.8094 6.09888 10.0042 6.17019 10.2043 6.07922L10.3088 6.01477C10.3416 5.98907 10.3729 5.95976 10.4036 5.92883C10.4633 5.86855 10.5236 5.79886 10.5833 5.74524L11.1233 5.26086C11.3014 5.09932 11.477 4.93551 11.6477 4.76575L11.6506 4.76379L11.6887 4.74036C11.729 4.72063 11.7755 4.71175 11.8206 4.71301C11.8804 4.71474 11.9415 4.73416 11.9856 4.77454V4.77551L14.4866 7.0802L14.5208 7.09875C14.6939 6.93525 14.8688 6.78455 15.0012 6.59387L15.094 6.44934C15.5235 5.71963 15.4413 4.92267 15.0276 4.31262C14.6137 3.70231 13.867 3.27855 12.967 3.297L12.7854 3.30676Z" fill="#1F1F1F" stroke="#1F1F1F" stroke-width="0.0541531"/>
</svg>
