<svg width="28" height="25" viewBox="0 0 28 25" fill="none" xmlns="http://www.w3.org/2000/svg">
<path d="M2.63184 3.69458C4.6678 1.21216 8.27289 -0.0338882 11.8506 1.88794L12.168 2.07251C12.8735 2.51359 13.4406 3.07382 14.0645 3.61255C14.2342 3.47093 14.3942 3.31434 14.5566 3.15356C14.7284 2.98351 14.9045 2.81075 15.1006 2.65649L15.2949 2.50903C19.3927 -0.499888 25.3941 1.38939 26.7734 6.26587L26.8447 6.53638C27.5198 9.31018 26.4897 11.9773 24.3398 13.8479C25.0393 15.3799 24.0165 17.1536 22.2471 17.0862C22.2453 18.4281 21.2118 19.4104 19.8447 19.3987C19.8698 19.4847 19.8706 19.5775 19.8604 19.6672C19.8538 19.7247 19.843 19.783 19.8311 19.8391L19.7959 19.9983C19.5577 21.0737 18.6121 21.7025 17.5176 21.7092C17.5658 23.1629 16.2369 24.3055 14.7695 23.9631L14.626 23.925C14.5379 23.899 14.4177 23.835 14.3125 23.7815C14.2584 23.754 14.2076 23.7285 14.1631 23.7102C14.1169 23.6913 14.0844 23.6829 14.0654 23.6829C14.0604 23.6829 14.0479 23.685 14.0264 23.6926C14.0062 23.6998 13.9816 23.7104 13.9531 23.7239C13.8951 23.7513 13.8251 23.7882 13.749 23.8274C13.6377 23.8847 13.511 23.9479 13.3975 23.9846L13.29 24.011C12.4833 24.1332 11.7946 23.9579 11.3018 23.55C10.8192 23.1505 10.5308 22.5326 10.498 21.7698C9.21567 21.8322 8.05015 20.7293 8.18262 19.4543C6.82846 19.4564 5.74556 18.5096 5.82031 17.1438C4.41131 17.2114 3.31608 16.0696 3.45605 14.6887L3.47656 14.5823C3.48663 14.5427 3.49932 14.4994 3.51367 14.4553C3.5426 14.3666 3.57938 14.2697 3.61426 14.179C3.64952 14.0872 3.68246 14.0029 3.70703 13.9377C3.71919 13.9055 3.72919 13.8791 3.73535 13.8596C3.73774 13.8521 3.73814 13.8455 3.73926 13.8411L3.71484 13.8108C3.6927 13.7851 3.66073 13.7516 3.62207 13.7122C3.54469 13.6333 3.44163 13.5326 3.33398 13.4299L2.81836 12.9319C0.125496 9.90142 0.595657 6.17737 2.63184 3.69458ZM13.9707 19.5286H13.9697L13.8174 19.5627C13.7621 19.5797 13.7061 19.6008 13.6592 19.6184H13.6582C13.6223 19.6319 13.5714 19.6607 13.5078 19.7034C13.4447 19.7457 13.3711 19.7999 13.291 19.8635C13.1307 19.991 12.9445 20.1531 12.7607 20.3215C12.4844 20.5749 12.2155 20.8408 12.0469 21.0227L11.915 21.1731C11.4925 21.7076 11.6223 22.2944 11.9922 22.6438C12.3625 22.9935 12.973 23.1049 13.5176 22.6799L13.8154 22.4045C13.9581 22.2663 14.1332 22.0926 14.3057 21.9182C14.4771 21.7449 14.6454 21.5719 14.7754 21.4329C14.8404 21.3633 14.8952 21.3019 14.9365 21.2542C14.9794 21.2045 15.004 21.1731 15.0107 21.1604L15.0762 21.0149C15.3478 20.28 14.7893 19.45 13.9707 19.5286ZM16.207 21.2551C16.0849 21.5807 15.8862 21.8557 15.6621 22.1086C15.5393 22.2473 15.4086 22.3803 15.2793 22.512C15.17 22.6233 15.0628 22.735 14.96 22.8479C15.4794 22.978 15.9249 22.7949 16.1729 22.47C16.4177 22.149 16.4718 21.6896 16.207 21.2551ZM11.4854 17.2161H11.4834C11.4438 17.2224 11.4028 17.2356 11.3613 17.2512L11.2363 17.304C11.1991 17.3205 11.1436 17.3558 11.0732 17.4084C11.0036 17.4606 10.9217 17.5279 10.832 17.6057C10.6527 17.7613 10.443 17.959 10.2402 18.1624C10.0376 18.3656 9.84154 18.5743 9.68848 18.7532C9.6119 18.8427 9.54629 18.9241 9.49609 18.9934C9.47057 19.0286 9.44992 19.0602 9.43359 19.0872L9.39844 19.1545C9.01715 20.139 10.0568 21.0277 10.9561 20.5129L11.0781 20.4172C11.1367 20.3667 11.2104 20.3003 11.293 20.2229C11.458 20.0682 11.6604 19.8704 11.8594 19.6702C12.0584 19.4699 12.2536 19.2665 12.4053 19.1018C12.4811 19.0195 12.5462 18.9468 12.5947 18.8889C12.6442 18.8298 12.6733 18.7904 12.6826 18.7717L12.7451 18.6194C12.994 17.8569 12.2967 17.0824 11.4854 17.2161ZM12.3496 3.57056C9.77139 1.41651 5.87773 1.70332 3.66895 4.16235L3.46094 4.40747C1.30561 7.07869 1.84298 10.8422 4.49023 12.9778C4.80758 12.7429 5.0481 12.4687 5.31934 12.2122C5.59736 11.9492 5.90286 11.7132 6.34375 11.593L6.49023 11.5579C7.97599 11.2407 9.23254 12.3289 9.23438 13.804C10.5194 13.7109 11.6885 14.8468 11.5469 16.1184C12.8725 16.0382 14.0083 17.1251 13.9102 18.4338C14.3006 18.4374 14.7918 18.5046 15.1426 18.679L15.2344 18.7297C15.4481 18.8583 15.657 19.0584 15.8652 19.2766C16.1058 19.5287 16.3453 19.8052 16.5977 20.0432C16.8492 20.2805 17.107 20.4722 17.3789 20.5559C17.6479 20.6386 17.9354 20.6162 18.251 20.4172L18.3701 20.3323C18.6261 20.1229 18.7342 19.8451 18.7305 19.5569C18.7267 19.2668 18.6094 18.9641 18.4092 18.7102L18.3184 18.6038C17.8285 18.0808 17.2515 17.5706 16.6777 17.0549C16.2481 16.6688 15.8201 16.2798 15.4336 15.8821L15.0625 15.4807C14.7774 15.1547 14.7001 14.8164 14.8271 14.5989C14.8914 14.4893 15.0042 14.4187 15.1514 14.3997C15.261 14.3856 15.3897 14.3998 15.5342 14.4465L15.6836 14.5042L15.6924 14.5081L15.6982 14.5139L19.3721 18.0862C19.897 18.3892 20.4265 18.294 20.7588 17.9934C21.0905 17.6931 21.2309 17.183 20.9668 16.6409L17.2285 12.9631L17.2197 12.9553L17.2637 12.928L17.2207 12.9543C17.0343 12.6636 17.0982 12.3701 17.2871 12.2014C17.4517 12.0547 17.7054 12.0076 17.9531 12.1311L18.0586 12.1956L18.0654 12.1995L18.0645 12.2004L21.6943 15.7542C22.3268 16.1191 22.9228 15.9372 23.2334 15.5452C23.5247 15.1773 23.5706 14.6172 23.1465 14.1301L23.0557 14.0344L16.4229 7.56567C15.6761 8.21555 14.9748 8.92467 14.2646 9.62622L13.5381 10.3333C13.1724 10.6819 12.9787 10.9582 12.5 11.1418L12.2764 11.2141C10.1307 11.8067 8.53717 9.35488 9.91602 7.71997L10.084 7.52759C10.4874 7.08023 10.9602 6.65121 11.4336 6.22485C11.9756 5.7367 12.5181 5.2518 12.9648 4.74341L13.0898 4.58228C13.1248 4.53488 13.1624 4.48628 13.2041 4.44067C13.2011 4.43624 13.1977 4.43087 13.1934 4.42505C13.1746 4.39978 13.147 4.36551 13.1113 4.32544C13.04 4.24543 12.9416 4.14391 12.8389 4.04028C12.7358 3.93633 12.6289 3.83139 12.54 3.74634L12.3496 3.57056ZM10.1934 15.2952C9.95591 15.0277 9.55785 14.8829 9.08496 14.9553L9.05957 14.9602C9.01181 14.9682 8.96422 14.983 8.91699 15.0022L8.77441 15.0676C8.73782 15.0852 8.68398 15.1215 8.61621 15.1741C8.54919 15.226 8.47062 15.2927 8.38477 15.3694C8.21308 15.5228 8.01284 15.7164 7.81934 15.9153C7.62589 16.1142 7.4392 16.3182 7.29297 16.4924C7.21998 16.5794 7.15747 16.6586 7.10938 16.7258C7.08503 16.7599 7.06455 16.7905 7.04883 16.8167L7.01465 16.8821C6.8478 17.3067 6.95193 17.6971 7.20605 17.9651C7.46134 18.2341 7.87056 18.382 8.31543 18.3127L8.39453 18.2883C8.42564 18.2752 8.46192 18.2569 8.50195 18.2336C8.58041 18.1881 8.67162 18.1253 8.77051 18.05C8.96856 17.8993 9.19626 17.6999 9.41602 17.4895C9.63565 17.2792 9.84662 17.0586 10.0127 16.8665C10.0958 16.7703 10.1673 16.6812 10.2227 16.6047C10.2786 16.5274 10.3163 16.465 10.334 16.4211L10.3906 16.2551C10.4938 15.8719 10.4042 15.5327 10.1934 15.2952ZM6.82715 12.5842V12.5852L6.81152 12.5881C6.70477 12.6051 6.56527 12.6649 6.4502 12.7307L6.3457 12.7971C6.30075 12.8288 6.1816 12.9351 6.02441 13.0833C5.86878 13.23 5.67821 13.4144 5.49121 13.5999C5.30407 13.7855 5.12047 13.9725 4.97852 14.1223C4.9078 14.197 4.84769 14.2622 4.80273 14.3137C4.75619 14.367 4.72919 14.4011 4.72168 14.4153V14.4163C4.46279 14.9054 4.58828 15.4011 4.9082 15.7034C5.22796 16.0053 5.74561 16.1168 6.28027 15.8235L6.44336 15.7112C6.50952 15.66 6.58673 15.5963 6.6709 15.5227C6.83839 15.3762 7.03152 15.1945 7.21777 15.0081C7.40414 14.8215 7.58404 14.6301 7.72559 14.4641C7.79638 14.3811 7.85691 14.3044 7.9043 14.2385C7.95217 14.1719 7.98453 14.1184 8 14.0803L8.04688 13.9358C8.22541 13.2147 7.59629 12.4744 6.82715 12.5842ZM25.0547 11.3264C27.6523 7.01512 24.1881 1.75271 19.0557 2.17603L18.998 2.18188C17.7085 2.29894 16.7113 2.83376 15.8271 3.54517C15.1621 4.0803 14.5638 4.71215 13.9521 5.34302L13.333 5.96997C12.943 6.35316 12.5106 6.74128 12.0859 7.1311C11.7672 7.42373 11.452 7.71751 11.1602 8.01294L10.877 8.30884C9.99629 9.26141 11.0403 10.6065 12.123 10.0842L12.2686 10.0012C12.4092 9.90766 12.5377 9.7848 12.6611 9.65259C12.8228 9.47944 12.9806 9.28356 13.1396 9.13208L14.5791 7.76294C15.0549 7.305 15.5244 6.84095 15.9805 6.35962L15.9854 6.35474C16.1068 6.2571 16.2683 6.2124 16.4248 6.21704C16.5813 6.22178 16.7386 6.2762 16.8516 6.38599L23.5293 12.9192L23.6318 12.9768C24.0959 12.5109 24.569 12.0783 24.9268 11.5315L25.0547 11.3264Z" fill="#1F1F1F" stroke="#1F1F1F" stroke-width="0.1"/>
</svg>
