<svg width="108" height="16" viewBox="0 0 108 16" fill="none" xmlns="http://www.w3.org/2000/svg">
<rect x="0.18" y="0.979988" width="107.64" height="14.04" rx="7.02" fill="#D6A9D6" stroke="black" stroke-width="0.36"/>
<path d="M18.5023 10.9386C18.7154 10.9325 18.8676 10.8838 18.959 10.7925C19.0503 10.7011 19.102 10.5946 19.1142 10.4728C19.1264 10.345 19.1325 10.1258 19.1325 9.81526V5.86985C19.1325 5.61413 19.1416 5.39494 19.1599 5.21229L18.5023 5.24882V4.84697C19.3547 4.83479 20.0336 4.8287 20.5389 4.8287C21.4461 4.8287 22.1311 4.98701 22.5938 5.30361C23.0627 5.62022 23.2971 6.086 23.2971 6.70095C23.2971 7.05408 23.2027 7.392 23.014 7.7147C22.8313 8.03739 22.5116 8.30529 22.055 8.51839C21.6044 8.73149 21.0047 8.83804 20.2558 8.83804C20.1158 8.83804 20.0062 8.835 19.927 8.82891V10.1532C19.927 10.4759 19.9179 10.7164 19.8996 10.8747L20.7399 10.829V11.24H18.5023V10.9386ZM20.5207 8.48186C20.8677 8.48186 21.1843 8.41488 21.4705 8.28094C21.7627 8.1409 21.9911 7.94302 22.1555 7.6873C22.3259 7.42549 22.4112 7.12106 22.4112 6.77401C22.4112 6.22604 22.2437 5.82419 21.9089 5.56847C21.574 5.31275 21.1113 5.18489 20.5207 5.18489C20.3137 5.18489 20.1675 5.22751 20.0823 5.31275C20.0031 5.39799 19.9575 5.50149 19.9453 5.62327C19.9331 5.73895 19.927 5.95509 19.927 6.2717V8.45446C20.0793 8.47273 20.2771 8.48186 20.5207 8.48186ZM26.1162 11.3861C25.6961 11.3861 25.3095 11.2887 24.9563 11.0939C24.6093 10.8929 24.3323 10.6159 24.1252 10.2628C23.9243 9.90963 23.8239 9.51083 23.8239 9.06636C23.8239 8.59145 23.9243 8.16221 24.1252 7.77863C24.3262 7.38896 24.6002 7.08453 24.9472 6.86534C25.3003 6.64006 25.69 6.52742 26.1162 6.52742C26.5363 6.52742 26.9229 6.63093 27.2761 6.83794C27.6292 7.03886 27.9063 7.31589 28.1072 7.66903C28.3142 8.02217 28.4177 8.41488 28.4177 8.84717C28.4177 9.30991 28.3142 9.73611 28.1072 10.1258C27.9063 10.5154 27.6292 10.8229 27.2761 11.0482C26.929 11.2735 26.5424 11.3861 26.1162 11.3861ZM26.1893 11.0208C26.6337 11.0208 26.9595 10.8381 27.1665 10.4728C27.3796 10.1075 27.4861 9.65391 27.4861 9.11203C27.4861 8.49708 27.3705 7.97042 27.1391 7.53204C26.9138 7.09366 26.5729 6.87447 26.1162 6.87447C25.6657 6.87447 25.3247 7.06017 25.0933 7.43158C24.868 7.80298 24.7554 8.25963 24.7554 8.80151C24.7554 9.19118 24.8072 9.55649 24.9107 9.89746C25.0203 10.2323 25.1816 10.5033 25.3947 10.7103C25.6139 10.9173 25.8788 11.0208 26.1893 11.0208ZM31.4038 11.3861C30.9837 11.3861 30.6031 11.2887 30.2622 11.0939C29.9273 10.8929 29.6625 10.6098 29.4676 10.2445C29.2728 9.8731 29.1754 9.4469 29.1754 8.9659C29.1754 8.5397 29.2728 8.1409 29.4676 7.76949C29.6625 7.392 29.9334 7.09062 30.2804 6.86534C30.6336 6.64006 31.0324 6.52742 31.4769 6.52742C31.8239 6.52742 32.1375 6.60353 32.4175 6.75574C32.6976 6.90796 32.9199 7.13628 33.0842 7.44071C33.2486 7.73905 33.3308 8.10741 33.3308 8.54579L30.1161 8.60059C30.11 9.33122 30.2287 9.9005 30.4722 10.3084C30.7219 10.7164 31.1055 10.9203 31.623 10.9203C31.9031 10.9203 32.1892 10.8473 32.4815 10.7011C32.7798 10.555 33.0081 10.3754 33.1664 10.1623L33.3856 10.345C33.1543 10.6981 32.8529 10.9599 32.4815 11.1304C32.1162 11.3009 31.7569 11.3861 31.4038 11.3861ZM32.4723 8.217C32.4723 7.85169 32.3901 7.53813 32.2258 7.27632C32.0614 7.01451 31.8148 6.8836 31.486 6.8836C30.731 6.8836 30.2835 7.32807 30.1435 8.217H32.4723ZM34.1436 10.966C34.3202 10.966 34.445 10.9234 34.518 10.8381C34.5972 10.7468 34.6429 10.6342 34.655 10.5002C34.6733 10.3602 34.6824 10.144 34.6824 9.85179V7.76949C34.6824 7.51377 34.6946 7.31589 34.719 7.17586L34.0705 7.21239V6.82881C34.4298 6.82881 34.6763 6.81054 34.8103 6.77401C34.9442 6.73139 35.0569 6.66746 35.1482 6.58222H35.4131C35.4252 6.67355 35.4374 6.83489 35.4496 7.06626C35.6383 6.90187 35.8514 6.77096 36.0889 6.67355C36.3263 6.57613 36.5608 6.52742 36.7921 6.52742C37.0905 6.52742 37.3431 6.58222 37.5502 6.69181C37.7633 6.79532 37.9276 6.94449 38.0433 7.13932C38.2625 6.96276 38.5061 6.81663 38.774 6.70095C39.0479 6.58526 39.3098 6.52742 39.5594 6.52742C40.0952 6.52742 40.4849 6.69181 40.7284 7.0206C40.978 7.34329 41.0968 7.86082 41.0846 8.57319L41.0754 10.2719C41.0754 10.5459 41.0633 10.7529 41.0389 10.8929L41.6143 10.8655V11.24H39.7512V10.966C39.9277 10.966 40.0526 10.9234 40.1256 10.8381C40.2048 10.7468 40.2504 10.6342 40.2626 10.5002C40.2809 10.3602 40.29 10.144 40.29 9.85179V8.57319C40.29 8.04957 40.2078 7.6599 40.0434 7.40418C39.879 7.14237 39.6203 7.01146 39.2671 7.01146C39.0784 7.01146 38.8866 7.05408 38.6918 7.13932C38.503 7.21848 38.3356 7.32503 38.1895 7.45898C38.2503 7.64772 38.2808 7.86996 38.2808 8.12568L38.2625 10.2719C38.2625 10.5459 38.2503 10.7529 38.226 10.8929L38.8014 10.8655V11.24H36.9383V10.966C37.1148 10.966 37.2396 10.9234 37.3127 10.8381C37.3919 10.7468 37.4375 10.6372 37.4497 10.5094C37.4619 10.3754 37.471 10.1562 37.4771 9.85179L37.4862 8.57319C37.4923 8.04348 37.4162 7.64772 37.2579 7.38591C37.0996 7.1241 36.8469 6.9932 36.4999 6.9932C36.3111 6.9932 36.1224 7.03277 35.9336 7.11193C35.751 7.19108 35.5927 7.29763 35.4587 7.43158L35.4679 7.92475V10.2719C35.4679 10.5459 35.4557 10.7529 35.4313 10.8929L36.0067 10.8655V11.24H34.1436V10.966ZM43.5829 11.3861C43.1385 11.3861 42.7975 11.2857 42.56 11.0847C42.3287 10.8838 42.213 10.622 42.213 10.2993C42.213 9.94616 42.353 9.64782 42.6331 9.40428C42.9193 9.16074 43.2755 8.98112 43.7017 8.86544C44.1339 8.74367 44.5662 8.68583 44.9985 8.69191V8.12568C44.9985 7.72992 44.9407 7.42244 44.825 7.20325C44.7093 6.97798 44.4627 6.86534 44.0852 6.86534C43.8965 6.86534 43.7169 6.90491 43.5464 6.98407C43.3759 7.06322 43.2511 7.18194 43.1719 7.34025C43.2511 7.42549 43.2907 7.54117 43.2907 7.6873C43.2907 7.77863 43.2572 7.86691 43.1902 7.95215C43.1232 8.0313 43.0258 8.07088 42.898 8.07088C42.7701 8.07088 42.6696 8.0313 42.5966 7.95215C42.5235 7.86691 42.487 7.75732 42.487 7.62337C42.487 7.42244 42.5631 7.23979 42.7153 7.07539C42.8736 6.90491 43.0898 6.77096 43.3637 6.67355C43.6438 6.57613 43.9543 6.52742 44.2953 6.52742C44.8067 6.52742 45.1842 6.66441 45.4278 6.9384C45.6713 7.2063 45.79 7.6325 45.784 8.217L45.7748 10.2719C45.7748 10.4667 45.7626 10.6738 45.7383 10.8929L46.3867 10.8564V11.24H45.0807C45.0625 11.1487 45.0411 10.9751 45.0168 10.7194C44.5723 11.1639 44.0944 11.3861 43.5829 11.3861ZM43.793 10.8655C44.0243 10.8655 44.2344 10.8229 44.4232 10.7377C44.6119 10.6464 44.8037 10.5094 44.9985 10.3267C44.9924 10.2354 44.9894 10.0801 44.9894 9.86092L44.9985 9.00243C44.4993 9.0207 44.0548 9.1242 43.6651 9.31295C43.2755 9.49561 43.0806 9.77873 43.0806 10.1623C43.0806 10.3876 43.1476 10.5611 43.2815 10.6829C43.4155 10.8047 43.586 10.8655 43.793 10.8655ZM52.5361 11.3861C51.9394 11.3861 51.4036 11.243 50.9287 10.9569C50.4599 10.6707 50.0915 10.281 49.8236 9.78786C49.5618 9.29469 49.4309 8.74671 49.4309 8.14394C49.4309 7.54726 49.5496 6.98711 49.7871 6.46349C50.0306 5.93987 50.3899 5.51671 50.8648 5.19402C51.3458 4.86524 51.9242 4.70084 52.6 4.70084C53.2698 4.70084 53.8847 4.88655 54.4449 5.25795L54.3992 4.76477H54.8924V6.8836H54.5636C54.5027 6.31736 54.3018 5.87594 53.9608 5.55933C53.6259 5.23664 53.1936 5.07529 52.6639 5.07529C52.2317 5.07529 51.8359 5.19706 51.4767 5.44061C51.1235 5.67806 50.8435 6.01902 50.6364 6.46349C50.4294 6.90796 50.3259 7.42244 50.3259 8.00695C50.3259 8.5671 50.4355 9.06941 50.6547 9.51387C50.8739 9.95225 51.1692 10.2963 51.5406 10.5459C51.912 10.7894 52.323 10.9112 52.7735 10.9112C53.1815 10.9112 53.5742 10.8199 53.9517 10.6372C54.3292 10.4546 54.6397 10.1958 54.8832 9.86092L55.1207 10.0527C54.7675 10.5459 54.3627 10.8929 53.906 11.0939C53.4494 11.2887 52.9927 11.3861 52.5361 11.3861ZM58.0635 11.3861C57.6434 11.3861 57.2567 11.2887 56.9036 11.0939C56.5565 10.8929 56.2795 10.6159 56.0725 10.2628C55.8716 9.90963 55.7711 9.51083 55.7711 9.06636C55.7711 8.59145 55.8716 8.16221 56.0725 7.77863C56.2734 7.38896 56.5474 7.08453 56.8945 6.86534C57.2476 6.64006 57.6373 6.52742 58.0635 6.52742C58.4836 6.52742 58.8702 6.63093 59.2234 6.83794C59.5765 7.03886 59.8535 7.31589 60.0544 7.66903C60.2615 8.02217 60.365 8.41488 60.365 8.84717C60.365 9.30991 60.2615 9.73611 60.0544 10.1258C59.8535 10.5154 59.5765 10.8229 59.2234 11.0482C58.8763 11.2735 58.4897 11.3861 58.0635 11.3861ZM58.1365 11.0208C58.581 11.0208 58.9067 10.8381 59.1138 10.4728C59.3269 10.1075 59.4334 9.65391 59.4334 9.11203C59.4334 8.49708 59.3177 7.97042 59.0864 7.53204C58.8611 7.09366 58.5201 6.87447 58.0635 6.87447C57.6129 6.87447 57.272 7.06017 57.0406 7.43158C56.8153 7.80298 56.7027 8.25963 56.7027 8.80151C56.7027 9.19118 56.7544 9.55649 56.8579 9.89746C56.9675 10.2323 57.1289 10.5033 57.342 10.7103C57.5612 10.9173 57.826 11.0208 58.1365 11.0208ZM61.0496 10.966C61.2261 10.966 61.351 10.9234 61.424 10.8381C61.5032 10.7468 61.5488 10.6342 61.561 10.5002C61.5793 10.3602 61.5884 10.144 61.5884 9.85179V5.53194C61.5884 5.30057 61.5975 5.10269 61.6158 4.9383L60.9674 4.97483V4.59125C61.3327 4.59125 61.5915 4.56994 61.7437 4.52732C61.902 4.4847 62.0237 4.42381 62.109 4.34466H62.3738L62.383 10.2719C62.383 10.5094 62.3677 10.7164 62.3373 10.8929L62.9127 10.8655V11.24H61.0496V10.966ZM64.9079 11.3861C64.4634 11.3861 64.1224 11.2857 63.885 11.0847C63.6536 10.8838 63.5379 10.622 63.5379 10.2993C63.5379 9.94616 63.678 9.64782 63.958 9.40428C64.2442 9.16074 64.6004 8.98112 65.0266 8.86544C65.4589 8.74367 65.8912 8.68583 66.3235 8.69191V8.12568C66.3235 7.72992 66.2656 7.42244 66.1499 7.20325C66.0342 6.97798 65.7877 6.86534 65.4102 6.86534C65.2214 6.86534 65.0418 6.90491 64.8713 6.98407C64.7008 7.06322 64.576 7.18194 64.4969 7.34025C64.576 7.42549 64.6156 7.54117 64.6156 7.6873C64.6156 7.77863 64.5821 7.86691 64.5151 7.95215C64.4482 8.0313 64.3508 8.07088 64.2229 8.07088C64.095 8.07088 63.9946 8.0313 63.9215 7.95215C63.8484 7.86691 63.8119 7.75732 63.8119 7.62337C63.8119 7.42244 63.888 7.23979 64.0402 7.07539C64.1985 6.90491 64.4147 6.77096 64.6887 6.67355C64.9687 6.57613 65.2793 6.52742 65.6202 6.52742C66.1317 6.52742 66.5092 6.66441 66.7527 6.9384C66.9962 7.2063 67.115 7.6325 67.1089 8.217L67.0997 10.2719C67.0997 10.4667 67.0876 10.6738 67.0632 10.8929L67.7117 10.8564V11.24H66.4057C66.3874 11.1487 66.3661 10.9751 66.3417 10.7194C65.8973 11.1639 65.4193 11.3861 64.9079 11.3861ZM65.1179 10.8655C65.3493 10.8655 65.5593 10.8229 65.7481 10.7377C65.9368 10.6464 66.1286 10.5094 66.3235 10.3267C66.3174 10.2354 66.3143 10.0801 66.3143 9.86092L66.3235 9.00243C65.8242 9.0207 65.3797 9.1242 64.9901 9.31295C64.6004 9.49561 64.4055 9.77873 64.4055 10.1623C64.4055 10.3876 64.4725 10.5611 64.6065 10.6829C64.7404 10.8047 64.9109 10.8655 65.1179 10.8655ZM70.4938 11.3861C70.2502 11.3861 70.0097 11.3435 69.7723 11.2583C69.5348 11.173 69.3278 11.0299 69.1512 10.829L68.932 11.24H68.6124L68.6306 5.53194C68.6306 5.30057 68.6398 5.10269 68.658 4.9383L68.0096 4.97483V4.59125C68.3749 4.59125 68.6337 4.56994 68.7859 4.52732C68.9442 4.4847 69.066 4.42381 69.1512 4.34466H69.4161V7.06626C69.5866 6.89578 69.7875 6.76488 70.0188 6.67355C70.2563 6.57613 70.5151 6.52742 70.7951 6.52742C71.1848 6.52742 71.538 6.62179 71.8546 6.81054C72.1712 6.99929 72.4178 7.27023 72.5943 7.62337C72.777 7.97651 72.8683 8.38444 72.8683 8.84717C72.8683 9.35253 72.7587 9.79699 72.5395 10.1806C72.3203 10.5642 72.0281 10.8625 71.6628 11.0756C71.2975 11.2826 70.9078 11.3861 70.4938 11.3861ZM70.4938 11.0117C70.9321 11.0117 71.2792 10.8351 71.5349 10.482C71.7967 10.1227 71.9276 9.65391 71.9276 9.0755C71.9276 8.43619 71.8089 7.9278 71.5714 7.5503C71.334 7.16672 70.9839 6.97493 70.5212 6.97493C70.3202 6.97493 70.1193 7.02364 69.9184 7.12106C69.7236 7.21239 69.5561 7.3372 69.4161 7.49551V9.80613C69.4161 10.6098 69.7753 11.0117 70.4938 11.0117ZM75.919 11.3861C75.4989 11.3861 75.1122 11.2887 74.7591 11.0939C74.4121 10.8929 74.135 10.6159 73.928 10.2628C73.7271 9.90963 73.6266 9.51083 73.6266 9.06636C73.6266 8.59145 73.7271 8.16221 73.928 7.77863C74.1289 7.38896 74.4029 7.08453 74.75 6.86534C75.1031 6.64006 75.4928 6.52742 75.919 6.52742C76.3391 6.52742 76.7257 6.63093 77.0789 6.83794C77.432 7.03886 77.709 7.31589 77.9099 7.66903C78.117 8.02217 78.2205 8.41488 78.2205 8.84717C78.2205 9.30991 78.117 9.73611 77.9099 10.1258C77.709 10.5154 77.432 10.8229 77.0789 11.0482C76.7318 11.2735 76.3452 11.3861 75.919 11.3861ZM75.992 11.0208C76.4365 11.0208 76.7622 10.8381 76.9693 10.4728C77.1824 10.1075 77.2889 9.65391 77.2889 9.11203C77.2889 8.49708 77.1732 7.97042 76.9419 7.53204C76.7166 7.09366 76.3756 6.87447 75.919 6.87447C75.4684 6.87447 75.1275 7.06017 74.8961 7.43158C74.6708 7.80298 74.5582 8.25963 74.5582 8.80151C74.5582 9.19118 74.6099 9.55649 74.7134 9.89746C74.823 10.2323 74.9844 10.5033 75.1975 10.7103C75.4167 10.9173 75.6815 11.0208 75.992 11.0208ZM78.9964 10.966C79.173 10.966 79.2978 10.9234 79.3709 10.8381C79.45 10.7468 79.4957 10.6342 79.5078 10.5002C79.5261 10.3602 79.5352 10.144 79.5352 9.85179V7.76949C79.5352 7.51377 79.5474 7.31589 79.5718 7.17586L78.9233 7.20325V6.82881H79.2065C79.4378 6.82881 79.6053 6.81054 79.7088 6.77401C79.8123 6.73139 79.9097 6.66746 80.001 6.58222H80.2659C80.2902 6.81967 80.3055 7.12106 80.3115 7.48637C80.4638 7.23674 80.6799 7.01451 80.96 6.81967C81.2461 6.62484 81.5414 6.52742 81.8459 6.52742C82.0285 6.52742 82.1807 6.57613 82.3025 6.67355C82.4243 6.77096 82.4852 6.91405 82.4852 7.10279C82.4852 7.20021 82.4456 7.29763 82.3664 7.39504C82.2934 7.49246 82.1868 7.54117 82.0468 7.54117C81.9128 7.54117 81.8032 7.49246 81.718 7.39504C81.6328 7.29154 81.5993 7.16977 81.6175 7.02973C81.3862 7.02364 81.1518 7.11193 80.9143 7.29458C80.6829 7.47724 80.4851 7.72078 80.3207 8.02521L80.3298 10.2719C80.3298 10.5459 80.3176 10.7529 80.2933 10.8929L80.8686 10.8655V11.24H78.9964V10.966ZM84.1636 11.3861C83.7192 11.3861 83.3782 11.2857 83.1407 11.0847C82.9094 10.8838 82.7937 10.622 82.7937 10.2993C82.7937 9.94616 82.9337 9.64782 83.2138 9.40428C83.5 9.16074 83.8561 8.98112 84.2823 8.86544C84.7146 8.74367 85.1469 8.68583 85.5792 8.69191V8.12568C85.5792 7.72992 85.5214 7.42244 85.4057 7.20325C85.29 6.97798 85.0434 6.86534 84.6659 6.86534C84.4772 6.86534 84.2976 6.90491 84.1271 6.98407C83.9566 7.06322 83.8318 7.18194 83.7526 7.34025C83.8318 7.42549 83.8714 7.54117 83.8714 7.6873C83.8714 7.77863 83.8379 7.86691 83.7709 7.95215C83.7039 8.0313 83.6065 8.07088 83.4787 8.07088C83.3508 8.07088 83.2503 8.0313 83.1773 7.95215C83.1042 7.86691 83.0677 7.75732 83.0677 7.62337C83.0677 7.42244 83.1438 7.23979 83.296 7.07539C83.4543 6.90491 83.6704 6.77096 83.9444 6.67355C84.2245 6.57613 84.535 6.52742 84.876 6.52742C85.3874 6.52742 85.7649 6.66441 86.0085 6.9384C86.252 7.2063 86.3707 7.6325 86.3646 8.217L86.3555 10.2719C86.3555 10.4667 86.3433 10.6738 86.319 10.8929L86.9674 10.8564V11.24H85.6614C85.6431 11.1487 85.6218 10.9751 85.5975 10.7194C85.153 11.1639 84.6751 11.3861 84.1636 11.3861ZM84.3737 10.8655C84.605 10.8655 84.8151 10.8229 85.0038 10.7377C85.1926 10.6464 85.3844 10.5094 85.5792 10.3267C85.5731 10.2354 85.5701 10.0801 85.5701 9.86092L85.5792 9.00243C85.08 9.0207 84.6355 9.1242 84.2458 9.31295C83.8561 9.49561 83.6613 9.77873 83.6613 10.1623C83.6613 10.3876 83.7283 10.5611 83.8622 10.6829C83.9962 10.8047 84.1667 10.8655 84.3737 10.8655ZM89.2487 11.3861C88.4146 11.3861 88.0006 10.826 88.0066 9.70567L88.0249 7.05713L87.3217 7.06626V6.67355C87.6139 6.66746 87.8605 6.53655 88.0614 6.28083C88.2684 6.01902 88.4207 5.72373 88.5181 5.39494H88.8286V6.67355H90.3629V7.02973L88.8286 7.048C88.8225 7.97955 88.8164 8.62494 88.8103 8.98417C88.8103 9.34339 88.8103 9.54432 88.8103 9.58694C88.8103 10.0192 88.8621 10.3419 88.9656 10.555C89.0691 10.762 89.2487 10.8655 89.5044 10.8655C89.6627 10.8655 89.818 10.8168 89.9702 10.7194C90.1285 10.622 90.2655 10.488 90.3812 10.3176L90.6278 10.5185C90.3903 10.8716 90.1559 11.106 89.9245 11.2217C89.6932 11.3313 89.4679 11.3861 89.2487 11.3861ZM91.9677 5.67806C91.8399 5.67806 91.7272 5.62631 91.6298 5.5228C91.5324 5.41321 91.4837 5.28535 91.4837 5.13922C91.4837 4.9931 91.5324 4.86524 91.6298 4.75564C91.7333 4.64605 91.849 4.59125 91.9769 4.59125C92.1169 4.59125 92.2326 4.64605 92.3239 4.75564C92.4213 4.85915 92.4701 4.98701 92.4701 5.13922C92.4701 5.28535 92.4183 5.41321 92.3148 5.5228C92.2174 5.62631 92.1017 5.67806 91.9677 5.67806ZM91.0636 10.966C91.2402 10.966 91.365 10.9234 91.438 10.8381C91.5172 10.7468 91.5629 10.6342 91.575 10.5002C91.5933 10.3602 91.6024 10.144 91.6024 9.85179V7.76949C91.6024 7.59292 91.6146 7.39505 91.639 7.17586L90.9905 7.21239V6.82881C91.3498 6.82881 91.6055 6.8075 91.7577 6.76488C91.916 6.72226 92.0378 6.66137 92.123 6.58222H92.3879V10.2719C92.3879 10.5459 92.3757 10.7529 92.3513 10.8929L92.9267 10.8655V11.24H91.0636V10.966ZM94.0615 8.29007C93.8179 7.72992 93.6901 7.30676 93.6779 7.0206L93.2852 7.048V6.67355H94.9656V6.94753C94.6977 6.94753 94.5638 7.06017 94.5638 7.28545C94.5638 7.44984 94.6277 7.67512 94.7556 7.96128L95.4588 9.56867C95.5379 9.75742 95.6293 9.9827 95.7328 10.2445H95.7419C95.7602 10.1836 95.7845 10.1166 95.815 10.0436L95.952 9.65087L96.6826 7.65077C96.7435 7.4742 96.8348 7.26414 96.9566 7.0206L96.3721 7.048V6.67355H97.8151V6.94753C97.6872 6.94753 97.5776 6.9932 97.4863 7.08453C97.395 7.16977 97.3097 7.29154 97.2306 7.44984C97.1575 7.60815 97.057 7.85169 96.9292 8.18047L95.7328 11.2674H95.3675L94.0615 8.29007ZM100.464 11.3861C100.043 11.3861 99.6569 11.2887 99.3037 11.0939C98.9567 10.8929 98.6797 10.6159 98.4726 10.2628C98.2717 9.90963 98.1713 9.51083 98.1713 9.06636C98.1713 8.59145 98.2717 8.16221 98.4726 7.77863C98.6736 7.38896 98.9476 7.08453 99.2946 6.86534C99.6477 6.64006 100.037 6.52742 100.464 6.52742C100.884 6.52742 101.27 6.63093 101.623 6.83794C101.977 7.03886 102.254 7.31589 102.455 7.66903C102.662 8.02217 102.765 8.41488 102.765 8.84717C102.765 9.30991 102.662 9.73611 102.455 10.1258C102.254 10.5154 101.977 10.8229 101.623 11.0482C101.276 11.2735 100.89 11.3861 100.464 11.3861ZM100.537 11.0208C100.981 11.0208 101.307 10.8381 101.514 10.4728C101.727 10.1075 101.834 9.65391 101.834 9.11203C101.834 8.49708 101.718 7.97042 101.486 7.53204C101.261 7.09366 100.92 6.87447 100.464 6.87447C100.013 6.87447 99.6721 7.06017 99.4407 7.43158C99.2154 7.80298 99.1028 8.25963 99.1028 8.80151C99.1028 9.19118 99.1546 9.55649 99.2581 9.89746C99.3677 10.2323 99.529 10.5033 99.7421 10.7103C99.9613 10.9173 100.226 11.0208 100.537 11.0208Z" fill="black"/>
<path d="M6.64282 4.62531C7.40851 3.74578 8.76415 3.30438 10.1086 3.98468L10.2278 4.05011C10.4912 4.20519 10.7035 4.40161 10.9348 4.59015C10.9963 4.5414 11.0551 4.48832 11.1145 4.43292C11.1789 4.37289 11.2456 4.31193 11.3196 4.25714L11.4661 4.15558C13.0029 3.16146 15.197 3.8343 15.7083 5.53644L15.7571 5.72784C15.9628 6.67563 15.5757 7.57922 14.7971 8.22003C15.0561 8.76552 14.6712 9.3879 14.011 9.36945C14.006 9.84357 13.619 10.1872 13.1106 10.1868C13.1174 10.2157 13.1199 10.2452 13.1165 10.2737L13.092 10.3919C13.002 10.7752 12.6467 10.9972 12.2375 11.0023C12.2498 11.5026 11.7811 11.894 11.2522 11.8099L11.1438 11.7855C11.1101 11.776 11.0645 11.7533 11.0256 11.7347C11.0054 11.725 10.9863 11.7156 10.97 11.7093C10.9529 11.7027 10.9415 11.7005 10.9358 11.7005H10.9348C10.9342 11.7006 10.933 11.7012 10.9319 11.7015C10.9297 11.702 10.9265 11.7023 10.9231 11.7034C10.9159 11.7058 10.9071 11.7095 10.8967 11.7142C10.8752 11.7238 10.8492 11.7374 10.8206 11.7513C10.7928 11.7648 10.762 11.7792 10.7317 11.7913L10.6458 11.8167C10.3419 11.86 10.0816 11.7974 9.89478 11.6517C9.71361 11.5103 9.60541 11.2927 9.59106 11.0247C9.35062 11.0336 9.12198 10.9424 8.95923 10.7913C8.79763 10.6413 8.69994 10.4321 8.72095 10.2073C8.21874 10.204 7.81388 9.87286 7.83618 9.39093C7.30896 9.41011 6.89741 9.00575 6.95044 8.513L6.97192 8.42902C6.98288 8.39734 6.99689 8.36255 7.01001 8.33038C7.02331 8.2978 7.03596 8.26843 7.04517 8.24542C7.0497 8.23407 7.05273 8.22464 7.05493 8.21808V8.2171L7.01489 8.17706C6.98605 8.14938 6.94775 8.11365 6.90747 8.07745L6.71313 7.9007C5.69997 6.82637 5.87696 5.50531 6.64282 4.62531ZM10.9006 10.2327L10.8987 10.2337H10.8977V10.2327C10.8665 10.2362 10.8197 10.2518 10.7854 10.264V10.265C10.7587 10.2744 10.7105 10.3044 10.6497 10.3499C10.5897 10.3948 10.5202 10.4526 10.4514 10.512C10.3825 10.5715 10.315 10.6327 10.259 10.6859L10.136 10.8109C10.0578 10.9041 10.0319 11.0012 10.0413 11.0882C10.0507 11.1755 10.0953 11.2562 10.1633 11.3167C10.2994 11.4378 10.5248 11.4771 10.7258 11.3294L11.0208 11.0609C11.085 10.9997 11.1479 10.938 11.1965 10.889C11.2208 10.8645 11.2418 10.8432 11.2571 10.8265C11.2732 10.8089 11.2816 10.7985 11.2834 10.7952L11.3069 10.7454C11.4055 10.4937 11.2035 10.2053 10.9006 10.2327ZM11.7385 10.8519C11.6917 10.9619 11.6209 11.0561 11.5403 11.1419C11.494 11.1911 11.4442 11.238 11.3958 11.2845C11.3593 11.3195 11.3239 11.3548 11.2893 11.39C11.4745 11.4279 11.6309 11.3648 11.719 11.2562C11.8057 11.1491 11.8267 10.9981 11.7385 10.8519ZM9.96997 9.41632H9.96704L9.87817 9.44659C9.86512 9.45207 9.84471 9.46435 9.8186 9.48273C9.79282 9.5009 9.76212 9.5248 9.72876 9.55206C9.66173 9.60686 9.58299 9.67663 9.50708 9.74835C9.43132 9.81993 9.3582 9.89346 9.30103 9.95636C9.27239 9.98787 9.24738 10.0171 9.22876 10.0413L9.1936 10.096C9.1242 10.2651 9.18388 10.4257 9.30298 10.5228C9.42239 10.62 9.6009 10.6523 9.76685 10.5628L9.81079 10.5296C9.8326 10.5119 9.86 10.4885 9.89087 10.4612C9.95256 10.4068 10.0284 10.3375 10.1028 10.2669C10.1773 10.1962 10.2511 10.1248 10.3079 10.0667C10.3362 10.0377 10.3601 10.0118 10.3782 9.99152C10.3971 9.97025 10.4076 9.95679 10.4104 9.95148L10.4329 9.89972C10.4754 9.77756 10.443 9.65514 10.3655 9.56281C10.2765 9.457 10.1288 9.39178 9.96997 9.41632ZM10.2874 4.59503C9.35487 3.86147 7.96175 3.93264 7.12524 4.72198L6.96606 4.88995C6.16352 5.82693 6.3616 7.14566 7.34595 7.89777C7.46182 7.81603 7.55056 7.72219 7.65161 7.63214C7.75634 7.53884 7.87245 7.45525 8.03931 7.41241L8.14868 7.38995C8.68202 7.31253 9.12505 7.68612 9.1311 8.19269C9.37235 8.17832 9.60186 8.27061 9.76489 8.42316C9.92659 8.57448 10.0221 8.7856 9.99927 9.01007C10.4918 8.9865 10.916 9.36475 10.886 9.82745C11.0313 9.82955 11.2117 9.8544 11.342 9.91534L11.4124 9.95441C11.4815 9.99969 11.5495 10.0622 11.6165 10.1282C11.7069 10.2175 11.7958 10.3141 11.8899 10.3978C11.9839 10.4813 12.0796 10.5484 12.1799 10.5775C12.2789 10.6061 12.3847 10.5988 12.5012 10.5296L12.5813 10.4681C12.6489 10.4008 12.6772 10.3182 12.676 10.2337C12.6748 10.1484 12.6437 10.0591 12.5881 9.9798L12.5247 9.9046C12.3414 9.72027 12.1256 9.5399 11.9104 9.35773C11.7492 9.22122 11.588 9.0836 11.4426 8.94269L11.304 8.80109C11.1964 8.68526 11.1629 8.56075 11.2141 8.47784C11.2535 8.41425 11.3334 8.38905 11.4358 8.40753L11.5452 8.44073L11.554 8.44464L11.553 8.44562L12.928 9.70441C13.1225 9.81079 13.3175 9.7781 13.4397 9.67413C13.5612 9.57052 13.6127 9.39502 13.5149 9.20734L12.1165 7.91241L12.1116 7.90851L12.135 7.89288L12.1125 7.90753C12.0767 7.85488 12.0631 7.80082 12.0696 7.75128C12.0761 7.70206 12.1014 7.65897 12.1379 7.62823C12.1931 7.58184 12.2737 7.56328 12.3557 7.58722L12.4368 7.62531L12.4407 7.62823L13.801 8.88312C14.0345 9.00922 14.253 8.94542 14.3665 8.81085C14.4235 8.74294 14.4542 8.65602 14.4475 8.56573C14.4424 8.49835 14.4167 8.42737 14.3635 8.3587L14.301 8.29034L11.8186 6.01007C11.6354 6.16054 11.4598 6.32015 11.2854 6.48175L10.7434 6.9837C10.6071 7.10615 10.533 7.20521 10.3518 7.27081L10.2668 7.29718C9.86156 7.40259 9.50775 7.23651 9.32056 6.97101C9.13334 6.70534 9.11301 6.33915 9.37427 6.04718L9.50415 5.91046C9.63985 5.77643 9.79181 5.64668 9.9436 5.51788C10.1469 5.34537 10.3508 5.17452 10.5178 4.99542L10.5637 4.93878C10.5752 4.9241 10.5882 4.90948 10.6018 4.89484C10.5951 4.88641 10.5852 4.87508 10.5725 4.86163C10.546 4.83363 10.5093 4.79751 10.4709 4.76105C10.3936 4.68762 10.31 4.61373 10.2874 4.59601V4.59503ZM9.05981 8.61945L8.95532 8.65753C8.9281 8.66985 8.87601 8.70713 8.81079 8.76202C8.7467 8.81598 8.67221 8.88435 8.59985 8.95441C8.52739 9.02459 8.45726 9.09714 8.40259 9.15851C8.37529 9.18915 8.35205 9.21705 8.33423 9.24054L8.30005 9.29327C8.23927 9.43898 8.27678 9.57222 8.36938 9.66437C8.46301 9.75732 8.61461 9.80971 8.77954 9.78546L8.84595 9.75812C8.87496 9.74227 8.90865 9.72011 8.94556 9.69366C9.01951 9.64065 9.10546 9.57061 9.18774 9.4964C9.26989 9.4223 9.3484 9.34426 9.4104 9.27667C9.44144 9.24283 9.46799 9.21162 9.48853 9.18488C9.50939 9.1577 9.52344 9.13667 9.52954 9.12238L9.55005 9.06476C9.58768 8.93291 9.55512 8.81686 9.47876 8.73566C9.41254 8.66539 9.31098 8.61935 9.18872 8.61261L9.05981 8.61945ZM8.21704 7.78156C8.19111 7.78545 8.1598 7.79648 8.12915 7.80988L8.04517 7.8548C8.02866 7.86585 7.98469 7.90231 7.92603 7.95441C7.86781 8.00611 7.79682 8.0716 7.72681 8.13702C7.65668 8.20255 7.58756 8.26877 7.53442 8.32159C7.50799 8.34788 7.48572 8.37094 7.46899 8.38898L7.4397 8.42316C7.34508 8.59143 7.39104 8.76143 7.50806 8.86554C7.6253 8.96971 7.81613 9.00879 8.01392 8.90656L8.07349 8.86749C8.09806 8.84957 8.12683 8.82713 8.15845 8.80109C8.22108 8.74949 8.2938 8.68619 8.36353 8.62042C8.43329 8.55462 8.50012 8.48643 8.55298 8.42804C8.57919 8.39908 8.60191 8.37278 8.61938 8.34991C8.63725 8.32651 8.64924 8.30752 8.65454 8.29523L8.67114 8.2464C8.72751 8.03164 8.56181 7.80791 8.32935 7.7796L8.21704 7.78156ZM12.7854 4.10675C12.0619 4.16862 11.5869 4.56081 11.1282 4.99933L10.6663 5.44269C10.5199 5.57814 10.3575 5.71528 10.1985 5.85284C10.1189 5.92164 10.0402 5.99072 9.96411 6.05988L9.74634 6.26788C9.58459 6.4327 9.59997 6.62985 9.70435 6.76398C9.8094 6.89887 10.0042 6.97018 10.2043 6.87921L10.3088 6.81476C10.3416 6.78906 10.3729 6.75974 10.4036 6.72882C10.4633 6.66853 10.5236 6.59884 10.5833 6.54523L11.1233 6.06085C11.3014 5.8993 11.477 5.7355 11.6477 5.56573L11.6506 5.56378L11.6887 5.54034C11.729 5.52062 11.7755 5.51174 11.8206 5.513C11.8804 5.51473 11.9415 5.53415 11.9856 5.57452V5.5755L14.4866 7.88019L14.5208 7.89874C14.6939 7.73524 14.8688 7.58453 15.0012 7.39386L15.094 7.24933C15.5235 6.51962 15.4413 5.72266 15.0276 5.11261C14.6137 4.5023 13.867 4.07854 12.967 4.09698L12.7854 4.10675Z" fill="#1F1F1F" stroke="#1F1F1F" stroke-width="0.0541531"/>
</svg>
