<svg width="33" height="31" viewBox="0 0 33 31" fill="none" xmlns="http://www.w3.org/2000/svg">
<ellipse cx="16.6842" cy="15.4752" rx="15.8436" ry="15.4752" fill="#DCDCDC"/>
<path d="M10.5259 22.1231C10.4449 22.1231 10.3975 22.0318 10.4441 21.9656L14.9858 15.5042L10.792 9.54648C10.7454 9.48022 10.7928 9.38892 10.8738 9.38892H12.8384C13.1758 9.38892 13.4904 9.55898 13.6751 9.84121L15.3335 12.3746C15.7012 12.9422 15.997 13.4178 16.2208 13.8015C16.5726 13.2739 16.8963 12.8063 17.1921 12.3986L19.0393 9.80829C19.227 9.54514 19.5303 9.38892 19.8535 9.38892H21.719C21.8009 9.38892 21.8481 9.48204 21.7996 9.54809L17.5158 15.3843L22.1415 21.9656C22.188 22.0318 22.1406 22.1231 22.0597 22.1231H20.1401C19.8043 22.1231 19.4908 21.9545 19.3057 21.6743L16.9882 18.1661L16.2928 17.099L13.2442 21.6773C13.0588 21.9558 12.7464 22.1231 12.4118 22.1231H10.5259Z" fill="#878785"/>
</svg>
