<svg width="20" height="17" viewBox="0 0 20 17" fill="none" xmlns="http://www.w3.org/2000/svg">
<g clip-path="url(#clip0_51_1253)">
<path d="M6.57113 7.92333L19.3277 7.93145C20.164 7.94525 20.2545 8.97036 19.4093 9.06938L6.61194 9.06289C6.13497 11.0401 3.52923 11.5693 2.36641 9.87454C2.25517 9.71302 2.0575 9.14162 2.00468 9.1051C1.66936 8.8754 0.0575803 9.43057 0.00156016 8.53451C-0.0592617 7.55972 1.67656 8.11894 2.00468 7.89412C2.0575 7.85759 2.25597 7.287 2.36641 7.12467C3.51002 5.45754 6.15978 5.93073 6.57032 7.92333H6.57113ZM4.06142 7.22045C2.68653 7.4469 2.72014 9.62049 4.13025 9.79175C6.07255 10.0271 6.03413 6.89579 4.06142 7.22045Z" fill="#B0B0B0"/>
<path d="M19.827 2.79777C19.5453 3.0648 18.6178 2.99013 18.2433 2.93331C17.615 5.36339 14.2955 5.39992 13.6368 2.97552L0.67935 2.98282C-0.103332 2.94873 -0.232178 1.93904 0.599321 1.84246L13.4872 1.8457C13.7104 1.80187 13.8185 1.2605 13.9713 1.03811C14.9213 -0.34494 16.9316 -0.345751 17.8823 1.03811C17.9936 1.19963 18.1913 1.77103 18.2441 1.80755C18.4978 1.98125 19.3933 1.67688 19.767 1.96664C20.0167 2.16062 20.0471 2.58917 19.827 2.79777ZM16.8596 1.46585C15.712 0.297887 13.8257 2.03969 15.0021 3.30911C16.1785 4.57853 18.0472 2.67521 16.8596 1.46585Z" fill="#B0B0B0"/>
<path d="M19.8271 14.2023C20.1464 14.505 19.9271 15.1186 19.483 15.1503H14.0546C13.3288 17.6299 10.1452 17.6031 9.39135 15.1511L0.599384 15.1568C-0.27453 15.0553 -0.0776595 13.9872 0.761042 14.018L9.32813 14.0683C9.45217 14.048 9.73947 13.3338 9.89153 13.1333C10.8815 11.8274 12.819 11.9483 13.7209 13.294C13.8329 13.4604 14.0026 14.0553 14.121 14.0732C14.2523 14.0359 14.3835 14.0131 14.522 14.0148C15.9977 14.0269 17.7384 13.8938 19.1709 14.0156C19.3357 14.0294 19.7159 14.0967 19.8271 14.2023ZM11.5881 13.3054C10.0004 13.4742 10.1092 16.1161 11.9579 15.8775C13.516 15.677 13.2839 13.1252 11.5881 13.3054Z" fill="#B0B0B0"/>
</g>
<defs>
<clipPath id="clip0_51_1253">
<rect width="20" height="17" fill="white"/>
</clipPath>
</defs>
</svg>
