<svg width="309" height="54" viewBox="0 0 309 54" fill="none" xmlns="http://www.w3.org/2000/svg">
<rect x="80.1842" y="3.05176e-05" width="74.8779" height="53.063" fill="#DFDFDF"/>
<path d="M114.675 20.0456H118.802M122.929 20.0456H118.802M118.802 20.0456L116.247 32.253C116.19 32.5261 115.949 32.7218 115.67 32.7218H112.022H119.981" stroke="black" stroke-width="1.17918" stroke-linecap="square"/>
<rect x="156.831" y="3.05176e-05" width="74.8779" height="53.063" fill="#DFDFDF"/>
<path d="M197.645 19.3174H199.506V27.4431C199.506 28.8566 199.346 29.979 199.026 30.8105C198.706 31.6419 198.127 32.3198 197.29 32.8443C196.458 33.3623 195.364 33.6214 194.009 33.6214C192.691 33.6214 191.613 33.3943 190.776 32.9402C189.938 32.4861 189.34 31.8306 188.982 30.9736C188.623 30.1101 188.444 28.9333 188.444 27.4431V19.3174H190.305V27.4335C190.305 28.6551 190.417 29.5569 190.641 30.1389C190.872 30.7145 191.262 31.159 191.812 31.4724C192.368 31.7858 193.046 31.9425 193.846 31.9425C195.214 31.9425 196.19 31.6323 196.772 31.0119C197.354 30.3915 197.645 29.1987 197.645 27.4335V19.3174Z" fill="black"/>
<path d="M186.9 36.1828H201.089V37.6219H186.9V36.1828Z" fill="black"/>
<path d="M233.477 3.05176e-05H296.565C303.076 3.05176e-05 308.355 5.27859 308.355 11.79V41.2731C308.355 47.7845 303.076 53.0631 296.565 53.0631H233.477V3.05176e-05Z" fill="#DFDFDF"/>
<path d="M270.506 19.3041C271.548 19.3041 272.467 19.474 273.26 19.8129C274.059 20.1455 274.673 20.6382 275.102 21.2905C275.53 21.9427 275.76 22.6814 275.792 23.5063L274.008 23.6411C273.912 22.7521 273.586 22.0805 273.029 21.6264C272.479 21.1723 271.664 20.9448 270.583 20.9448C269.457 20.9448 268.635 21.1531 268.117 21.5688C267.606 21.9781 267.35 22.4741 267.35 23.0561C267.35 23.5611 267.532 23.9771 267.896 24.3032C268.255 24.6293 269.189 24.9646 270.698 25.31C272.004 25.6019 272.955 25.8639 273.554 26.0942H279.466V27.2739H275.339C275.445 27.3919 275.543 27.5132 275.629 27.6411C276.019 28.2167 276.214 28.8825 276.214 29.6371C276.214 30.3853 276 31.0922 275.571 31.7573C275.143 32.4159 274.525 32.9303 273.72 33.3012C272.92 33.6657 272.019 33.8481 271.015 33.8481C269.742 33.8481 268.674 33.6633 267.811 33.2924C266.954 32.9215 266.279 32.3644 265.786 31.6225C265.3 30.8743 265.044 30.0303 265.019 29.0903L266.774 28.937C266.858 29.6403 267.049 30.2193 267.35 30.6733C267.657 31.1209 268.13 31.4856 268.77 31.767C269.409 32.042 270.129 32.1791 270.929 32.1791C271.638 32.1791 272.265 32.0737 272.809 31.8627C273.352 31.6517 273.755 31.3639 274.018 30.9995C274.286 30.6285 274.42 30.2253 274.42 29.7905C274.42 29.3492 274.292 28.9653 274.036 28.6391C273.78 28.3066 273.359 28.0279 272.771 27.8041C272.457 27.682 271.828 27.5062 270.885 27.2739H262.367V26.0942H267.29C266.748 25.7703 266.333 25.3844 266.045 24.936C265.719 24.4116 265.556 23.826 265.556 23.1801C265.556 22.4704 265.757 21.8086 266.16 21.1948C266.563 20.5744 267.152 20.1044 267.926 19.7846C268.7 19.4649 269.559 19.3042 270.506 19.3041Z" fill="black"/>
<path d="M0 11.7918C0 5.27937 5.27936 0 11.7918 0H77.8258V53.063H11.7918C5.27938 53.063 0 47.7837 0 41.2713V11.7918Z" fill="#1F1F1F"/>
<path d="M32.6872 19.393H38.309C39.4219 19.393 40.2501 19.441 40.7937 19.5369C41.3438 19.6264 41.833 19.8183 42.2616 20.1125C42.6965 20.4067 43.0578 20.8 43.3456 21.2925C43.6334 21.7786 43.7773 22.3254 43.7773 22.933C43.7773 23.5918 43.5983 24.1962 43.2401 24.7462C42.8883 25.2962 42.4087 25.7087 41.8011 25.9838C42.6581 26.2332 43.3169 26.6585 43.7773 27.2597C44.2378 27.8609 44.4681 28.5676 44.4681 29.3799C44.4681 30.0194 44.3178 30.643 44.0172 31.2506C43.723 31.8518 43.3169 32.3347 42.7988 32.6992C42.2871 33.0574 41.654 33.278 40.8993 33.3612C40.426 33.4124 39.2844 33.4443 37.4744 33.4571H32.6872V19.393ZM35.5269 21.7338V24.986H37.388C38.4945 24.986 39.182 24.97 39.4507 24.9381C39.9367 24.8805 40.3173 24.7142 40.5923 24.4392C40.8737 24.1578 41.0144 23.79 41.0144 23.3359C41.0144 22.901 40.8929 22.5493 40.6498 22.2806C40.4132 22.0056 40.0582 21.8393 39.585 21.7818C39.3036 21.7498 38.4945 21.7338 37.1578 21.7338H35.5269ZM35.5269 27.3268V31.0875H38.1555C39.1788 31.0875 39.828 31.0587 40.103 31.0012C40.5251 30.9244 40.8673 30.739 41.1295 30.4447C41.3981 30.1442 41.5325 29.7444 41.5325 29.2456C41.5325 28.8234 41.4301 28.4653 41.2255 28.1711C41.0208 27.8769 40.7234 27.6626 40.3333 27.5283C39.9495 27.394 39.1117 27.3268 37.8197 27.3268H35.5269Z" fill="white"/>
</svg>
