<svg width="18" height="18" viewBox="0 0 18 18" fill="none" xmlns="http://www.w3.org/2000/svg">
<g clip-path="url(#clip0_53_889)">
<path d="M17.0806 9.75517C16.8097 9.60319 16.6451 9.32773 16.6451 9.02377C16.6451 8.71981 16.8097 8.43485 17.0903 8.28287C17.9516 7.78894 18.2516 6.69659 17.7484 5.83221L16.1903 3.18208C15.9484 2.77364 15.5516 2.47918 15.0774 2.3462C14.6129 2.22271 14.1097 2.2892 13.6935 2.53617C13.4226 2.69765 13.0935 2.68815 12.8226 2.53617C12.5516 2.39369 12.3871 2.10873 12.3967 1.79527C12.3967 0.816909 11.5742 0.00952148 10.5677 0.00952148H7.45159C6.43546 0.0190202 5.61288 0.826408 5.62256 1.81427C5.62256 1.97575 5.57417 2.13723 5.48707 2.27971C5.22578 2.66915 4.68385 2.79263 4.28707 2.53617C3.87094 2.27971 3.36772 2.19422 2.9032 2.3082C2.43868 2.44118 2.04191 2.73564 1.79998 3.15358L0.241911 5.79422C-0.261315 6.6491 0.0386851 7.75095 0.91933 8.24488C1.18062 8.39686 1.34514 8.67232 1.34514 8.97628C1.34514 9.28023 1.18062 9.56519 0.899975 9.71717C0.0386851 10.2111 -0.261315 11.3035 0.241911 12.1583L1.79998 14.8085C2.04191 15.2264 2.43868 15.5209 2.91288 15.6538C3.37739 15.7773 3.88062 15.7108 4.29675 15.4639C4.43223 15.3879 4.57739 15.3499 4.73223 15.3499C4.88707 15.3499 5.03223 15.3879 5.16772 15.4734C5.42901 15.6159 5.6032 15.9008 5.59352 16.2143C5.59352 17.1926 6.4161 18 7.42256 18H10.5387C11.5258 18 12.3484 17.2116 12.3677 16.2428C12.3677 16.0813 12.4161 15.9198 12.5032 15.7773C12.629 15.5874 12.8226 15.4544 13.0548 15.4069C13.2774 15.3594 13.5097 15.3974 13.7032 15.5209C14.1097 15.7583 14.6129 15.8248 15.0774 15.7013C15.5516 15.5684 15.9484 15.2739 16.1903 14.856L17.7484 12.2058C18.2516 11.3509 17.9516 10.2491 17.0806 9.75517ZM16.9258 11.6929L15.3193 14.343C15.0774 14.7515 14.5451 14.875 14.1387 14.6375C13.5774 14.3145 12.8806 14.3145 12.3193 14.6375C11.7484 14.9604 11.4 15.5589 11.4 16.2048C11.4 16.6702 11.0129 17.0502 10.5387 17.0502H7.42256C6.94836 17.0407 6.56127 16.6607 6.56127 16.1953C6.56127 15.5589 6.21288 14.9604 5.65159 14.647C5.37094 14.4855 5.05159 14.4 4.73223 14.4C4.41288 14.4 4.08385 14.4855 3.79352 14.647C3.60965 14.761 3.36772 14.7895 3.15481 14.7325C2.93223 14.6755 2.73868 14.533 2.62256 14.343L1.06449 11.6834C0.948362 11.4839 0.91933 11.256 0.987072 11.0375C1.04514 10.819 1.1903 10.6385 1.39352 10.5246C1.66449 10.3726 1.90643 10.1446 2.06127 9.86915C2.3032 9.45121 2.37094 8.96678 2.24514 8.50134C2.11933 8.0454 1.80965 7.65596 1.39352 7.41849C0.967717 7.17153 0.841911 6.6586 1.07417 6.25965L2.63223 3.60952C2.75804 3.41005 2.94191 3.27707 3.16449 3.22008C3.38707 3.16308 3.61933 3.19158 3.82256 3.30556C4.38385 3.63802 5.08062 3.63802 5.64191 3.30556C6.21288 2.99211 6.56127 2.39369 6.56127 1.74778C6.56127 1.28234 6.94836 0.902397 7.42256 0.902397H10.5387C11.0129 0.911896 11.4 1.29184 11.4 1.75728C11.4 2.07074 11.4871 2.37469 11.6419 2.64066C11.8838 3.0586 12.2806 3.36256 12.7548 3.48604C13.229 3.60952 13.7322 3.55253 14.158 3.30556C14.3419 3.19158 14.5838 3.16308 14.7967 3.22008C15.029 3.27707 15.2129 3.41955 15.329 3.60952L16.9258 6.25965C17.0516 6.46862 17.0806 6.69659 17.0226 6.91506C16.9645 7.12403 16.8193 7.31401 16.6161 7.42799C16.3451 7.57997 16.1129 7.80794 15.9484 8.0834C15.7064 8.50134 15.6387 8.98577 15.7645 9.45121C15.8903 9.90715 16.2 10.2966 16.6161 10.5341C17.0419 10.781 17.1677 11.294 16.9258 11.6929Z" fill="black"/>
<path d="M8.9806 5.65173C7.11286 5.65173 5.59351 7.14303 5.59351 8.97627C5.59351 10.8095 7.11286 12.3008 8.9806 12.3008C10.8483 12.3008 12.3677 10.8095 12.3677 8.97627C12.3677 7.14303 10.8483 5.65173 8.9806 5.65173ZM8.9806 11.3509C7.64512 11.3509 6.56125 10.2871 6.56125 8.97627C6.56125 7.66545 7.64512 6.6016 8.9806 6.6016C10.3161 6.6016 11.4 7.66545 11.4 8.97627C11.4 10.2871 10.3161 11.3509 8.9806 11.3509Z" fill="black"/>
</g>
<defs>
<clipPath id="clip0_53_889">
<rect width="18" height="18" fill="white"/>
</clipPath>
</defs>
</svg>
