<svg width="112" height="21" viewBox="0 0 112 21" fill="none" xmlns="http://www.w3.org/2000/svg">
<path d="M13.2886 15.9558C12.305 15.9558 11.4217 15.72 10.6389 15.2483C9.86605 14.7765 9.25882 14.1342 8.8172 13.3212C8.38562 12.5082 8.16983 11.6049 8.16983 10.6113C8.16983 9.62766 8.36555 8.70428 8.75698 7.84112C9.15845 6.97795 9.75062 6.2804 10.5335 5.74845C11.3264 5.20646 12.2799 4.93547 13.394 4.93547C14.498 4.93547 15.5117 5.24159 16.4351 5.85384L16.3598 5.04086H17.1728V8.53365H16.6308C16.5305 7.60023 16.1993 6.87257 15.6372 6.35066C15.0852 5.81871 14.3726 5.55273 13.4994 5.55273C12.7867 5.55273 12.1344 5.75347 11.5422 6.15494C10.9601 6.54637 10.4984 7.10843 10.1571 7.84112C9.81586 8.5738 9.64524 9.42191 9.64524 10.3854C9.64524 11.3088 9.8259 12.1369 10.1872 12.8695C10.5485 13.5922 11.0353 14.1593 11.6476 14.5708C12.2598 14.9722 12.9373 15.173 13.68 15.173C14.3525 15.173 14.9999 15.0224 15.6221 14.7213C16.2444 14.4202 16.7563 13.9937 17.1578 13.4416L17.5492 13.7578C16.9671 14.5708 16.2996 15.1429 15.5469 15.4741C14.7941 15.7953 14.0413 15.9558 13.2886 15.9558ZM22.4003 15.9558C21.7077 15.9558 21.0704 15.7953 20.4882 15.4741C19.9162 15.1429 19.4595 14.6862 19.1182 14.1041C18.787 13.5219 18.6214 12.8645 18.6214 12.1318C18.6214 11.349 18.787 10.6414 19.1182 10.0091C19.4494 9.36671 19.9011 8.86487 20.4732 8.50354C21.0553 8.13218 21.6977 7.9465 22.4003 7.9465C23.0928 7.9465 23.7301 8.11713 24.3123 8.45838C24.8944 8.78959 25.3511 9.24626 25.6823 9.8284C26.0235 10.4105 26.1942 11.0579 26.1942 11.7705C26.1942 12.5333 26.0235 13.2359 25.6823 13.8782C25.3511 14.5206 24.8944 15.0274 24.3123 15.3988C23.7402 15.7702 23.1028 15.9558 22.4003 15.9558ZM22.5207 15.3536C23.2534 15.3536 23.7903 15.0525 24.1316 14.4503C24.4829 13.8481 24.6585 13.1004 24.6585 12.2071C24.6585 11.1934 24.4678 10.3252 24.0864 9.60257C23.7151 8.87992 23.153 8.5186 22.4003 8.5186C21.6575 8.5186 21.0955 8.82472 20.7141 9.43696C20.3427 10.0492 20.157 10.802 20.157 11.6952C20.157 12.3376 20.2423 12.9398 20.413 13.5019C20.5936 14.0539 20.8596 14.5005 21.2109 14.8418C21.5722 15.183 22.0088 15.3536 22.5207 15.3536ZM27.3227 15.2633C27.6138 15.2633 27.8195 15.1931 27.94 15.0525C28.0704 14.902 28.1457 14.7163 28.1658 14.4955C28.1959 14.2647 28.211 13.9083 28.211 13.4266V6.30549C28.211 5.92409 28.226 5.5979 28.2561 5.3269L27.1872 5.38712V4.75481C27.7894 4.75481 28.216 4.71968 28.4669 4.64942C28.7278 4.57916 28.9286 4.4788 29.0691 4.34832H29.5057L29.5208 14.1191C29.5208 14.5106 29.4957 14.8518 29.4455 15.1429L30.394 15.0977V15.715H27.3227V15.2633ZM33.6829 15.9558C32.9502 15.9558 32.3882 15.7902 31.9967 15.459C31.6153 15.1278 31.4246 14.6962 31.4246 14.1643C31.4246 13.5822 31.6555 13.0903 32.1172 12.6889C32.5889 12.2874 33.1761 11.9913 33.8786 11.8006C34.5912 11.5999 35.3039 11.5045 36.0165 11.5146V10.5812C36.0165 9.92877 35.9211 9.42191 35.7304 9.06058C35.5397 8.68922 35.1332 8.50354 34.511 8.50354C34.1998 8.50354 33.9037 8.56878 33.6227 8.69926C33.3417 8.82974 33.1359 9.02546 33.0054 9.28641C33.1359 9.42693 33.2012 9.61763 33.2012 9.85851C33.2012 10.0091 33.146 10.1546 33.0355 10.2951C32.9251 10.4256 32.7646 10.4908 32.5538 10.4908C32.343 10.4908 32.1774 10.4256 32.057 10.2951C31.9365 10.1546 31.8763 9.97393 31.8763 9.75312C31.8763 9.42191 32.0018 9.12081 32.2527 8.84981C32.5136 8.56878 32.8699 8.34797 33.3216 8.18739C33.7833 8.0268 34.2952 7.9465 34.8572 7.9465C35.7003 7.9465 36.3226 8.17233 36.7241 8.62398C37.1255 9.0656 37.3212 9.76818 37.3112 10.7317L37.2962 14.1191C37.2962 14.4403 37.2761 14.7815 37.2359 15.1429L38.3049 15.0826V15.715H36.152C36.1219 15.5644 36.0867 15.2784 36.0466 14.8568C35.3139 15.5895 34.526 15.9558 33.6829 15.9558ZM34.0292 15.0977C34.4106 15.0977 34.7569 15.0274 35.068 14.8869C35.3791 14.7364 35.6953 14.5106 36.0165 14.2094C36.0064 14.0589 36.0014 13.803 36.0014 13.4416L36.0165 12.0265C35.1935 12.0566 34.4608 12.2272 33.8184 12.5383C33.1761 12.8394 32.8549 13.3061 32.8549 13.9385C32.8549 14.3098 32.9653 14.5959 33.1861 14.7966C33.4069 14.9973 33.6879 15.0977 34.0292 15.0977ZM42.891 15.9558C42.4896 15.9558 42.0931 15.8856 41.7017 15.7451C41.3102 15.6046 40.969 15.3687 40.6779 15.0375L40.3166 15.715H39.7897L39.8198 6.30549C39.8198 5.92409 39.8348 5.5979 39.8649 5.3269L38.796 5.38712V4.75481C39.3982 4.75481 39.8248 4.71968 40.0757 4.64942C40.3367 4.57916 40.5374 4.4788 40.6779 4.34832H41.1145V8.83476C41.3956 8.55373 41.7268 8.33794 42.1082 8.18739C42.4996 8.0268 42.9262 7.9465 43.3879 7.9465C44.0302 7.9465 44.6123 8.10207 45.1343 8.41321C45.6562 8.72435 46.0627 9.17099 46.3537 9.75312C46.6548 10.3353 46.8054 11.0077 46.8054 11.7705C46.8054 12.6036 46.6247 13.3363 46.2634 13.9686C45.9021 14.6009 45.4203 15.0927 44.8181 15.444C44.2159 15.7852 43.5735 15.9558 42.891 15.9558ZM42.891 15.3386C43.6137 15.3386 44.1858 15.0475 44.6073 14.4654C45.0389 13.8732 45.2547 13.1004 45.2547 12.1469C45.2547 11.093 45.059 10.255 44.6675 9.63268C44.2761 9.00036 43.699 8.68421 42.9362 8.68421C42.605 8.68421 42.2738 8.7645 41.9426 8.92509C41.6214 9.07564 41.3454 9.28139 41.1145 9.54235V13.3513C41.1145 14.6762 41.7067 15.3386 42.891 15.3386ZM51.8343 15.9558C51.1417 15.9558 50.5044 15.7953 49.9223 15.4741C49.3502 15.1429 48.8935 14.6862 48.5522 14.1041C48.221 13.5219 48.0554 12.8645 48.0554 12.1318C48.0554 11.349 48.221 10.6414 48.5522 10.0091C48.8835 9.36671 49.3351 8.86487 49.9072 8.50354C50.4893 8.13218 51.1317 7.9465 51.8343 7.9465C52.5268 7.9465 53.1641 8.11713 53.7463 8.45838C54.3284 8.78959 54.7851 9.24626 55.1163 9.8284C55.4575 10.4105 55.6282 11.0579 55.6282 11.7705C55.6282 12.5333 55.4575 13.2359 55.1163 13.8782C54.7851 14.5206 54.3284 15.0274 53.7463 15.3988C53.1742 15.7702 52.5368 15.9558 51.8343 15.9558ZM51.9547 15.3536C52.6874 15.3536 53.2244 15.0525 53.5656 14.4503C53.9169 13.8481 54.0925 13.1004 54.0925 12.2071C54.0925 11.1934 53.9018 10.3252 53.5204 9.60257C53.1491 8.87992 52.587 8.5186 51.8343 8.5186C51.0915 8.5186 50.5295 8.82472 50.1481 9.43696C49.7767 10.0492 49.591 10.802 49.591 11.6952C49.591 12.3376 49.6764 12.9398 49.847 13.5019C50.0276 14.0539 50.2936 14.5005 50.6449 14.8418C51.0062 15.183 51.4428 15.3536 51.9547 15.3536ZM56.9073 15.2633C57.1983 15.2633 57.4041 15.1931 57.5245 15.0525C57.655 14.902 57.7303 14.7163 57.7504 14.4955C57.7805 14.2647 57.7955 13.9083 57.7955 13.4266V9.994C57.7955 9.57246 57.8156 9.24626 57.8557 9.01542L56.7868 9.06058V8.44332H57.2535C57.6349 8.44332 57.9109 8.41321 58.0816 8.35299C58.2522 8.28273 58.4128 8.17735 58.5633 8.03683H58.9999C59.0401 8.42827 59.0652 8.92509 59.0752 9.52729C59.3261 9.11579 59.6824 8.74944 60.1441 8.42827C60.6159 8.10709 61.1026 7.9465 61.6045 7.9465C61.9056 7.9465 62.1565 8.0268 62.3572 8.18739C62.558 8.34797 62.6583 8.58384 62.6583 8.89498C62.6583 9.05557 62.5931 9.21615 62.4626 9.37674C62.3422 9.53733 62.1665 9.61763 61.9357 9.61763C61.7149 9.61763 61.5342 9.53733 61.3937 9.37674C61.2532 9.20612 61.198 9.00538 61.2281 8.77454C60.8467 8.7645 60.4603 8.91003 60.0689 9.21114C59.6875 9.51224 59.3613 9.91371 59.0903 10.4155L59.1053 14.1191C59.1053 14.5708 59.0852 14.912 59.0451 15.1429L59.9936 15.0977V15.715H56.9073V15.2633ZM65.4252 15.9558C64.6925 15.9558 64.1305 15.7902 63.739 15.459C63.3576 15.1278 63.1669 14.6962 63.1669 14.1643C63.1669 13.5822 63.3978 13.0903 63.8595 12.6889C64.3312 12.2874 64.9183 11.9913 65.6209 11.8006C66.3335 11.5999 67.0461 11.5045 67.7587 11.5146V10.5812C67.7587 9.92877 67.6634 9.42191 67.4727 9.06058C67.282 8.68922 66.8755 8.50354 66.2532 8.50354C65.9421 8.50354 65.646 8.56878 65.365 8.69926C65.0839 8.82974 64.8782 9.02546 64.7477 9.28641C64.8782 9.42693 64.9434 9.61763 64.9434 9.85851C64.9434 10.0091 64.8882 10.1546 64.7778 10.2951C64.6674 10.4256 64.5068 10.4908 64.2961 10.4908C64.0853 10.4908 63.9197 10.4256 63.7992 10.2951C63.6788 10.1546 63.6186 9.97393 63.6186 9.75312C63.6186 9.42191 63.744 9.12081 63.995 8.84981C64.2559 8.56878 64.6122 8.34797 65.0639 8.18739C65.5256 8.0268 66.0374 7.9465 66.5995 7.9465C67.4426 7.9465 68.0649 8.17233 68.4663 8.62398C68.8678 9.0656 69.0635 9.76818 69.0535 10.7317L69.0384 14.1191C69.0384 14.4403 69.0184 14.7815 68.9782 15.1429L70.0471 15.0826V15.715H67.8942C67.8641 15.5644 67.829 15.2784 67.7889 14.8568C67.0562 15.5895 66.2683 15.9558 65.4252 15.9558ZM65.7715 15.0977C66.1529 15.0977 66.4991 15.0274 66.8103 14.8869C67.1214 14.7364 67.4376 14.5106 67.7587 14.2094C67.7487 14.0589 67.7437 13.803 67.7437 13.4416L67.7587 12.0265C66.9357 12.0566 66.203 12.2272 65.5607 12.5383C64.9183 12.8394 64.5972 13.3061 64.5972 13.9385C64.5972 14.3098 64.7076 14.5959 64.9284 14.7966C65.1492 14.9973 65.4302 15.0977 65.7715 15.0977ZM73.8077 15.9558C72.4327 15.9558 71.7502 15.0325 71.7602 13.1857L71.7904 8.8197L70.6311 8.83476V8.18739C71.1129 8.17735 71.5194 7.96156 71.8506 7.54001C72.1918 7.10843 72.4427 6.62165 72.6033 6.07966H73.1152V8.18739H75.6445V8.77454L73.1152 8.80465C73.1052 10.3403 73.0951 11.4042 73.0851 11.9963C73.0851 12.5885 73.0851 12.9197 73.0851 12.99C73.0851 13.7026 73.1704 14.2345 73.341 14.5858C73.5117 14.9271 73.8077 15.0977 74.2293 15.0977C74.4902 15.0977 74.7462 15.0174 74.9971 14.8568C75.2581 14.6962 75.4839 14.4754 75.6746 14.1944L76.0811 14.5256C75.6896 15.1077 75.3032 15.4942 74.9218 15.6849C74.5404 15.8655 74.1691 15.9558 73.8077 15.9558ZM78.29 6.54637C78.0792 6.54637 77.8935 6.46106 77.7329 6.29043C77.5723 6.10977 77.492 5.899 77.492 5.65812C77.492 5.41724 77.5723 5.20646 77.7329 5.0258C77.9035 4.84514 78.0942 4.75481 78.305 4.75481C78.5359 4.75481 78.7265 4.84514 78.8771 5.0258C79.0377 5.19643 79.118 5.4072 79.118 5.65812C79.118 5.899 79.0327 6.10977 78.862 6.29043C78.7015 6.46106 78.5108 6.54637 78.29 6.54637ZM76.7995 15.2633C77.0906 15.2633 77.2963 15.1931 77.4168 15.0525C77.5472 14.902 77.6225 14.7163 77.6426 14.4955C77.6727 14.2647 77.6877 13.9083 77.6877 13.4266V9.994C77.6877 9.70294 77.7078 9.37674 77.748 9.01542L76.679 9.07564V8.44332C77.2712 8.44332 77.6928 8.40819 77.9437 8.33794C78.2046 8.26768 78.4054 8.16731 78.5459 8.03683H78.9825V14.1191C78.9825 14.5708 78.9624 14.912 78.9223 15.1429L79.8707 15.0977V15.715H76.7995V15.2633ZM81.7413 10.8521C81.3399 9.92877 81.1291 9.23121 81.109 8.75948L80.4617 8.80465V8.18739H83.2318V8.63904C82.7902 8.63904 82.5694 8.82472 82.5694 9.19608C82.5694 9.46707 82.6748 9.83843 82.8855 10.3102L84.0448 12.9599C84.1753 13.271 84.3258 13.6424 84.4964 14.074H84.5115C84.5416 13.9736 84.5817 13.8632 84.6319 13.7427L84.8578 13.0954L86.0622 9.79829C86.1625 9.50722 86.3131 9.16095 86.5138 8.75948L85.5503 8.80465V8.18739H87.929V8.63904C87.7182 8.63904 87.5376 8.71432 87.387 8.86487C87.2365 9.00538 87.096 9.20612 86.9655 9.46707C86.845 9.72803 86.6794 10.1295 86.4687 10.6715L84.4964 15.7601H83.8942L81.7413 10.8521ZM92.295 15.9558C91.6025 15.9558 90.9651 15.7953 90.383 15.4741C89.8109 15.1429 89.3542 14.6862 89.013 14.1041C88.6818 13.5219 88.5162 12.8645 88.5162 12.1318C88.5162 11.349 88.6818 10.6414 89.013 10.0091C89.3442 9.36671 89.7959 8.86487 90.3679 8.50354C90.9501 8.13218 91.5924 7.9465 92.295 7.9465C92.9875 7.9465 93.6249 8.11713 94.207 8.45838C94.7891 8.78959 95.2458 9.24626 95.577 9.8284C95.9183 10.4105 96.0889 11.0579 96.0889 11.7705C96.0889 12.5333 95.9183 13.2359 95.577 13.8782C95.2458 14.5206 94.7891 15.0274 94.207 15.3988C93.6349 15.7702 92.9976 15.9558 92.295 15.9558ZM92.4155 15.3536C93.1481 15.3536 93.6851 15.0525 94.0264 14.4503C94.3776 13.8481 94.5533 13.1004 94.5533 12.2071C94.5533 11.1934 94.3626 10.3252 93.9812 9.60257C93.6098 8.87992 93.0478 8.5186 92.295 8.5186C91.5523 8.5186 90.9902 8.82472 90.6088 9.43696C90.2375 10.0492 90.0518 10.802 90.0518 11.6952C90.0518 12.3376 90.1371 12.9398 90.3077 13.5019C90.4884 14.0539 90.7544 14.5005 91.1057 14.8418C91.467 15.183 91.9036 15.3536 92.4155 15.3536ZM100.454 15.9558C99.9826 15.9558 99.551 15.8906 99.1596 15.7601C98.7681 15.6397 98.4319 15.4841 98.1509 15.2934L98.2111 15.8204H97.5788L97.4885 13.2309H97.9552C97.9752 13.6424 98.0856 14.0087 98.2864 14.3299C98.4971 14.6511 98.7681 14.907 99.0994 15.0977C99.4406 15.2784 99.8019 15.3687 100.183 15.3687C100.615 15.3687 100.996 15.2683 101.328 15.0676C101.669 14.8568 101.839 14.5607 101.839 14.1793C101.839 13.8983 101.754 13.6624 101.583 13.4717C101.423 13.281 101.217 13.1255 100.966 13.005C100.725 12.8746 100.384 12.724 99.9424 12.5534C99.4105 12.3526 98.9839 12.167 98.6628 11.9963C98.3416 11.8157 98.0656 11.5748 97.8347 11.2737C97.6039 10.9726 97.4885 10.5912 97.4885 10.1295C97.4885 9.79829 97.5687 9.46707 97.7293 9.13586C97.8899 8.80465 98.1609 8.52362 98.5423 8.29277C98.9237 8.06193 99.4306 7.9465 100.063 7.9465C100.374 7.9465 100.69 7.99669 101.011 8.09705C101.343 8.19742 101.649 8.36303 101.93 8.59387L101.9 8.02178H102.532V10.6564H102.05C102.02 10.0743 101.839 9.57246 101.508 9.15092C101.187 8.71933 100.73 8.50354 100.138 8.50354C99.6865 8.50354 99.3252 8.61897 99.0542 8.84981C98.7932 9.07062 98.6628 9.3366 98.6628 9.64774C98.6628 9.9388 98.7481 10.1847 98.9187 10.3854C99.0994 10.5862 99.3202 10.7568 99.5811 10.8973C99.8421 11.0378 100.193 11.1934 100.635 11.364C101.157 11.5748 101.578 11.7705 101.9 11.9512C102.221 12.1318 102.492 12.3727 102.713 12.6738C102.943 12.9649 103.059 13.3212 103.059 13.7427C103.059 14.2245 102.933 14.631 102.682 14.9622C102.442 15.2934 102.12 15.5443 101.719 15.715C101.328 15.8756 100.906 15.9558 100.454 15.9558Z" fill="black"/>
<rect x="1.21023" y="0.311548" width="109.539" height="20.164" rx="10.082" stroke="black" stroke-width="0.544972"/>
</svg>
