<svg width="69" height="21" viewBox="0 0 69 21" fill="none" xmlns="http://www.w3.org/2000/svg">
<rect x="0.744166" y="0.311548" width="67.0315" height="20.164" rx="10.082" fill="#090909" stroke="black" stroke-width="0.544972"/>
<path d="M8.9296 15.2181C9.28088 15.2081 9.5318 15.1278 9.68235 14.9773C9.83291 14.8267 9.91822 14.6511 9.93829 14.4503C9.95837 14.2396 9.9684 13.8782 9.9684 13.3664V6.86253C9.9684 6.44099 9.98346 6.07966 10.0136 5.77856L8.9296 5.83878V5.17635C10.3347 5.15628 11.4538 5.14624 12.2869 5.14624C13.7824 5.14624 14.9115 5.4072 15.6743 5.92911C16.4471 6.45102 16.8336 7.21884 16.8336 8.23255C16.8336 8.81468 16.678 9.37172 16.3668 9.90367C16.0657 10.4356 15.5388 10.8772 14.7861 11.2285C14.0433 11.5798 13.0547 11.7555 11.8202 11.7555C11.5893 11.7555 11.4087 11.7504 11.2782 11.7404V13.9234C11.2782 14.4554 11.2631 14.8518 11.233 15.1128L12.6181 15.0375V15.715H8.9296V15.2181ZM12.2568 11.1683C12.8289 11.1683 13.3508 11.0579 13.8225 10.8371C14.3043 10.6062 14.6807 10.2801 14.9517 9.85851C15.2327 9.42693 15.3732 8.92509 15.3732 8.35299C15.3732 7.44968 15.0972 6.78725 14.5452 6.36571C13.9931 5.94417 13.2304 5.73339 12.2568 5.73339C11.9155 5.73339 11.6747 5.80365 11.5341 5.94417C11.4037 6.08468 11.3284 6.25531 11.3083 6.45604C11.2882 6.64674 11.2782 7.00305 11.2782 7.52496V11.1231C11.5291 11.1533 11.8553 11.1683 12.2568 11.1683ZM17.8941 15.2633C18.1852 15.2633 18.3909 15.1931 18.5114 15.0525C18.6419 14.902 18.7171 14.7163 18.7372 14.4955C18.7673 14.2647 18.7824 13.9083 18.7824 13.4266V9.994C18.7824 9.57246 18.8024 9.24626 18.8426 9.01542L17.7737 9.06058V8.44332H18.2404C18.6218 8.44332 18.8978 8.41321 19.0684 8.35299C19.239 8.28273 19.3996 8.17735 19.5502 8.03683H19.9868C20.0269 8.42827 20.052 8.92509 20.0621 9.52729C20.313 9.11579 20.6693 8.74944 21.131 8.42827C21.6027 8.10709 22.0895 7.9465 22.5913 7.9465C22.8924 7.9465 23.1434 8.0268 23.3441 8.18739C23.5448 8.34797 23.6452 8.58384 23.6452 8.89498C23.6452 9.05557 23.58 9.21615 23.4495 9.37674C23.329 9.53733 23.1534 9.61763 22.9225 9.61763C22.7017 9.61763 22.5211 9.53733 22.3806 9.37674C22.24 9.20612 22.1848 9.00538 22.215 8.77454C21.8336 8.7645 21.4471 8.91003 21.0557 9.21114C20.6743 9.51224 20.3481 9.91371 20.0771 10.4155L20.0922 14.1191C20.0922 14.5708 20.0721 14.912 20.032 15.1429L20.9804 15.0977V15.715H17.8941V15.2633ZM28.038 15.9558C27.3455 15.9558 26.7081 15.7953 26.126 15.4741C25.5539 15.1429 25.0972 14.6862 24.756 14.1041C24.4248 13.5219 24.2592 12.8645 24.2592 12.1318C24.2592 11.349 24.4248 10.6414 24.756 10.0091C25.0872 9.36671 25.5388 8.86487 26.1109 8.50354C26.6931 8.13218 27.3354 7.9465 28.038 7.9465C28.7305 7.9465 29.3679 8.11713 29.95 8.45838C30.5321 8.78959 30.9888 9.24626 31.32 9.8284C31.6613 10.4105 31.8319 11.0579 31.8319 11.7705C31.8319 12.5333 31.6613 13.2359 31.32 13.8782C30.9888 14.5206 30.5321 15.0274 29.95 15.3988C29.3779 15.7702 28.7406 15.9558 28.038 15.9558ZM28.1584 15.3536C28.8911 15.3536 29.4281 15.0525 29.7693 14.4503C30.1206 13.8481 30.2963 13.1004 30.2963 12.2071C30.2963 11.1934 30.1056 10.3252 29.7242 9.60257C29.3528 8.87992 28.7908 8.5186 28.038 8.5186C27.2953 8.5186 26.7332 8.82472 26.3518 9.43696C25.9805 10.0492 25.7948 10.802 25.7948 11.6952C25.7948 12.3376 25.8801 12.9398 26.0507 13.5019C26.2314 14.0539 26.4974 14.5005 26.8486 14.8418C27.21 15.183 27.6466 15.3536 28.1584 15.3536ZM32.9755 19.1024C33.2666 19.1024 33.4723 19.0271 33.5928 18.8765C33.7233 18.736 33.7985 18.5554 33.8186 18.3346C33.8387 18.1238 33.8537 17.7675 33.8638 17.2656L33.8939 9.994C33.8939 9.57246 33.9139 9.24626 33.9541 9.01542L32.8852 9.07564V8.44332C33.4773 8.44332 33.8838 8.41321 34.1046 8.35299C34.3255 8.28273 34.5061 8.17735 34.6466 8.03683H35.0983C35.1384 8.52864 35.1585 8.79963 35.1585 8.84981C35.4596 8.57882 35.8209 8.36303 36.2425 8.20244C36.664 8.03182 37.0806 7.9465 37.4921 7.9465C38.0842 7.9465 38.6312 8.10207 39.1331 8.41321C39.6349 8.71432 40.0364 9.15092 40.3375 9.72301C40.6486 10.2851 40.8042 10.9375 40.8042 11.6802C40.8042 12.5132 40.6286 13.256 40.2773 13.9083C39.926 14.5507 39.4542 15.0525 38.8621 15.4139C38.2799 15.7752 37.6476 15.9558 36.9651 15.9558C36.2726 15.9558 35.6704 15.7902 35.1585 15.459V17.9582C35.1585 18.4098 35.1384 18.7511 35.0983 18.9819L36.0468 18.9368V19.554H32.9755V19.1024ZM36.935 15.3536C37.4067 15.3536 37.8132 15.2081 38.1545 14.917C38.5058 14.626 38.7768 14.2195 38.9675 13.6976C39.1582 13.1757 39.2535 12.5835 39.2535 11.9211C39.2535 11.0178 39.0578 10.255 38.6664 9.63268C38.285 9.00036 37.7129 8.68421 36.9501 8.68421C36.6189 8.68421 36.2977 8.7645 35.9865 8.92509C35.6754 9.08568 35.4044 9.28641 35.1736 9.52729C35.1836 9.59755 35.1886 9.90367 35.1886 10.4457L35.1736 14.7665C35.6854 15.1579 36.2726 15.3536 36.935 15.3536ZM43.5846 6.54637C43.3738 6.54637 43.1881 6.46106 43.0275 6.29043C42.8669 6.10977 42.7867 5.899 42.7867 5.65812C42.7867 5.41724 42.8669 5.20646 43.0275 5.0258C43.1982 4.84514 43.3889 4.75481 43.5996 4.75481C43.8305 4.75481 44.0212 4.84514 44.1717 5.0258C44.3323 5.19643 44.4126 5.4072 44.4126 5.65812C44.4126 5.899 44.3273 6.10977 44.1567 6.29043C43.9961 6.46106 43.8054 6.54637 43.5846 6.54637ZM42.0941 15.2633C42.3852 15.2633 42.5909 15.1931 42.7114 15.0525C42.8419 14.902 42.9171 14.7163 42.9372 14.4955C42.9673 14.2647 42.9824 13.9083 42.9824 13.4266V9.994C42.9824 9.70294 43.0024 9.37674 43.0426 9.01542L41.9737 9.07564V8.44332C42.5658 8.44332 42.9874 8.40819 43.2383 8.33794C43.4993 8.26768 43.7 8.16731 43.8405 8.03683H44.2771V14.1191C44.2771 14.5708 44.257 14.912 44.2169 15.1429L45.1654 15.0977V15.715H42.0941V15.2633ZM50.0621 15.9558C49.3695 15.9558 48.7322 15.7953 48.1501 15.4741C47.578 15.1429 47.1213 14.6862 46.78 14.1041C46.4488 13.5219 46.2832 12.8645 46.2832 12.1318C46.2832 11.349 46.4488 10.6414 46.78 10.0091C47.1112 9.36671 47.5629 8.86487 48.135 8.50354C48.7171 8.13218 49.3595 7.9465 50.0621 7.9465C50.7546 7.9465 51.3919 8.11713 51.9741 8.45838C52.5562 8.78959 53.0129 9.24626 53.3441 9.8284C53.6853 10.4105 53.856 11.0579 53.856 11.7705C53.856 12.5333 53.6853 13.2359 53.3441 13.8782C53.0129 14.5206 52.5562 15.0274 51.9741 15.3988C51.402 15.7702 50.7646 15.9558 50.0621 15.9558ZM50.1825 15.3536C50.9152 15.3536 51.4522 15.0525 51.7934 14.4503C52.1447 13.8481 52.3203 13.1004 52.3203 12.2071C52.3203 11.1934 52.1296 10.3252 51.7482 9.60257C51.3769 8.87992 50.8148 8.5186 50.0621 8.5186C49.3193 8.5186 48.7573 8.82472 48.3759 9.43696C48.0045 10.0492 47.8188 10.802 47.8188 11.6952C47.8188 12.3376 47.9042 12.9398 48.0748 13.5019C48.2554 14.0539 48.5214 14.5005 48.8727 14.8418C49.234 15.183 49.6706 15.3536 50.1825 15.3536ZM58.2214 15.9558C57.7496 15.9558 57.3181 15.8906 56.9266 15.7601C56.5352 15.6397 56.199 15.4841 55.9179 15.2934L55.9781 15.8204H55.3458L55.2555 13.2309H55.7222C55.7423 13.6424 55.8527 14.0087 56.0534 14.3299C56.2642 14.6511 56.5352 14.907 56.8664 15.0977C57.2077 15.2784 57.569 15.3687 57.9504 15.3687C58.382 15.3687 58.7634 15.2683 59.0946 15.0676C59.4358 14.8568 59.6064 14.5607 59.6064 14.1793C59.6064 13.8983 59.5211 13.6624 59.3505 13.4717C59.1899 13.281 58.9842 13.1255 58.7332 13.005C58.4924 12.8746 58.1511 12.724 57.7095 12.5534C57.1775 12.3526 56.751 12.167 56.4298 11.9963C56.1086 11.8157 55.8326 11.5748 55.6018 11.2737C55.3709 10.9726 55.2555 10.5912 55.2555 10.1295C55.2555 9.79829 55.3358 9.46707 55.4964 9.13586C55.657 8.80465 55.928 8.52362 56.3094 8.29277C56.6908 8.06193 57.1976 7.9465 57.8299 7.9465C58.1411 7.9465 58.4572 7.99669 58.7784 8.09705C59.1096 8.19742 59.4157 8.36303 59.6968 8.59387L59.6667 8.02178H60.299V10.6564H59.8172C59.7871 10.0743 59.6064 9.57246 59.2752 9.15092C58.9541 8.71933 58.4974 8.50354 57.9052 8.50354C57.4536 8.50354 57.0922 8.61897 56.8212 8.84981C56.5603 9.07062 56.4298 9.3366 56.4298 9.64774C56.4298 9.9388 56.5151 10.1847 56.6857 10.3854C56.8664 10.5862 57.0872 10.7568 57.3482 10.8973C57.6091 11.0378 57.9604 11.1934 58.402 11.364C58.9239 11.5748 59.3455 11.7705 59.6667 11.9512C59.9878 12.1318 60.2588 12.3727 60.4796 12.6738C60.7105 12.9649 60.8259 13.3212 60.8259 13.7427C60.8259 14.2245 60.7005 14.631 60.4495 14.9622C60.2086 15.2934 59.8875 15.5443 59.486 15.715C59.0946 15.8756 58.673 15.9558 58.2214 15.9558Z" fill="white"/>
</svg>
