<svg width="29" height="28" viewBox="0 0 29 28" fill="none" xmlns="http://www.w3.org/2000/svg">
<g clip-path="url(#clip0_1_2021)">
<path d="M13.3594 8.4816C13.4376 9.58619 13.9618 10.4083 14.5563 11.2912L10.635 14.8278L11.2856 15.5492L15.502 11.7399C15.9528 10.799 15.0359 10.311 14.6711 9.54024C13.2213 6.45756 16.938 3.38495 19.6997 5.39978C19.9851 5.60803 20.4839 6.24467 20.8283 6.12253C21.0183 6.05539 21.1646 5.86358 21.3714 5.76349C22.3482 5.29275 23.5638 6.15874 23.3957 7.24829C23.3047 7.83585 22.9916 7.93861 22.8154 8.32591C22.6577 8.67219 23.0232 8.86359 23.1671 9.10185C23.7588 10.0849 24.0747 10.831 23.7806 11.9898C23.2154 14.2002 20.7487 15.212 18.7872 14.0697C18.0538 13.6425 17.6477 12.7005 16.6832 13.0472L12.4635 16.8528L13.113 17.573L17.0698 14.0044C19.3418 16.3811 23.1033 15.9887 24.5309 12.9029C25.0978 11.6777 24.9411 10.3534 24.3764 9.16424C24.3007 9.00411 23.9721 8.5488 23.9655 8.47268C23.9619 8.42936 24.2821 7.91891 24.3503 7.70442C24.9034 5.95504 23.141 4.25176 21.3675 4.70937C21.2092 4.75017 20.8485 4.96239 20.8007 4.9611C20.7135 4.95776 19.6195 4.175 19.3035 4.04094C16.3688 2.80297 13.1374 5.34918 13.3594 8.4816Z" fill="#8F8F8F"/>
<path d="M13.5234 20.7549C13.5016 20.6815 13.2825 20.1829 13.2604 20.1584L11.9095 18.6606L15.1938 15.6986L14.5443 14.9784L10.8761 18.2866C10.2336 19.192 12.5913 20.4958 12.5669 21.1719C12.5567 21.4605 12.219 21.6786 11.9668 21.5268C11.3381 21.1493 10.4352 19.3073 9.62213 19.5195C9.32664 19.5976 8.23838 20.5569 8.14981 20.8274C7.87078 21.6711 9.71266 22.4423 8.92019 23.024C8.38344 23.4172 7.70158 21.9678 7.22987 21.8234C6.77199 21.682 6.2693 22.703 5.58291 22.6746C4.80107 22.6436 4.60269 21.4722 5.23191 21.0266L13.3687 13.6749L12.7148 12.9498L4.44211 20.4041C2.60705 22.3252 5.25902 24.8625 7.08081 23.0177C7.64202 23.7776 8.52829 24.5415 9.4548 23.87C10.5715 23.0602 10.1402 21.8616 9.21938 21.089L9.70848 20.6479L11.1145 22.2069C11.1707 22.2692 11.6228 22.4779 11.74 22.5119C12.7565 22.808 13.8258 21.786 13.5233 20.7572L13.5234 20.7549Z" fill="#8F8F8F"/>
<path d="M19.5233 6.55436C19.7292 6.7212 19.9586 6.97553 20.1034 7.19752C20.3097 7.51478 20.3794 8.28783 20.4985 8.41989C20.6044 8.53727 21.0933 8.61962 21.2785 8.71195C23.2937 9.71712 22.9917 12.7922 20.6961 13.2217C19.5106 13.4438 18.3334 12.8515 17.9189 11.6887C17.8538 11.5035 17.8456 10.9633 17.7669 10.8835C17.6971 10.8134 16.7175 10.6148 16.3015 10.2051C14.2215 8.14968 17.115 4.6044 19.5246 6.55325L19.5233 6.55436ZM18.9585 7.40077C17.5404 6.12096 15.5902 8.42082 17.2664 9.64749C17.6393 9.92088 18.2233 9.74233 18.5861 10.1446C19.0427 10.6508 18.5403 11.3034 19.3608 11.987C20.5691 12.9948 22.3433 11.3038 21.3161 9.99516C20.7899 9.32563 19.952 9.58902 19.6157 9.21608C19.2617 8.82358 19.6637 8.03756 18.9573 7.40187L18.9585 7.40077Z" fill="#8F8F8F"/>
</g>
<defs>
<clipPath id="clip0_1_2021">
<rect width="12.8448" height="26.2528" fill="white" transform="translate(19.4954 0.679382) rotate(47.9534)"/>
</clipPath>
</defs>
</svg>
