<svg width="146" height="21" viewBox="0 0 146 21" fill="none" xmlns="http://www.w3.org/2000/svg">
<rect x="0.25" y="0.25" width="145.5" height="19.5" rx="9.75" fill="#D6A9D6" stroke="black" stroke-width="0.5"/>
<path d="M25.5365 13.521C25.8325 13.5125 26.0439 13.4449 26.1707 13.318C26.2976 13.1912 26.3695 13.0432 26.3864 12.8741C26.4033 12.6965 26.4118 12.3921 26.4118 11.9608V6.48105C26.4118 6.12588 26.4244 5.82145 26.4498 5.56776L25.5365 5.6185V5.06038H28.3905V5.47897C28.0946 5.48743 27.8832 5.55508 27.7563 5.68192C27.6295 5.80877 27.5576 5.96098 27.5407 6.13857C27.5238 6.3077 27.5153 6.6079 27.5153 7.03917V9.14481H32.0564V6.48105C32.0564 6.12588 32.0691 5.82145 32.0944 5.56776L31.1811 5.6185V5.06038H34.0352V5.47897C33.7392 5.48743 33.5278 5.55508 33.4009 5.68192C33.2741 5.80877 33.2022 5.96098 33.1853 6.13857C33.1684 6.3077 33.1599 6.6079 33.1599 7.03917V12.4301C33.1599 12.8783 33.1473 13.2123 33.1219 13.4322L34.0352 13.3815V13.9396H31.1811V13.521C31.4771 13.5125 31.6885 13.4449 31.8154 13.318C31.9422 13.1912 32.0141 13.0432 32.031 12.8741C32.0479 12.6965 32.0564 12.3921 32.0564 11.9608V9.65219L27.5153 9.70293V12.4301C27.5153 12.8783 27.5026 13.2123 27.4773 13.4322L28.3905 13.3815V13.9396H25.5365V13.521ZM36.9712 14.1425C36.3538 14.1425 35.8803 14.003 35.5505 13.7239C35.2291 13.4449 35.0685 13.0813 35.0685 12.6331C35.0685 12.1426 35.263 11.7282 35.652 11.39C36.0494 11.0517 36.5441 10.8023 37.1361 10.6416C37.7365 10.4725 38.3369 10.3921 38.9373 10.4006V9.61414C38.9373 9.06447 38.8569 8.63743 38.6963 8.333C38.5356 8.02011 38.1931 7.86367 37.6688 7.86367C37.4067 7.86367 37.1572 7.91864 36.9204 8.02857C36.6836 8.1385 36.5103 8.3034 36.4004 8.52327C36.5103 8.64166 36.5653 8.80233 36.5653 9.00528C36.5653 9.13213 36.5187 9.25474 36.4257 9.37313C36.3327 9.48307 36.1974 9.53803 36.0198 9.53803C35.8422 9.53803 35.7027 9.48307 35.6012 9.37313C35.4997 9.25474 35.449 9.10253 35.449 8.91649C35.449 8.63743 35.5547 8.38374 35.7661 8.15541C35.986 7.91864 36.2862 7.7326 36.6667 7.59729C37.0557 7.46199 37.487 7.39434 37.9606 7.39434C38.6709 7.39434 39.1952 7.58461 39.5334 7.96515C39.8717 8.33723 40.0366 8.92917 40.0281 9.74098L40.0155 12.595C40.0155 12.8656 39.9985 13.1531 39.9647 13.4576L40.8653 13.4068V13.9396H39.0514C39.0261 13.8127 38.9965 13.5717 38.9626 13.2166C38.3453 13.8339 37.6815 14.1425 36.9712 14.1425ZM37.2629 13.4195C37.5842 13.4195 37.876 13.3603 38.1381 13.2419C38.4003 13.1151 38.6667 12.9248 38.9373 12.6711C38.9288 12.5443 38.9246 12.3286 38.9246 12.0242L38.9373 10.8319C38.2438 10.8572 37.6265 11.001 37.0853 11.2631C36.5441 11.5168 36.2735 11.91 36.2735 12.4428C36.2735 12.7557 36.3665 12.9967 36.5526 13.1658C36.7386 13.3349 36.9754 13.4195 37.2629 13.4195ZM44.8308 14.1425C44.2558 14.1425 43.7273 14.0115 43.2453 13.7493C42.7717 13.4872 42.3954 13.1109 42.1163 12.6204C41.8373 12.1299 41.6977 11.5506 41.6977 10.8826C41.6977 10.2906 41.8373 9.7283 42.1163 9.19555C42.4038 8.65434 42.7971 8.21884 43.296 7.88904C43.8034 7.55924 44.3742 7.39434 45.0084 7.39434C45.4651 7.39434 45.871 7.46622 46.2261 7.60998C46.5813 7.75374 46.8561 7.944 47.0506 8.18078C47.2536 8.41756 47.3551 8.67548 47.3551 8.95454C47.3551 9.14904 47.3001 9.30971 47.1902 9.43655C47.0802 9.5634 46.928 9.62682 46.7335 9.62682C46.5475 9.62682 46.4079 9.56763 46.3149 9.44924C46.2219 9.32239 46.1754 9.19132 46.1754 9.05602C46.1754 8.84461 46.2388 8.67548 46.3657 8.54864C46.2726 8.28649 46.0908 8.1089 45.8202 8.01588C45.5581 7.91441 45.2959 7.86367 45.0338 7.86367C44.6448 7.86367 44.2938 7.96937 43.981 8.18078C43.6765 8.39219 43.4355 8.70085 43.2579 9.10676C43.0804 9.51266 42.9916 9.9989 42.9916 10.5655C42.9916 11.1321 43.0804 11.6352 43.2579 12.0749C43.444 12.5147 43.7019 12.8614 44.0317 13.1151C44.3615 13.3603 44.742 13.4829 45.1733 13.4829C45.5538 13.4829 45.9259 13.3815 46.2896 13.1785C46.6616 12.9671 46.9534 12.7049 47.1648 12.3921L47.4946 12.6457C47.1817 13.1362 46.7758 13.5083 46.2769 13.762C45.7864 14.0157 45.3044 14.1425 44.8308 14.1425ZM51.4946 14.1425C50.9111 14.1425 50.3826 14.0072 49.909 13.7366C49.4439 13.4576 49.0761 13.0643 48.8055 12.557C48.5349 12.0411 48.3996 11.4492 48.3996 10.7811C48.3996 10.1892 48.5349 9.63528 48.8055 9.11944C49.0761 8.59515 49.4524 8.17655 49.9344 7.86367C50.4249 7.55078 50.9787 7.39434 51.5961 7.39434C52.0781 7.39434 52.5136 7.50004 52.9026 7.71145C53.2916 7.92286 53.6002 8.23998 53.8285 8.6628C54.0569 9.07716 54.171 9.58877 54.171 10.1976L49.7061 10.2737C49.6976 11.2885 49.8625 12.0792 50.2008 12.6457C50.5475 13.2123 51.0802 13.4956 51.799 13.4956C52.188 13.4956 52.5855 13.3941 52.9914 13.1912C53.4057 12.9882 53.7228 12.7388 53.9427 12.4428L54.2471 12.6965C53.9258 13.187 53.5072 13.5506 52.9914 13.7874C52.484 14.0241 51.9851 14.1425 51.4946 14.1425ZM52.9787 9.74098C52.9787 9.2336 52.8645 8.7981 52.6362 8.43447C52.4079 8.07085 52.0654 7.88904 51.6087 7.88904C50.5602 7.88904 49.9386 8.50635 49.7441 9.74098H52.9787ZM55.2999 13.559C55.5451 13.559 55.7184 13.4998 55.8199 13.3815C55.9299 13.2546 55.9933 13.0982 56.0102 12.9121C56.0356 12.7176 56.0482 12.4174 56.0482 12.0115V9.11944C56.0482 8.76427 56.0652 8.48944 56.099 8.29494L55.1984 8.333V7.81293H55.5916C55.9129 7.81293 56.1455 7.78756 56.2893 7.73682C56.433 7.67763 56.5683 7.58884 56.6952 7.47045H57.063C57.0968 7.80025 57.118 8.21884 57.1264 8.72622C57.3378 8.37951 57.638 8.07085 58.027 7.80025C58.4245 7.52964 58.8346 7.39434 59.2574 7.39434C59.5111 7.39434 59.7225 7.46199 59.8917 7.59729C60.0608 7.7326 60.1454 7.93132 60.1454 8.19347C60.1454 8.32877 60.0904 8.46407 59.9805 8.59937C59.879 8.73468 59.731 8.80233 59.5365 8.80233C59.3505 8.80233 59.1982 8.73468 59.0799 8.59937C58.9615 8.45562 58.915 8.28649 58.9403 8.09199C58.619 8.08353 58.2934 8.20615 57.9636 8.45984C57.6423 8.71353 57.3674 9.05179 57.1391 9.47461L57.1518 12.595C57.1518 12.9755 57.1349 13.2631 57.1011 13.4576L57.9002 13.4195V13.9396H55.2999V13.559ZM67.2146 14.1425C66.6396 14.1425 66.1111 14.0115 65.6291 13.7493C65.1555 13.4872 64.7792 13.1109 64.5001 12.6204C64.2211 12.1299 64.0815 11.5506 64.0815 10.8826C64.0815 10.2906 64.2211 9.7283 64.5001 9.19555C64.7876 8.65434 65.1809 8.21884 65.6798 7.88904C66.1872 7.55924 66.758 7.39434 67.3922 7.39434C67.8489 7.39434 68.2548 7.46622 68.6099 7.60998C68.9651 7.75374 69.2399 7.944 69.4344 8.18078C69.6374 8.41756 69.7389 8.67548 69.7389 8.95454C69.7389 9.14904 69.6839 9.30971 69.574 9.43655C69.464 9.5634 69.3118 9.62682 69.1173 9.62682C68.9313 9.62682 68.7917 9.56763 68.6987 9.44924C68.6057 9.32239 68.5592 9.19132 68.5592 9.05602C68.5592 8.84461 68.6226 8.67548 68.7495 8.54864C68.6564 8.28649 68.4746 8.1089 68.204 8.01588C67.9419 7.91441 67.6797 7.86367 67.4176 7.86367C67.0286 7.86367 66.6776 7.96937 66.3648 8.18078C66.0603 8.39219 65.8193 8.70085 65.6417 9.10676C65.4642 9.51266 65.3754 9.9989 65.3754 10.5655C65.3754 11.1321 65.4642 11.6352 65.6417 12.0749C65.8278 12.5147 66.0857 12.8614 66.4155 13.1151C66.7453 13.3603 67.1258 13.4829 67.5571 13.4829C67.9376 13.4829 68.3097 13.3815 68.6733 13.1785C69.0454 12.9671 69.3372 12.7049 69.5486 12.3921L69.8784 12.6457C69.5655 13.1362 69.1596 13.5083 68.6607 13.762C68.1702 14.0157 67.6882 14.1425 67.2146 14.1425ZM73.9545 14.1425C73.371 14.1425 72.834 14.0072 72.3435 13.7366C71.8615 13.4576 71.4768 13.0728 71.1893 12.5823C70.9102 12.0919 70.7707 11.538 70.7707 10.9206C70.7707 10.2611 70.9102 9.66488 71.1893 9.13213C71.4683 8.59092 71.8489 8.1681 72.3309 7.86367C72.8213 7.55078 73.3625 7.39434 73.9545 7.39434C74.538 7.39434 75.075 7.5381 75.5654 7.82562C76.0559 8.10468 76.4407 8.48944 76.7197 8.97991C77.0072 9.47038 77.151 10.0158 77.151 10.6162C77.151 11.2589 77.0072 11.8509 76.7197 12.3921C76.4407 12.9333 76.0559 13.3603 75.5654 13.6732C75.0834 13.9861 74.5464 14.1425 73.9545 14.1425ZM74.056 13.6351C74.6733 13.6351 75.1257 13.3815 75.4132 12.8741C75.7092 12.3667 75.8572 11.7367 75.8572 10.9841C75.8572 10.13 75.6965 9.3985 75.3752 8.78964C75.0623 8.18078 74.5887 7.87635 73.9545 7.87635C73.3287 7.87635 72.8552 8.13427 72.5338 8.65011C72.2209 9.16595 72.0645 9.80018 72.0645 10.5528C72.0645 11.094 72.1364 11.6014 72.2801 12.0749C72.4323 12.54 72.6564 12.9164 72.9524 13.2039C73.2568 13.4914 73.6247 13.6351 74.056 13.6351ZM78.1018 13.559C78.3471 13.559 78.5204 13.4998 78.6219 13.3815C78.7318 13.2546 78.7953 13.0982 78.8122 12.9121C78.8376 12.7176 78.8502 12.4174 78.8502 12.0115V6.01172C78.8502 5.69038 78.8629 5.41555 78.8883 5.18723L77.9877 5.23796V4.70521C78.4951 4.70521 78.8545 4.67562 79.0659 4.61642C79.2857 4.55723 79.4549 4.47266 79.5733 4.36273H79.9411L79.9538 12.595C79.9538 12.9248 79.9327 13.2123 79.8904 13.4576L80.6895 13.4195V13.9396H78.1018V13.559ZM83.4606 14.1425C82.8433 14.1425 82.3697 14.003 82.0399 13.7239C81.7186 13.4449 81.5579 13.0813 81.5579 12.6331C81.5579 12.1426 81.7524 11.7282 82.1414 11.39C82.5388 11.0517 83.0335 10.8023 83.6255 10.6416C84.2259 10.4725 84.8263 10.3921 85.4267 10.4006V9.61414C85.4267 9.06447 85.3463 8.63743 85.1857 8.333C85.025 8.02011 84.6825 7.86367 84.1582 7.86367C83.8961 7.86367 83.6466 7.91864 83.4098 8.02857C83.1731 8.1385 82.9997 8.3034 82.8898 8.52327C82.9997 8.64166 83.0547 8.80233 83.0547 9.00528C83.0547 9.13213 83.0082 9.25474 82.9151 9.37313C82.8221 9.48307 82.6868 9.53803 82.5092 9.53803C82.3317 9.53803 82.1921 9.48307 82.0906 9.37313C81.9892 9.25474 81.9384 9.10253 81.9384 8.91649C81.9384 8.63743 82.0441 8.38374 82.2555 8.15541C82.4754 7.91864 82.7756 7.7326 83.1561 7.59729C83.5451 7.46199 83.9764 7.39434 84.45 7.39434C85.1603 7.39434 85.6846 7.58461 86.0229 7.96515C86.3611 8.33723 86.526 8.92917 86.5176 9.74098L86.5049 12.595C86.5049 12.8656 86.488 13.1531 86.4541 13.4576L87.3547 13.4068V13.9396H85.5408C85.5155 13.8127 85.4859 13.5717 85.4521 13.2166C84.8347 13.8339 84.1709 14.1425 83.4606 14.1425ZM83.7523 13.4195C84.0737 13.4195 84.3654 13.3603 84.6276 13.2419C84.8897 13.1151 85.1561 12.9248 85.4267 12.6711C85.4182 12.5443 85.414 12.3286 85.414 12.0242L85.4267 10.8319C84.7333 10.8572 84.1159 11.001 83.5747 11.2631C83.0335 11.5168 82.7629 11.91 82.7629 12.4428C82.7629 12.7557 82.8559 12.9967 83.042 13.1658C83.228 13.3349 83.4648 13.4195 83.7523 13.4195ZM91.2188 14.1425C90.8805 14.1425 90.5465 14.0833 90.2167 13.9649C89.8869 13.8466 89.5994 13.6478 89.3541 13.3688L89.0497 13.9396H88.6058L88.6311 6.01172C88.6311 5.69038 88.6438 5.41555 88.6692 5.18723L87.7686 5.23796V4.70521C88.276 4.70521 88.6354 4.67562 88.8468 4.61642C89.0666 4.55723 89.2358 4.47266 89.3541 4.36273H89.722V8.14273C89.9588 7.90595 90.2378 7.72414 90.5592 7.59729C90.889 7.46199 91.2484 7.39434 91.6374 7.39434C92.1786 7.39434 92.669 7.52541 93.1088 7.78756C93.5485 8.04971 93.891 8.42602 94.1362 8.91649C94.3899 9.40696 94.5168 9.97353 94.5168 10.6162C94.5168 11.3181 94.3645 11.9354 94.0601 12.4682C93.7557 13.0009 93.3498 13.4153 92.8424 13.7113C92.335 13.9988 91.7938 14.1425 91.2188 14.1425ZM91.2188 13.6225C91.8276 13.6225 92.3096 13.3772 92.6648 12.8868C93.0284 12.3878 93.2103 11.7367 93.2103 10.9333C93.2103 10.0454 93.0454 9.33931 92.7156 8.81501C92.3858 8.28226 91.8995 8.01588 91.2568 8.01588C90.9778 8.01588 90.6987 8.08353 90.4196 8.21884C90.149 8.34568 89.9165 8.51904 89.722 8.7389V11.9481C89.722 13.0643 90.2209 13.6225 91.2188 13.6225ZM98.7538 14.1425C98.1703 14.1425 97.6333 14.0072 97.1429 13.7366C96.6609 13.4576 96.2761 13.0728 95.9886 12.5823C95.7095 12.0919 95.57 11.538 95.57 10.9206C95.57 10.2611 95.7095 9.66488 95.9886 9.13213C96.2676 8.59092 96.6482 8.1681 97.1302 7.86367C97.6206 7.55078 98.1619 7.39434 98.7538 7.39434C99.3373 7.39434 99.8743 7.5381 100.365 7.82562C100.855 8.10468 101.24 8.48944 101.519 8.97991C101.807 9.47038 101.95 10.0158 101.95 10.6162C101.95 11.2589 101.807 11.8509 101.519 12.3921C101.24 12.9333 100.855 13.3603 100.365 13.6732C99.8827 13.9861 99.3458 14.1425 98.7538 14.1425ZM98.8553 13.6351C99.4726 13.6351 99.925 13.3815 100.213 12.8741C100.509 12.3667 100.656 11.7367 100.656 10.9841C100.656 10.13 100.496 9.3985 100.174 8.78964C99.8616 8.18078 99.388 7.87635 98.7538 7.87635C98.128 7.87635 97.6545 8.13427 97.3331 8.65011C97.0202 9.16595 96.8638 9.80018 96.8638 10.5528C96.8638 11.094 96.9357 11.6014 97.0794 12.0749C97.2317 12.54 97.4558 12.9164 97.7517 13.2039C98.0562 13.4914 98.424 13.6351 98.8553 13.6351ZM103.028 13.559C103.273 13.559 103.447 13.4998 103.548 13.3815C103.658 13.2546 103.721 13.0982 103.738 12.9121C103.764 12.7176 103.776 12.4174 103.776 12.0115V9.11944C103.776 8.76427 103.793 8.48944 103.827 8.29494L102.927 8.333V7.81293H103.32C103.641 7.81293 103.874 7.78756 104.017 7.73682C104.161 7.67763 104.296 7.58884 104.423 7.47045H104.791C104.825 7.80025 104.846 8.21884 104.855 8.72622C105.066 8.37951 105.366 8.07085 105.755 7.80025C106.153 7.52964 106.563 7.39434 106.986 7.39434C107.239 7.39434 107.451 7.46199 107.62 7.59729C107.789 7.7326 107.874 7.93132 107.874 8.19347C107.874 8.32877 107.819 8.46407 107.709 8.59937C107.607 8.73468 107.459 8.80233 107.265 8.80233C107.079 8.80233 106.926 8.73468 106.808 8.59937C106.69 8.45562 106.643 8.28649 106.668 8.09199C106.347 8.08353 106.022 8.20615 105.692 8.45984C105.37 8.71353 105.096 9.05179 104.867 9.47461L104.88 12.595C104.88 12.9755 104.863 13.2631 104.829 13.4576L105.628 13.4195V13.9396H103.028V13.559ZM110.205 14.1425C109.587 14.1425 109.114 14.003 108.784 13.7239C108.463 13.4449 108.302 13.0813 108.302 12.6331C108.302 12.1426 108.497 11.7282 108.886 11.39C109.283 11.0517 109.778 10.8023 110.37 10.6416C110.97 10.4725 111.57 10.3921 112.171 10.4006V9.61414C112.171 9.06447 112.09 8.63743 111.93 8.333C111.769 8.02011 111.427 7.86367 110.902 7.86367C110.64 7.86367 110.391 7.91864 110.154 8.02857C109.917 8.1385 109.744 8.3034 109.634 8.52327C109.744 8.64166 109.799 8.80233 109.799 9.00528C109.799 9.13213 109.752 9.25474 109.659 9.37313C109.566 9.48307 109.431 9.53803 109.253 9.53803C109.076 9.53803 108.936 9.48307 108.835 9.37313C108.733 9.25474 108.683 9.10253 108.683 8.91649C108.683 8.63743 108.788 8.38374 109 8.15541C109.22 7.91864 109.52 7.7326 109.9 7.59729C110.289 7.46199 110.721 7.39434 111.194 7.39434C111.904 7.39434 112.429 7.58461 112.767 7.96515C113.105 8.33723 113.27 8.92917 113.262 9.74098L113.249 12.595C113.249 12.8656 113.232 13.1531 113.198 13.4576L114.099 13.4068V13.9396H112.285C112.26 13.8127 112.23 13.5717 112.196 13.2166C111.579 13.8339 110.915 14.1425 110.205 14.1425ZM110.496 13.4195C110.818 13.4195 111.11 13.3603 111.372 13.2419C111.634 13.1151 111.9 12.9248 112.171 12.6711C112.162 12.5443 112.158 12.3286 112.158 12.0242L112.171 10.8319C111.477 10.8572 110.86 11.001 110.319 11.2631C109.778 11.5168 109.507 11.91 109.507 12.4428C109.507 12.7557 109.6 12.9967 109.786 13.1658C109.972 13.3349 110.209 13.4195 110.496 13.4195ZM117.267 14.1425C116.109 14.1425 115.534 13.3645 115.542 11.8086L115.568 8.13004L114.591 8.14273V7.59729C114.997 7.58884 115.339 7.40702 115.618 7.05186C115.906 6.68823 116.117 6.2781 116.253 5.82145H116.684V7.59729H118.815V8.09199L116.684 8.11736C116.675 9.41119 116.667 10.3076 116.658 10.8065C116.658 11.3054 116.658 11.5845 116.658 11.6437C116.658 12.2441 116.73 12.6923 116.874 12.9882C117.018 13.2757 117.267 13.4195 117.622 13.4195C117.842 13.4195 118.058 13.3519 118.269 13.2166C118.489 13.0813 118.68 12.8952 118.84 12.6584L119.183 12.9375C118.853 13.428 118.527 13.7535 118.206 13.9142C117.885 14.0664 117.572 14.1425 117.267 14.1425ZM121.044 6.21468C120.866 6.21468 120.71 6.1428 120.574 5.99904C120.439 5.84682 120.371 5.66924 120.371 5.46629C120.371 5.26333 120.439 5.08575 120.574 4.93353C120.718 4.78132 120.879 4.70521 121.056 4.70521C121.251 4.70521 121.412 4.78132 121.538 4.93353C121.674 5.07729 121.741 5.25488 121.741 5.46629C121.741 5.66924 121.67 5.84682 121.526 5.99904C121.39 6.1428 121.23 6.21468 121.044 6.21468ZM119.788 13.559C120.033 13.559 120.207 13.4998 120.308 13.3815C120.418 13.2546 120.481 13.0982 120.498 12.9121C120.524 12.7176 120.536 12.4174 120.536 12.0115V9.11944C120.536 8.87421 120.553 8.59937 120.587 8.29494L119.687 8.34568V7.81293C120.185 7.81293 120.541 7.78333 120.752 7.72414C120.972 7.66494 121.141 7.58038 121.259 7.47045H121.627V12.595C121.627 12.9755 121.61 13.2631 121.577 13.4576L122.376 13.4195V13.9396H119.788V13.559ZM123.952 9.84246C123.613 9.06447 123.436 8.47676 123.419 8.07931L122.874 8.11736V7.59729H125.207V7.97783C124.835 7.97783 124.649 8.13427 124.649 8.44716C124.649 8.67548 124.738 8.98837 124.916 9.38582L125.892 11.6183C126.002 11.8804 126.129 12.1933 126.273 12.557H126.286C126.311 12.4724 126.345 12.3794 126.387 12.2779L126.577 11.7325L127.592 8.95454C127.677 8.70931 127.804 8.41756 127.973 8.07931L127.161 8.11736V7.59729H129.165V7.97783C128.987 7.97783 128.835 8.04125 128.708 8.1681C128.582 8.28649 128.463 8.45562 128.353 8.67548C128.252 8.89535 128.112 9.2336 127.935 9.69025L126.273 13.9776H125.766L123.952 9.84246ZM132.844 14.1425C132.26 14.1425 131.723 14.0072 131.233 13.7366C130.751 13.4576 130.366 13.0728 130.078 12.5823C129.799 12.0919 129.66 11.538 129.66 10.9206C129.66 10.2611 129.799 9.66488 130.078 9.13213C130.357 8.59092 130.738 8.1681 131.22 7.86367C131.71 7.55078 132.252 7.39434 132.844 7.39434C133.427 7.39434 133.964 7.5381 134.455 7.82562C134.945 8.10468 135.33 8.48944 135.609 8.97991C135.896 9.47038 136.04 10.0158 136.04 10.6162C136.04 11.2589 135.896 11.8509 135.609 12.3921C135.33 12.9333 134.945 13.3603 134.455 13.6732C133.972 13.9861 133.436 14.1425 132.844 14.1425ZM132.945 13.6351C133.562 13.6351 134.015 13.3815 134.302 12.8741C134.598 12.3667 134.746 11.7367 134.746 10.9841C134.746 10.13 134.586 9.3985 134.264 8.78964C133.951 8.18078 133.478 7.87635 132.844 7.87635C132.218 7.87635 131.744 8.13427 131.423 8.65011C131.11 9.16595 130.954 9.80018 130.954 10.5528C130.954 11.094 131.025 11.6014 131.169 12.0749C131.321 12.54 131.546 12.9164 131.841 13.2039C132.146 13.4914 132.514 13.6351 132.945 13.6351Z" fill="black"/>
<path d="M9.22705 5.3125C10.2905 4.09108 12.1723 3.479 14.0396 4.42383L14.2056 4.51465C14.5714 4.73014 14.8666 5.00273 15.188 5.26465C15.2733 5.19698 15.3546 5.12279 15.437 5.0459C15.5263 4.9626 15.6186 4.8778 15.7212 4.80176L15.9253 4.66016C18.0599 3.27965 21.1071 4.21488 21.8169 6.5791L21.8853 6.84473C22.1708 8.16098 21.6326 9.41576 20.5513 10.3057C20.9111 11.0634 20.3767 11.9281 19.4595 11.9023C19.4523 12.5594 18.9173 13.0367 18.2134 13.0381C18.2224 13.0778 18.222 13.1191 18.2173 13.1582L18.1831 13.3223C18.058 13.8546 17.5649 14.1629 16.9966 14.1699C17.0146 14.912 16.2704 15.4809 15.4771 15.2578V15.2568C15.4301 15.2436 15.3668 15.2123 15.313 15.1865C15.2849 15.1731 15.2586 15.1611 15.2358 15.1523C15.2119 15.1431 15.1958 15.1396 15.188 15.1396H15.187C15.1862 15.1398 15.1853 15.1404 15.1841 15.1406C15.181 15.1413 15.1764 15.1419 15.1714 15.1436C15.1613 15.1469 15.1491 15.1526 15.1343 15.1592C15.1043 15.1725 15.0677 15.1906 15.0278 15.21C14.9896 15.2285 14.9474 15.2489 14.9058 15.2656L14.7856 15.3008C14.3636 15.3609 14.0022 15.2746 13.7427 15.0723C13.491 14.876 13.3398 14.5734 13.3198 14.2012C12.9863 14.2132 12.6696 14.0856 12.4438 13.876C12.2194 13.6675 12.0835 13.3777 12.1128 13.0654C11.4151 13.0609 10.8522 12.6012 10.8833 11.9316C10.1512 11.9581 9.57919 11.3972 9.65283 10.7129L9.68311 10.5957C9.69832 10.5517 9.71762 10.5036 9.73584 10.459C9.75433 10.4137 9.77187 10.3728 9.78467 10.3408C9.79098 10.325 9.79528 10.3119 9.79834 10.3027V10.3018C9.79629 10.2993 9.79352 10.2962 9.79053 10.293C9.77926 10.2807 9.76265 10.2643 9.74268 10.2451C9.70258 10.2066 9.64916 10.1576 9.59326 10.1074L9.32373 9.8623C7.91632 8.36999 8.16301 6.53474 9.22705 5.3125ZM15.1401 13.1016H15.1392L15.062 13.1182L14.98 13.1455C14.9429 13.1586 14.8761 13.2003 14.7915 13.2637C14.7083 13.326 14.6117 13.4057 14.5161 13.4883C14.3245 13.6537 14.1406 13.8293 14.0776 13.9043H14.0767C13.9681 14.0337 13.9328 14.1682 13.9458 14.2891C13.9589 14.4104 14.0213 14.5223 14.1157 14.6064C14.3048 14.7747 14.6177 14.8291 14.897 14.624L15.0513 14.4893C15.1253 14.4217 15.2162 14.3366 15.3062 14.251C15.3954 14.166 15.4827 14.0808 15.5503 14.0127C15.5841 13.9786 15.6129 13.949 15.6343 13.9258C15.6569 13.9011 15.6688 13.8865 15.6714 13.8818L15.7036 13.8135C15.8411 13.4638 15.561 13.0636 15.1401 13.1016ZM16.3032 13.96C16.2382 14.1131 16.14 14.244 16.0278 14.3633C15.9635 14.4316 15.895 14.4979 15.8276 14.5625C15.7767 14.6114 15.7265 14.6598 15.6782 14.709C15.936 14.7622 16.1544 14.6736 16.2769 14.5225C16.3975 14.3735 16.4263 14.1633 16.3032 13.96ZM13.8472 11.9678H13.8462L13.7837 11.9844L13.7192 12.0098C13.701 12.0174 13.6728 12.0338 13.6362 12.0596C13.6003 12.0849 13.5578 12.1182 13.5112 12.1562C13.4182 12.2323 13.3099 12.3292 13.2046 12.4287C13.0992 12.5283 12.997 12.6303 12.9175 12.7178C12.8777 12.7615 12.8437 12.8014 12.8179 12.835L12.769 12.9111C12.6726 13.146 12.755 13.369 12.9204 13.5039C13.0863 13.6391 13.3344 13.684 13.5649 13.5596L13.6265 13.5137C13.6567 13.489 13.6949 13.4568 13.7378 13.4189C13.8235 13.3433 13.9283 13.2465 14.0317 13.1484C14.1352 13.0504 14.2371 12.9507 14.3159 12.8701C14.3554 12.8298 14.3894 12.7938 14.4146 12.7656C14.4404 12.7366 14.4544 12.7185 14.4585 12.7109L14.4907 12.6377C14.5494 12.4682 14.5037 12.298 14.396 12.1699C14.2723 12.0231 14.0677 11.9336 13.8472 11.9678ZM14.2886 5.27148C12.9502 4.21813 10.9286 4.35881 9.78271 5.56055L9.67529 5.68066C8.5605 6.98221 8.83498 8.81487 10.2026 9.85938C10.3639 9.74573 10.4869 9.61451 10.6274 9.48926C10.7729 9.35967 10.9338 9.24308 11.1655 9.18359L11.3179 9.15234C12.0585 9.04498 12.6747 9.56412 12.6831 10.2676C13.0178 10.2479 13.3358 10.3763 13.562 10.5879C13.7865 10.7979 13.9206 11.0908 13.8892 11.4023C14.5731 11.3703 15.161 11.8964 15.1187 12.5391C15.3208 12.5419 15.5721 12.5752 15.7534 12.6602L15.8501 12.7148C15.9461 12.7777 16.0403 12.8633 16.1333 12.9551C16.2592 13.0793 16.383 13.2146 16.5142 13.3311C16.6446 13.4469 16.7773 13.5397 16.9165 13.5801C17.0539 13.6199 17.201 13.6098 17.3628 13.5137L17.4233 13.4727C17.5539 13.3722 17.6078 13.2393 17.606 13.1025C17.6037 12.9444 17.5261 12.7765 17.395 12.6445V12.6455C17.1404 12.3894 16.8405 12.1388 16.5415 11.8857C16.3178 11.6963 16.0947 11.5051 15.8931 11.3096L15.6997 11.1123C15.5503 10.9513 15.5043 10.7782 15.5757 10.6631C15.6398 10.5601 15.7801 10.5298 15.9575 10.584L16.0356 10.6123L16.0474 10.6172L16.021 10.6465L16.0464 10.6191L17.9585 12.3701C18.2276 12.5156 18.4976 12.4691 18.6665 12.3252C18.8348 12.1817 18.9052 11.9395 18.771 11.6797L16.8276 9.87793L16.8218 9.87207V9.87109C16.7725 9.79833 16.7553 9.72372 16.7642 9.65527C16.7731 9.58676 16.8081 9.52714 16.8589 9.48438C16.9482 9.40928 17.0847 9.38587 17.2173 9.44824L17.2739 9.48047L17.2788 9.4834H17.2778L19.1646 11.2246L19.2856 11.2793C19.5644 11.3787 19.8153 11.2902 19.9536 11.126C20.0329 11.0316 20.0761 10.9115 20.0669 10.7861C20.0576 10.6611 19.9957 10.5266 19.8618 10.4033V10.4023L16.4155 7.23633C16.1609 7.44543 15.9167 7.66702 15.6743 7.8916L14.9214 8.58887C14.732 8.75893 14.6291 8.8962 14.3774 8.9873L14.2593 9.02344C13.6964 9.16976 13.2048 8.94001 12.9448 8.57129C12.6847 8.20222 12.6569 7.6927 13.02 7.28711L13.1997 7.09863C13.3884 6.91219 13.5999 6.73189 13.811 6.55273C14.0934 6.31314 14.3759 6.07589 14.6079 5.82715L14.6724 5.74805C14.6884 5.72758 14.7061 5.70692 14.7251 5.68652C14.7157 5.67479 14.7017 5.65926 14.6841 5.64062C14.6472 5.60161 14.5959 5.55176 14.5425 5.50098L14.2886 5.27148ZM12.6753 10.8506L12.5835 10.8604C12.5594 10.8641 12.5353 10.8716 12.5112 10.8809L12.438 10.9131C12.4002 10.9302 12.3283 10.9824 12.2378 11.0586C12.1486 11.1336 12.0445 11.2287 11.9438 11.3262C11.8433 11.4235 11.7463 11.5232 11.6704 11.6084C11.6324 11.651 11.5995 11.69 11.5747 11.7227L11.5278 11.7959C11.4433 11.9985 11.4956 12.1845 11.6245 12.3125C11.7545 12.4414 11.9641 12.513 12.1929 12.4795L12.2319 12.4678C12.2475 12.4616 12.266 12.4536 12.2866 12.4424C12.327 12.4203 12.3739 12.3894 12.4253 12.3525C12.528 12.2789 12.646 12.1811 12.7603 12.0781C12.8744 11.9751 12.9846 11.8674 13.0708 11.7734C13.1138 11.7266 13.1507 11.6835 13.1792 11.6465C13.2082 11.6087 13.2264 11.5784 13.2349 11.5586L13.2642 11.4795C13.3167 11.2959 13.271 11.1344 13.1646 11.0215C13.0573 10.9077 12.884 10.8395 12.6753 10.8506ZM11.4224 9.69531L11.4126 9.69727C11.3767 9.70268 11.333 9.71681 11.2905 9.73535L11.1743 9.79785C11.1518 9.8128 11.0913 9.86466 11.0093 9.9375C10.9283 10.0094 10.8283 10.0994 10.731 10.1904C10.6336 10.2814 10.5381 10.3729 10.4644 10.4463C10.4276 10.4828 10.3968 10.515 10.3735 10.54L10.3335 10.5879C10.2021 10.8216 10.2648 11.0575 10.4272 11.2021C10.5901 11.347 10.8555 11.4018 11.1304 11.2598L11.2134 11.2051C11.2475 11.1802 11.2877 11.1494 11.3315 11.1133C11.4185 11.0416 11.5189 10.9527 11.6157 10.8613C11.7126 10.7699 11.806 10.6758 11.8794 10.5947C11.916 10.5543 11.9478 10.5172 11.9722 10.4854C11.9969 10.453 12.0127 10.4272 12.02 10.4102L12.0435 10.3418C12.1327 10.0002 11.8177 9.64312 11.4224 9.69531ZM9.80322 10.3086L9.8042 10.3096L9.80322 10.3076L9.80225 10.3066L9.80322 10.3086ZM17.7896 4.58984L17.7573 4.59277C16.7527 4.67876 16.0926 5.22304 15.4556 5.83203L14.814 6.44824C14.6108 6.6363 14.3854 6.82657 14.1646 7.01758C14.0539 7.11332 13.9442 7.20942 13.8384 7.30566L13.5356 7.59473C13.3111 7.82361 13.3331 8.09694 13.478 8.2832C13.6239 8.47062 13.8943 8.5696 14.1724 8.44336H14.1733L14.2476 8.40332C14.3195 8.35818 14.3858 8.29886 14.4497 8.23438C14.5328 8.1505 14.6167 8.05299 14.6997 7.97852L15.4487 7.30762C15.6965 7.083 15.9408 6.85519 16.1782 6.61914L16.1821 6.61621L16.2349 6.58398C16.2907 6.5567 16.355 6.54415 16.4175 6.5459C16.5005 6.5483 16.5847 6.57583 16.646 6.63184H16.647L20.1245 9.83691L20.1675 9.85938C20.4079 9.63231 20.6505 9.42297 20.8345 9.1582L20.9634 8.95703C21.5599 7.94364 21.446 6.83749 20.8716 5.99023C20.2633 5.09322 19.1376 4.48573 17.7896 4.58984Z" fill="#1F1F1F" stroke="#1F1F1F" stroke-width="0.0752126"/>
</svg>
