<svg width="393" height="362" viewBox="0 0 393 362" fill="none" xmlns="http://www.w3.org/2000/svg">
<g filter="url(#filter0_dd_47_594)">
<rect width="392.254" height="351.46" transform="translate(0.745605 10.77)" fill="#D1D5DB" fill-opacity="0.9"/>
<path d="M65.3312 43.4433V30.9141H66.8941V43.4433H65.3312Z" fill="black"/>
<line opacity="0.1" x1="132.02" y1="24.3682" x2="132.02" y2="50.5185" stroke="black" stroke-width="1.04601"/>
<path d="M185.759 43.4433V30.9141H187.322V43.4433H185.759ZM190.291 35.8286L191.047 30.9141H192.775L191.411 35.8286H190.291ZM195.518 43.4433V34.092H197.029V35.516H197.168C197.376 35.0124 197.695 34.6217 198.123 34.3438C198.557 34.066 199.081 33.927 199.695 33.927C200.117 33.927 200.496 33.9965 200.832 34.1354C201.168 34.2743 201.457 34.4683 201.7 34.7172C201.944 34.9603 202.135 35.2468 202.273 35.5768H202.412C202.58 35.241 202.806 34.9516 203.09 34.7085C203.373 34.4596 203.7 34.2686 204.071 34.1354C204.447 33.9965 204.849 33.927 205.278 33.927C205.914 33.927 206.453 34.0457 206.893 34.283C207.338 34.5204 207.677 34.8677 207.909 35.325C208.14 35.7765 208.256 36.3293 208.256 36.9834V43.4433H206.745V37.3307C206.745 36.8676 206.673 36.4855 206.528 36.1845C206.389 35.8778 206.175 35.6491 205.885 35.4986C205.596 35.3423 205.231 35.2642 204.791 35.2642C204.357 35.2642 203.978 35.3626 203.654 35.5594C203.33 35.7562 203.078 36.0196 202.899 36.3495C202.725 36.6737 202.638 37.0355 202.638 37.4349V43.4433H201.127V37.0962C201.127 36.7258 201.046 36.4045 200.884 36.1325C200.728 35.8546 200.502 35.6404 200.207 35.4899C199.918 35.3394 199.576 35.2642 199.182 35.2642C198.777 35.2642 198.41 35.3713 198.08 35.5854C197.756 35.7996 197.498 36.089 197.307 36.4537C197.122 36.8126 197.029 37.212 197.029 37.6519V43.4433H195.518Z" fill="black"/>
<line opacity="0.1" x1="262.772" y1="24.3682" x2="262.772" y2="50.5185" stroke="black" stroke-width="1.04601"/>
<path d="M319.054 43.4433L316.441 34.092H317.952L319.784 41.5765H319.923L322.015 34.092H323.448L325.54 41.5765H325.671L327.511 34.092H329.014L326.4 43.4433H324.872L322.788 36.2106H322.649L320.565 43.4433H319.054ZM334.475 43.6083C333.584 43.6083 332.817 43.4115 332.174 43.0178C331.537 42.6242 331.045 42.0685 330.698 41.3508C330.356 40.6272 330.186 39.7792 330.186 38.8067V38.798C330.186 37.8314 330.356 36.9834 330.698 36.254C331.045 35.5247 331.534 34.9545 332.165 34.5435C332.796 34.1325 333.534 33.927 334.379 33.927C335.23 33.927 335.96 34.1238 336.567 34.5175C337.175 34.9111 337.641 35.461 337.965 36.1672C338.295 36.8676 338.46 37.6838 338.46 38.6157V39.2061H330.967V37.9992H337.688L336.941 39.1019V38.5028C336.941 37.7677 336.831 37.1628 336.611 36.6881C336.391 36.2135 336.087 35.8604 335.699 35.6289C335.317 35.3915 334.874 35.2729 334.371 35.2729C333.867 35.2729 333.416 35.3973 333.016 35.6462C332.623 35.8893 332.31 36.2511 332.079 36.7316C331.847 37.212 331.731 37.8024 331.731 38.5028V39.1019C331.731 39.7618 331.844 40.3291 332.07 40.8038C332.296 41.2726 332.617 41.6344 333.034 41.8891C333.45 42.138 333.942 42.2624 334.51 42.2624C334.932 42.2624 335.297 42.2046 335.604 42.0888C335.916 41.973 336.174 41.8254 336.376 41.646C336.579 41.4665 336.721 41.2813 336.802 41.0903L336.837 41.0121H338.347L338.33 41.0816C338.249 41.4058 338.104 41.7183 337.896 42.0193C337.693 42.3145 337.43 42.5837 337.106 42.8268C336.782 43.0642 336.397 43.2552 335.951 43.3999C335.511 43.5388 335.019 43.6083 334.475 43.6083Z" fill="black"/>
<g filter="url(#filter1_d_47_594)">
<rect x="3.88367" y="66.2087" width="32.9494" height="43.9325" rx="5.23006" fill="white"/>
<path d="M24.3228 100.759H26.5445V82.398H24.3228V84.6964H24.1696C23.2885 83.1258 21.6669 82.1554 19.8154 82.1554C16.304 82.1554 14.0312 84.9517 14.0312 89.2676V89.2931C14.0312 93.5834 16.3168 96.4053 19.8154 96.4053C21.7818 96.4053 23.3651 95.5498 24.1185 94.0941H24.3228V100.759ZM20.3389 94.4389C17.8107 94.4389 16.304 92.498 16.304 89.2931V89.2676C16.304 86.0626 17.8107 84.1218 20.3262 84.1218C22.8161 84.1218 24.3866 86.1009 24.3866 89.2676V89.2931C24.3866 92.447 22.8161 94.4389 20.3389 94.4389Z" fill="black"/>
</g>
<g filter="url(#filter2_d_47_594)">
<rect x="43.1091" y="66.2087" width="32.9494" height="43.9325" rx="5.23006" fill="white"/>
<path d="M54.4442 96.1627H56.6659L59.7304 85.5136H59.9347L63.012 96.1627H65.2465L69.1026 82.398H66.8936L64.1867 93.4046H63.9824L60.9051 82.398H58.7983L55.721 93.4046H55.5167L52.8098 82.398H50.588L54.4442 96.1627Z" fill="black"/>
</g>
<g filter="url(#filter3_d_47_594)">
<rect x="82.3345" y="66.2087" width="32.9494" height="43.9325" rx="5.23006" fill="white"/>
<path d="M99.2879 96.4053C102.531 96.4053 104.497 94.5666 104.97 92.7023L104.995 92.6002H102.774L102.723 92.7151C102.352 93.5451 101.203 94.4261 99.3389 94.4261C96.8873 94.4261 95.3168 92.7662 95.2529 89.9188H105.161V89.0505C105.161 84.939 102.889 82.1554 99.1474 82.1554C95.4062 82.1554 92.9801 85.0667 92.9801 89.3186V89.3314C92.9801 93.6472 95.3551 96.4053 99.2879 96.4053ZM99.1346 84.1345C101.165 84.1345 102.672 85.4242 102.901 88.1439H95.2913C95.5339 85.5263 97.0916 84.1345 99.1346 84.1345Z" fill="black"/>
</g>
<g filter="url(#filter4_d_47_594)">
<rect x="121.56" y="66.2087" width="32.9494" height="43.9325" rx="5.23006" fill="white"/>
<path d="M135.385 96.1627H137.607V87.6332C137.607 85.6157 139.113 84.275 141.233 84.275C141.718 84.275 142.14 84.3261 142.599 84.4027V82.2448C142.382 82.2065 141.91 82.1554 141.488 82.1554C139.624 82.1554 138.335 82.9981 137.811 84.441H137.607V82.398H135.385V96.1627Z" fill="black"/>
</g>
<g filter="url(#filter5_d_47_594)">
<rect x="160.785" y="66.2087" width="32.9494" height="43.9325" rx="5.23006" fill="white"/>
<path d="M179.731 96.2648C180.165 96.2648 180.586 96.2137 181.02 96.1371V94.2474C180.612 94.2857 180.395 94.2984 179.999 94.2984C178.569 94.2984 178.007 93.6472 178.007 92.0256V84.2367H181.02V82.398H178.007V78.8355H175.708V82.398H173.538V84.2367H175.708V92.5874C175.708 95.2178 176.896 96.2648 179.731 96.2648Z" fill="black"/>
</g>
<g filter="url(#filter6_d_47_594)">
<rect x="200.011" y="66.2087" width="32.9494" height="43.9325" rx="5.23006" fill="white"/>
<path d="M212.891 100.989C215.33 100.989 216.466 100.095 217.603 97.0054L222.978 82.398H220.642L216.875 93.7238H216.671L212.891 82.398H210.516L215.611 96.1754L215.355 96.9926C214.857 98.5759 214.091 99.1505 212.827 99.1505C212.521 99.1505 212.176 99.1378 211.908 99.0867V100.913C212.214 100.964 212.597 100.989 212.891 100.989Z" fill="black"/>
</g>
<g filter="url(#filter7_d_47_594)">
<rect x="239.236" y="66.2087" width="32.9494" height="43.9325" rx="5.23006" fill="white"/>
<path d="M255.015 96.4053C257.032 96.4053 258.424 95.5753 259.101 94.1069H259.305V96.1627H261.527V82.398H259.305V90.5444C259.305 92.9577 258.016 94.4389 255.589 94.4389C253.393 94.4389 252.499 93.2514 252.499 90.7743V82.398H250.278V91.3106C250.278 94.5666 251.887 96.4053 255.015 96.4053Z" fill="black"/>
</g>
<g filter="url(#filter8_d_47_594)">
<rect x="278.462" y="66.2087" width="32.9494" height="43.9325" rx="5.23006" fill="white"/>
<path d="M295.211 79.7421C296.053 79.7421 296.743 79.0526 296.743 78.2099C296.743 77.3671 296.053 76.6776 295.211 76.6776C294.368 76.6776 293.678 77.3671 293.678 78.2099C293.678 79.0526 294.368 79.7421 295.211 79.7421ZM294.087 96.1627H296.309V82.398H294.087V96.1627Z" fill="black"/>
</g>
<g filter="url(#filter9_d_47_594)">
<rect x="317.687" y="66.2087" width="32.9494" height="43.9325" rx="5.23006" fill="white"/>
<path d="M334.423 96.4053C338.343 96.4053 340.769 93.6983 340.769 89.2931V89.2676C340.769 84.8496 338.343 82.1554 334.423 82.1554C330.503 82.1554 328.077 84.8496 328.077 89.2676V89.2931C328.077 93.6983 330.503 96.4053 334.423 96.4053ZM334.423 94.4389C331.819 94.4389 330.35 92.5363 330.35 89.2931V89.2676C330.35 86.0115 331.819 84.1218 334.423 84.1218C337.028 84.1218 338.497 86.0115 338.497 89.2676V89.2931C338.497 92.5363 337.028 94.4389 334.423 94.4389Z" fill="black"/>
</g>
<g filter="url(#filter10_d_47_594)">
<rect x="356.913" y="66.2087" width="32.9494" height="43.9325" rx="5.23006" fill="white"/>
<path d="M367.737 100.759H369.959V93.992H370.163C370.916 95.4604 372.563 96.4053 374.453 96.4053C377.952 96.4053 380.225 93.6089 380.225 89.2931V89.2676C380.225 84.9773 377.939 82.1554 374.453 82.1554C372.538 82.1554 371.006 83.062 370.163 84.5942H369.959V82.398H367.737V100.759ZM373.942 94.4389C371.44 94.4389 369.908 92.4725 369.908 89.2931V89.2676C369.908 86.0882 371.44 84.1218 373.942 84.1218C376.458 84.1218 377.952 86.0626 377.952 89.2676V89.2931C377.952 92.498 376.458 94.4389 373.942 94.4389Z" fill="black"/>
</g>
<g filter="url(#filter11_d_47_594)">
<rect x="23.4963" y="122.693" width="32.9494" height="43.9325" rx="5.23006" fill="white"/>
<path d="M38.8663 152.89C40.7177 152.89 42.1606 152.085 43.0289 150.617H43.2332V152.647H45.4549V143.224C45.4549 140.364 43.5779 138.64 40.2198 138.64C37.283 138.64 35.1889 140.096 34.8314 142.254L34.8186 142.33H37.0404L37.0531 142.292C37.4106 141.219 38.496 140.606 40.1431 140.606C42.1989 140.606 43.2332 141.526 43.2332 143.224V144.475L39.2876 144.718C36.0827 144.909 34.2695 146.327 34.2695 148.778V148.804C34.2695 151.307 36.2487 152.89 38.8663 152.89ZM36.5424 148.753V148.727C36.5424 147.361 37.4617 146.62 39.5558 146.493L43.2332 146.263V147.514C43.2332 149.481 41.586 150.962 39.326 150.962C37.7299 150.962 36.5424 150.145 36.5424 148.753Z" fill="black"/>
</g>
<g filter="url(#filter12_d_47_594)">
<rect x="62.7218" y="122.693" width="32.9494" height="43.9325" rx="5.23006" fill="white"/>
<path d="M79.4069 152.89C82.5352 152.89 84.923 151.192 84.923 148.74V148.715C84.923 146.748 83.6717 145.624 81.0796 144.999L78.96 144.488C77.3384 144.092 76.6489 143.505 76.6489 142.573V142.547C76.6489 141.334 77.8491 140.491 79.4835 140.491C81.1435 140.491 82.216 141.245 82.5097 142.33H84.6932C84.3867 140.083 82.382 138.64 79.4963 138.64C76.5723 138.64 74.376 140.364 74.376 142.649V142.662C74.376 144.641 75.538 145.765 78.1173 146.378L80.2497 146.889C81.9479 147.297 82.6502 147.948 82.6502 148.881V148.906C82.6502 150.157 81.335 151.038 79.4835 151.038C77.7214 151.038 76.6233 150.285 76.253 149.136H73.9802C74.2356 151.409 76.3424 152.89 79.4069 152.89Z" fill="black"/>
</g>
<g filter="url(#filter13_d_47_594)">
<rect x="101.947" y="122.693" width="32.9494" height="43.9325" rx="5.23006" fill="white"/>
<path d="M117.802 152.89C119.718 152.89 121.25 151.983 122.093 150.451H122.297V152.647H124.519V133.418H122.297V141.053H122.093C121.339 139.585 119.692 138.64 117.802 138.64C114.304 138.64 112.031 141.436 112.031 145.752V145.778C112.031 150.068 114.317 152.89 117.802 152.89ZM118.313 150.924C115.798 150.924 114.304 148.983 114.304 145.778V145.752C114.304 142.547 115.798 140.606 118.313 140.606C120.816 140.606 122.348 142.573 122.348 145.752V145.778C122.348 148.957 120.816 150.924 118.313 150.924Z" fill="black"/>
</g>
<g filter="url(#filter14_d_47_594)">
<rect x="141.173" y="122.693" width="32.9494" height="43.9325" rx="5.23006" fill="white"/>
<path d="M156.159 152.647H158.381V140.721H161.51V138.883H158.381V137.414C158.381 135.908 159.02 135.129 160.603 135.129C160.999 135.129 161.369 135.141 161.637 135.192V133.418C161.178 133.328 160.692 133.29 160.156 133.29C157.539 133.29 156.159 134.605 156.159 137.35V138.883H153.874V140.721H156.159V152.647Z" fill="black"/>
</g>
<g filter="url(#filter15_d_47_594)">
<rect x="180.398" y="122.693" width="32.9494" height="43.9325" rx="5.23006" fill="white"/>
<path d="M196.905 157.499C200.659 157.499 203.034 155.533 203.034 152.456V138.883H200.812V141.155H200.659C199.816 139.598 198.309 138.64 196.368 138.64C192.767 138.64 190.546 141.436 190.546 145.293V145.318C190.546 149.174 192.755 151.932 196.317 151.932C198.207 151.932 199.765 151.077 200.633 149.557H200.837V152.341C200.837 154.371 199.369 155.533 196.905 155.533C194.925 155.533 193.7 154.792 193.457 153.745L193.444 153.733H191.146L191.12 153.745C191.465 156.005 193.585 157.499 196.905 157.499ZM196.802 149.966C194.249 149.966 192.819 148.051 192.819 145.318V145.293C192.819 142.56 194.249 140.606 196.802 140.606C199.343 140.606 200.888 142.56 200.888 145.293V145.318C200.888 148.051 199.356 149.966 196.802 149.966Z" fill="black"/>
</g>
<g filter="url(#filter16_d_47_594)">
<rect x="219.624" y="122.693" width="32.9494" height="43.9325" rx="5.23006" fill="white"/>
<path d="M230.856 152.647H233.078V144.501C233.078 142.088 234.47 140.606 236.666 140.606C238.862 140.606 239.884 141.794 239.884 144.271V152.647H242.106V143.735C242.106 140.466 240.382 138.64 237.292 138.64C235.262 138.64 233.972 139.496 233.282 140.951H233.078V133.418H230.856V152.647Z" fill="black"/>
</g>
<g filter="url(#filter17_d_47_594)">
<rect x="258.849" y="122.693" width="32.9494" height="43.9325" rx="5.23006" fill="white"/>
<path d="M275.573 136.227C276.415 136.227 277.105 135.537 277.105 134.694C277.105 133.852 276.415 133.162 275.573 133.162C274.73 133.162 274.04 133.852 274.04 134.694C274.04 135.537 274.73 136.227 275.573 136.227ZM272.457 157.372C275.343 157.372 276.683 156.159 276.683 153.324V138.883H274.462V153.362C274.462 154.882 273.9 155.405 272.406 155.405H272.074V157.372H272.457Z" fill="black"/>
</g>
<g filter="url(#filter18_d_47_594)">
<rect x="298.074" y="122.693" width="32.9494" height="43.9325" rx="5.23006" fill="white"/>
<path d="M309.907 152.647H312.129V147.425L313.419 146.174L318.577 152.647H321.374L314.977 144.667L320.978 138.883H318.284L312.334 144.897H312.129V133.418H309.907V152.647Z" fill="black"/>
</g>
<g filter="url(#filter19_d_47_594)">
<rect x="337.3" y="122.693" width="32.9494" height="43.9325" rx="5.23006" fill="white"/>
<path d="M352.925 152.647H355.147V133.418H352.925V152.647Z" fill="black"/>
</g>
<g filter="url(#filter20_d_47_594)">
<rect x="3.88367" y="179.178" width="43.9325" height="43.9325" rx="5.23006" fill="#ADB3BC"/>
<path fill-rule="evenodd" clip-rule="evenodd" d="M22.5866 201.906V208.074H29.1124V201.906H33.4187L25.8498 194.618L18.2811 201.906H22.5866ZM25.4547 192.932C25.671 192.724 26.0288 192.724 26.2449 192.932L36.1537 202.474C36.4921 202.799 36.2448 203.345 35.7586 203.345H30.6532V208.999C30.6532 209.282 30.4068 209.512 30.1029 209.512H21.5961C21.2922 209.512 21.0458 209.282 21.0458 208.999V203.345H15.9411C15.455 203.345 15.2077 202.799 15.5461 202.474L25.4547 192.932Z" fill="black"/>
</g>
<g filter="url(#filter21_d_47_594)">
<rect x="62.7218" y="179.178" width="32.9494" height="43.9325" rx="5.23006" fill="white"/>
<path d="M74.159 209.132H84.757V207.293H76.8149V207.089L84.7187 197.014V195.367H74.1718V197.206H82.1011V197.41L74.159 207.523V209.132Z" fill="black"/>
</g>
<g filter="url(#filter22_d_47_594)">
<rect x="101.947" y="179.178" width="32.9494" height="43.9325" rx="5.23006" fill="white"/>
<path d="M112.797 209.132H115.287L118.556 203.935H118.76L122.016 209.132H124.621L119.884 202.16L124.557 195.367H122.067L118.837 200.488H118.632L115.364 195.367H112.746L117.509 202.25L112.797 209.132Z" fill="black"/>
</g>
<g filter="url(#filter23_d_47_594)">
<rect x="141.173" y="179.178" width="32.9494" height="43.9325" rx="5.23006" fill="white"/>
<path d="M158.292 209.375C161.599 209.375 163.45 207.6 164.012 205.11L164.038 204.969L161.842 204.982L161.816 205.059C161.305 206.591 160.131 207.408 158.279 207.408C155.828 207.408 154.244 205.378 154.244 202.211V202.186C154.244 199.083 155.802 197.091 158.279 197.091C160.258 197.091 161.484 198.189 161.829 199.543L161.842 199.581H164.051L164.038 199.504C163.629 197.053 161.624 195.125 158.279 195.125C154.423 195.125 151.971 197.908 151.971 202.186V202.211C151.971 206.578 154.436 209.375 158.292 209.375Z" fill="black"/>
</g>
<g filter="url(#filter24_d_47_594)">
<rect x="180.398" y="179.178" width="32.9494" height="43.9325" rx="5.23006" fill="white"/>
<path d="M196.011 209.132H198.258L203.353 195.367H201.003L197.237 206.706H197.032L193.265 195.367H190.916L196.011 209.132Z" fill="black"/>
</g>
<g filter="url(#filter25_d_47_594)">
<rect x="219.624" y="179.178" width="32.9494" height="43.9325" rx="5.23006" fill="white"/>
<path d="M237.241 209.375C240.727 209.375 243.012 206.553 243.012 202.262V202.237C243.012 197.921 240.739 195.125 237.241 195.125C235.351 195.125 233.704 196.07 232.95 197.538H232.746V189.902H230.524V209.132H232.746V206.936H232.95C233.793 208.468 235.325 209.375 237.241 209.375ZM236.73 207.408C234.227 207.408 232.695 205.442 232.695 202.262V202.237C232.695 199.057 234.227 197.091 236.73 197.091C239.245 197.091 240.739 199.032 240.739 202.237V202.262C240.739 205.467 239.245 207.408 236.73 207.408Z" fill="black"/>
</g>
<g filter="url(#filter26_d_47_594)">
<rect x="258.849" y="179.178" width="32.9494" height="43.9325" rx="5.23006" fill="white"/>
<path d="M270.018 209.132H272.24V200.985C272.24 198.572 273.632 197.091 275.828 197.091C278.024 197.091 279.046 198.279 279.046 200.756V209.132H281.267V200.219C281.267 196.951 279.544 195.125 276.454 195.125C274.423 195.125 273.134 195.98 272.444 197.436H272.24V195.367H270.018V209.132Z" fill="black"/>
</g>
<g filter="url(#filter27_d_47_594)">
<rect x="298.074" y="179.178" width="32.9494" height="43.9325" rx="5.23006" fill="white"/>
<path d="M305.502 209.132H307.724V200.602C307.724 198.662 309.09 197.091 310.891 197.091C312.627 197.091 313.751 198.151 313.751 199.785V209.132H315.973V200.283C315.973 198.534 317.237 197.091 319.152 197.091C321.093 197.091 322.025 198.1 322.025 200.13V209.132H324.247V199.619C324.247 196.734 322.676 195.125 319.867 195.125C317.965 195.125 316.394 196.082 315.653 197.538H315.449C314.811 196.108 313.508 195.125 311.644 195.125C309.844 195.125 308.541 195.98 307.928 197.461H307.724V195.367H305.502V209.132Z" fill="black"/>
</g>
<g filter="url(#filter28_d_47_594)">
<rect x="345.929" y="179.178" width="43.9325" height="43.9325" rx="5.23006" fill="#ADB3BC"/>
<path d="M374.431 191.733C374.682 191.733 374.797 191.734 374.925 191.74C375.314 191.745 375.701 191.778 376.096 191.842C376.508 191.916 376.907 192.051 377.284 192.243C377.665 192.44 378.012 192.697 378.311 193.003C378.611 193.307 378.861 193.658 379.058 194.048C379.245 194.43 379.377 194.838 379.451 195.268C379.513 195.657 379.546 196.051 379.55 196.426C379.553 196.506 379.554 196.585 379.556 196.691C379.557 196.733 379.557 196.734 379.558 196.775C379.559 196.856 379.559 196.893 379.56 196.95V204.263C379.559 204.308 379.559 204.344 379.558 204.426C379.556 204.6 379.554 204.679 379.55 204.761C379.546 205.16 379.512 205.558 379.448 205.955C379.376 206.379 379.244 206.79 379.051 207.182C378.856 207.568 378.603 207.921 378.302 208.228C378 208.537 377.65 208.795 377.268 208.993C376.888 209.189 376.482 209.325 376.059 209.398C375.673 209.463 375.283 209.498 374.894 209.505C374.822 209.507 374.766 209.508 374.642 209.509C374.521 209.511 374.468 209.511 374.389 209.512H366.749C366.685 209.511 366.631 209.511 366.512 209.509C366.389 209.508 366.333 209.507 366.267 209.505C365.879 209.5 365.492 209.465 365.101 209.4C364.687 209.326 364.286 209.193 363.901 208.998C363.525 208.8 363.181 208.543 362.882 208.239C362.868 208.224 362.846 208.202 362.81 208.163C362.803 208.155 362.779 208.131 362.764 208.116C362.62 207.975 362.556 207.911 362.477 207.831C362.443 207.796 359.935 205.249 359.903 205.217C359.843 205.16 359.783 205.099 359.726 205.038C359.672 204.986 359.626 204.939 359.532 204.843L357.52 202.796L357.328 202.602C357.276 202.549 357.239 202.508 357.174 202.438C357.004 202.268 356.843 202.088 356.692 201.9C356.551 201.748 356.438 201.57 356.358 201.378L356.338 201.325C356.193 200.868 356.192 200.375 356.356 199.869C356.435 199.674 356.549 199.495 356.692 199.342C356.843 199.153 357.004 198.973 357.157 198.823C357.239 198.734 357.276 198.693 357.328 198.64C357.422 198.546 357.462 198.504 357.52 198.443L359.727 196.201C359.767 196.16 359.786 196.141 359.81 196.117C359.843 196.084 359.874 196.054 359.889 196.04C359.909 196.019 359.929 196 359.949 195.985L362.147 193.748L362.477 193.412C362.556 193.331 362.62 193.268 362.764 193.127C362.766 193.124 362.802 193.088 362.811 193.079C362.846 193.041 362.868 193.018 362.882 193.004C363.181 192.699 363.525 192.443 363.91 192.24C364.286 192.05 364.687 191.916 365.111 191.84C365.494 191.778 365.881 191.745 366.25 191.741C366.397 191.735 366.511 191.733 366.751 191.733C366.918 191.73 367.05 191.73 367.342 191.73H374.144C374.252 191.731 374.349 191.732 374.431 191.733ZM366.762 193.05C366.528 193.05 366.425 193.052 366.284 193.057C365.959 193.061 365.636 193.089 365.326 193.139C365.035 193.191 364.753 193.286 364.497 193.415C364.24 193.55 364.004 193.725 363.799 193.934C363.797 193.936 363.788 193.946 363.746 193.99C363.698 194.041 363.676 194.064 363.652 194.087C363.523 194.213 363.463 194.272 363.394 194.342L363.064 194.678L360.827 196.954C360.804 196.978 360.78 197 360.719 197.055C360.698 197.076 360.681 197.093 360.643 197.132L360.449 197.33L358.449 199.363C358.392 199.423 358.346 199.469 358.245 199.572C358.206 199.612 358.174 199.647 358.08 199.747C357.939 199.886 357.807 200.034 357.684 200.19L357.639 200.241C357.608 200.273 357.582 200.311 357.563 200.351C357.513 200.527 357.512 200.714 357.562 200.889C357.582 200.932 357.609 200.971 357.642 201.004L357.682 201.049C357.807 201.206 357.941 201.356 358.1 201.516C358.173 201.595 358.206 201.63 358.245 201.671L358.437 201.865L360.449 203.913C360.542 204.007 360.582 204.049 360.657 204.122C360.692 204.16 360.73 204.199 360.777 204.245C360.786 204.254 360.801 204.267 360.825 204.289L363.394 206.9C363.463 206.971 363.523 207.028 363.652 207.155C363.677 207.177 363.698 207.201 363.748 207.254C363.788 207.297 363.797 207.306 363.799 207.308C364.004 207.517 364.239 207.692 364.488 207.823C364.752 207.957 365.035 208.05 365.318 208.101C365.638 208.154 365.962 208.184 366.289 208.189L366.762 208.195H374.376C374.448 208.193 374.505 208.193 374.629 208.192C374.749 208.191 374.803 208.19 374.87 208.189C375.198 208.183 375.525 208.153 375.846 208.099C376.137 208.049 376.418 207.955 376.681 207.819C376.941 207.685 377.178 207.509 377.384 207.298C377.591 207.087 377.764 206.845 377.895 206.587C378.027 206.317 378.12 206.03 378.169 205.736C378.223 205.409 378.251 205.078 378.255 204.728C378.259 204.643 378.26 204.572 378.262 204.41C378.263 204.324 378.263 204.285 378.264 204.25V196.962C378.263 196.915 378.263 196.876 378.262 196.793C378.261 196.751 378.261 196.751 378.26 196.711C378.259 196.615 378.257 196.545 378.254 196.461C378.25 196.131 378.223 195.801 378.173 195.486C378.122 195.19 378.029 194.903 377.901 194.641C377.769 194.38 377.599 194.141 377.393 193.932C377.189 193.724 376.954 193.55 376.701 193.419C376.439 193.285 376.158 193.191 375.881 193.141C375.56 193.089 375.234 193.061 374.891 193.056C374.768 193.051 374.665 193.05 374.42 193.05C374.333 193.049 374.241 193.048 374.138 193.047H367.342C367.057 193.047 366.93 193.048 366.762 193.05ZM372.951 197.111C373.116 196.942 373.367 196.891 373.584 196.982C373.801 197.073 373.943 197.288 373.943 197.527C373.943 197.686 373.878 197.834 373.772 197.943L373.78 197.951L371.159 200.616L373.733 203.227C373.75 203.241 373.768 203.253 373.784 203.269C373.95 203.438 374 203.692 373.91 203.913C373.821 204.134 373.609 204.278 373.373 204.278C373.216 204.278 373.071 204.212 372.964 204.104L372.957 204.112L370.337 201.452L367.721 204.115L367.712 204.106C367.66 204.158 367.598 204.201 367.528 204.231C367.31 204.323 367.059 204.272 366.892 204.102C366.665 203.871 366.665 203.496 366.892 203.265C366.923 203.234 366.957 203.207 366.993 203.184L369.516 200.618L366.892 197.954L366.901 197.944C366.849 197.891 366.806 197.829 366.777 197.757C366.687 197.536 366.737 197.28 366.905 197.111C367.132 196.881 367.5 196.881 367.728 197.111C367.759 197.142 367.784 197.178 367.807 197.214L370.337 199.782L372.899 197.175C372.915 197.153 372.931 197.131 372.951 197.111Z" fill="black"/>
</g>
<path d="M45.146 333.877C47.0674 333.877 48.8739 333.51 50.5655 332.774C52.2663 332.039 53.7648 331.023 55.0611 329.727C56.3574 328.43 57.3733 326.936 58.1087 325.245C58.8442 323.544 59.212 321.733 59.212 319.811C59.212 317.89 58.8442 316.083 58.1087 314.392C57.3733 312.691 56.3574 311.193 55.0611 309.896C53.7648 308.6 52.2663 307.584 50.5655 306.849C48.8647 306.113 47.0536 305.745 45.1322 305.745C43.2107 305.745 41.3996 306.113 39.6988 306.849C38.0072 307.584 36.5133 308.6 35.217 309.896C33.9299 311.193 32.9186 312.691 32.1832 314.392C31.4477 316.083 31.08 317.89 31.08 319.811C31.08 321.733 31.4477 323.544 32.1832 325.245C32.9186 326.936 33.9345 328.43 35.2308 329.727C36.5271 331.023 38.021 332.039 39.7126 332.774C41.4134 333.51 43.2245 333.877 45.146 333.877ZM45.146 331.533C43.5187 331.533 41.9972 331.23 40.5814 330.623C39.1656 330.016 37.9199 329.18 36.8443 328.113C35.7778 327.037 34.9412 325.792 34.3344 324.376C33.7369 322.96 33.4381 321.439 33.4381 319.811C33.4381 318.184 33.7369 316.663 34.3344 315.247C34.9412 313.831 35.7778 312.585 36.8443 311.51C37.9107 310.434 39.1518 309.597 40.5676 309C41.9834 308.393 43.5049 308.09 45.1322 308.09C46.7594 308.09 48.2809 308.393 49.6967 309C51.1125 309.597 52.3582 310.434 53.4339 311.51C54.5095 312.585 55.3507 313.831 55.9575 315.247C56.5642 316.663 56.8676 318.184 56.8676 319.811C56.8676 321.439 56.5642 322.96 55.9575 324.376C55.3599 325.792 54.5233 327.037 53.4477 328.113C52.3812 329.18 51.1355 330.016 49.7105 330.623C48.2947 331.23 46.7732 331.533 45.146 331.533ZM45.1322 329.258C46.3181 329.258 47.4305 329.055 48.4694 328.651C49.5083 328.246 50.4322 327.695 51.2412 326.996C52.0594 326.288 52.726 325.479 53.2408 324.569C53.7556 323.65 54.0774 322.675 54.2061 321.645C54.2613 321.232 54.1693 320.938 53.9303 320.763C53.7005 320.579 53.4017 320.542 53.0339 320.653C51.7009 321.039 50.3954 321.342 49.1175 321.563C47.8396 321.774 46.5112 321.88 45.1322 321.88C43.7623 321.88 42.4385 321.774 41.1606 321.563C39.8827 321.342 38.5726 321.039 37.2304 320.653C36.8718 320.542 36.5731 320.579 36.334 320.763C36.1042 320.938 36.0168 321.232 36.072 321.645C36.2007 322.675 36.5225 323.65 37.0373 324.569C37.5522 325.479 38.2141 326.288 39.0231 326.996C39.8321 327.695 40.7561 328.246 41.7949 328.651C42.8338 329.055 43.9462 329.258 45.1322 329.258ZM45.1322 324.983C44.029 324.983 42.9028 324.909 41.7536 324.762C40.6044 324.606 39.492 324.394 38.4163 324.128C38.2233 323.824 38.0532 323.512 37.9061 323.19C37.7682 322.868 37.6625 322.537 37.5889 322.197C38.7197 322.519 39.9287 322.781 41.2158 322.983C42.5028 323.176 43.8083 323.273 45.1322 323.273C46.4652 323.273 47.7707 323.176 49.0486 322.983C50.3357 322.781 51.5492 322.519 52.6892 322.197C52.6156 322.537 52.5053 322.868 52.3582 323.19C52.2203 323.512 52.0548 323.824 51.8618 324.128C50.7861 324.394 49.6737 324.606 48.5246 324.762C47.3754 324.909 46.2446 324.983 45.1322 324.983ZM41.0365 318.584C41.4778 318.584 41.8639 318.409 42.1949 318.06C42.5258 317.701 42.6913 317.246 42.6913 316.695C42.6913 316.143 42.5258 315.688 42.1949 315.33C41.8639 314.971 41.4778 314.792 41.0365 314.792C40.6044 314.792 40.2229 314.971 39.8919 315.33C39.5701 315.688 39.4092 316.143 39.4092 316.695C39.4092 317.246 39.5701 317.701 39.8919 318.06C40.2229 318.409 40.6044 318.584 41.0365 318.584ZM49.2141 318.584C49.6554 318.584 50.0369 318.409 50.3587 318.06C50.6896 317.701 50.8551 317.246 50.8551 316.695C50.8551 316.143 50.6896 315.688 50.3587 315.33C50.0369 314.971 49.6554 314.792 49.2141 314.792C48.782 314.792 48.4004 314.971 48.0695 315.33C47.7477 315.688 47.5868 316.143 47.5868 316.695C47.5868 317.246 47.7477 317.701 48.0695 318.06C48.4004 318.409 48.782 318.584 49.2141 318.584Z" fill="#50555C"/>
<path d="M339.654 319.276C339.654 321.078 340.021 322.677 340.757 324.075C341.501 325.472 342.536 326.594 343.86 327.439C345.183 328.276 346.723 328.768 348.479 328.915V332.128H343.363C343.069 332.128 342.821 332.229 342.618 332.431C342.416 332.634 342.315 332.882 342.315 333.176C342.315 333.461 342.416 333.705 342.618 333.907C342.821 334.109 343.069 334.21 343.363 334.21H355.678C355.972 334.21 356.22 334.109 356.422 333.907C356.625 333.705 356.726 333.461 356.726 333.176C356.726 332.882 356.625 332.634 356.422 332.431C356.22 332.229 355.972 332.128 355.678 332.128H350.562V328.915C352.318 328.768 353.857 328.276 355.181 327.439C356.505 326.594 357.535 325.472 358.27 324.075C359.015 322.677 359.387 321.078 359.387 319.276V316.476C359.387 316.191 359.286 315.948 359.084 315.745C358.882 315.543 358.638 315.442 358.353 315.442C358.059 315.442 357.811 315.543 357.608 315.745C357.406 315.948 357.305 316.191 357.305 316.476V319.193C357.305 320.756 356.983 322.126 356.34 323.302C355.696 324.479 354.791 325.394 353.623 326.047C352.465 326.69 351.099 327.012 349.527 327.012C347.955 327.012 346.585 326.69 345.418 326.047C344.25 325.394 343.345 324.479 342.701 323.302C342.058 322.126 341.736 320.756 341.736 319.193V316.476C341.736 316.191 341.635 315.948 341.432 315.745C341.23 315.543 340.982 315.442 340.688 315.442C340.403 315.442 340.159 315.543 339.957 315.745C339.755 315.948 339.654 316.191 339.654 316.476V319.276ZM344.508 318.779C344.508 319.836 344.719 320.774 345.142 321.592C345.565 322.401 346.153 323.036 346.907 323.495C347.661 323.955 348.534 324.185 349.527 324.185C350.511 324.185 351.38 323.955 352.134 323.495C352.888 323.036 353.476 322.401 353.899 321.592C354.322 320.774 354.533 319.836 354.533 318.779V310.105C354.533 309.048 354.322 308.115 353.899 307.306C353.476 306.488 352.888 305.849 352.134 305.389C351.38 304.929 350.511 304.699 349.527 304.699C348.534 304.699 347.661 304.929 346.907 305.389C346.153 305.849 345.565 306.488 345.142 307.306C344.719 308.115 344.508 309.048 344.508 310.105V318.779ZM346.59 318.779V310.105C346.59 309.085 346.857 308.271 347.39 307.664C347.932 307.057 348.645 306.754 349.527 306.754C350.41 306.754 351.118 307.057 351.651 307.664C352.184 308.271 352.451 309.085 352.451 310.105V318.779C352.451 319.8 352.184 320.613 351.651 321.22C351.118 321.827 350.41 322.13 349.527 322.13C348.645 322.13 347.932 321.827 347.39 321.22C346.857 320.613 346.59 319.8 346.59 318.779Z" fill="#50555C"/>
<rect x="127.313" y="348.632" width="140.166" height="5.23006" rx="2.61503" fill="black"/>
<g filter="url(#filter29_d_47_594)">
<rect x="3.88367" y="235.663" width="91.526" height="43.9325" rx="5.23006" fill="#ADB3BC"/>
<path d="M39.9597 263.169V253.011H39.8289L36.8298 255.185V253.632L39.9679 251.377H41.4306V263.169H39.9597ZM44.42 263.169V262.155L48.4079 257.841C48.9091 257.296 49.3013 256.846 49.5846 256.492C49.8679 256.133 50.0668 255.808 50.1812 255.52C50.2956 255.231 50.3528 254.915 50.3528 254.572V254.555C50.3528 254.141 50.2629 253.771 50.0831 253.444C49.9033 253.117 49.6473 252.858 49.315 252.668C48.9826 252.477 48.5849 252.382 48.1219 252.382C47.6533 252.382 47.242 252.48 46.8879 252.676C46.5338 252.867 46.2586 253.136 46.0625 253.485C45.8664 253.828 45.7683 254.231 45.7683 254.694L45.7602 254.711L44.3546 254.703L44.3382 254.694C44.3437 253.997 44.5126 253.379 44.8449 252.839C45.1772 252.295 45.6349 251.87 46.2178 251.565C46.8007 251.254 47.4681 251.099 48.2199 251.099C48.9064 251.099 49.5247 251.243 50.075 251.532C50.6252 251.815 51.0583 252.205 51.3743 252.7C51.6957 253.196 51.8564 253.763 51.8564 254.4V254.417C51.8564 254.863 51.7774 255.294 51.6195 255.708C51.4669 256.122 51.1945 256.582 50.8023 257.089C50.41 257.59 49.857 258.208 49.1434 258.944L46.0952 262.09L46.4629 261.412V262.09L46.1034 261.845H52.0526V263.169H44.42ZM58.1145 263.365C57.3028 263.365 56.5946 263.226 55.9898 262.948C55.3851 262.67 54.9057 262.289 54.5516 261.804C54.2029 261.319 54.0013 260.766 53.9468 260.145L53.9387 260.047H55.3524L55.3606 260.129C55.3987 260.516 55.5349 260.856 55.7692 261.15C56.0089 261.444 56.3276 261.676 56.7253 261.845C57.1285 262.008 57.5915 262.09 58.1145 262.09C58.6321 262.09 59.0843 262 59.4711 261.82C59.8633 261.641 60.1684 261.393 60.3863 261.077C60.6043 260.755 60.7132 260.388 60.7132 259.973V259.957C60.7132 259.233 60.4708 258.677 59.9859 258.29C59.5065 257.898 58.8527 257.702 58.0246 257.702H56.5455V256.46H57.9593C58.4278 256.46 58.8418 256.372 59.2014 256.198C59.561 256.018 59.8415 255.776 60.0431 255.471C60.2447 255.16 60.3455 254.809 60.3455 254.417V254.4C60.3455 253.986 60.2583 253.635 60.084 253.346C59.9096 253.057 59.6536 252.837 59.3158 252.684C58.9835 252.532 58.5776 252.455 58.0982 252.455C57.6351 252.455 57.2211 252.534 56.8561 252.692C56.4965 252.845 56.2077 253.065 55.9898 253.354C55.7719 253.643 55.6412 253.986 55.5976 254.384L55.5894 254.466H54.1756L54.1838 254.384C54.2492 253.741 54.4508 253.18 54.7885 252.7C55.1318 252.221 55.584 251.848 56.1451 251.581C56.7117 251.314 57.3627 251.18 58.0982 251.18C58.85 251.18 59.5038 251.311 60.0595 251.573C60.6206 251.829 61.0537 252.186 61.3588 252.643C61.6693 253.095 61.8246 253.621 61.8246 254.22V254.237C61.8246 254.722 61.7184 255.152 61.5059 255.528C61.2934 255.904 60.9992 256.217 60.6233 256.468C60.2474 256.718 59.8143 256.895 59.324 256.999V257.032C60.1848 257.102 60.8794 257.394 61.4078 257.906C61.9417 258.413 62.2087 259.085 62.2087 259.924V259.941C62.2087 260.595 62.0316 261.18 61.6775 261.698C61.3234 262.215 60.8385 262.624 60.2229 262.924C59.6073 263.218 58.9045 263.365 58.1145 263.365Z" fill="black"/>
</g>
<g filter="url(#filter30_d_47_594)">
<rect x="101.686" y="235.663" width="190.374" height="43.9325" rx="5.23006" fill="white"/>
<path d="M178.686 263.324C178.032 263.324 177.455 263.226 176.954 263.03C176.452 262.828 176.049 262.548 175.744 262.188C175.445 261.828 175.268 261.406 175.213 260.921H176.668C176.788 261.286 177.022 261.581 177.37 261.804C177.719 262.027 178.174 262.139 178.735 262.139C179.133 262.139 179.482 262.082 179.781 261.967C180.086 261.848 180.326 261.687 180.5 261.485C180.675 261.278 180.762 261.041 180.762 260.774V260.758C180.762 260.458 180.642 260.205 180.402 259.998C180.163 259.786 179.77 259.614 179.225 259.483L177.861 259.156C177.311 259.026 176.858 258.857 176.504 258.65C176.15 258.437 175.889 258.178 175.72 257.873C175.551 257.563 175.466 257.198 175.466 256.778V256.77C175.466 256.28 175.608 255.841 175.891 255.454C176.18 255.068 176.572 254.762 177.068 254.539C177.564 254.316 178.122 254.204 178.743 254.204C179.359 254.204 179.904 254.302 180.378 254.498C180.857 254.689 181.241 254.961 181.53 255.315C181.824 255.67 182.004 256.086 182.069 256.566H180.672C180.579 256.217 180.367 255.934 180.035 255.716C179.702 255.498 179.269 255.389 178.735 255.389C178.386 255.389 178.076 255.446 177.804 255.561C177.531 255.67 177.316 255.822 177.158 256.018C177 256.214 176.921 256.443 176.921 256.705V256.721C176.921 256.917 176.973 257.091 177.076 257.244C177.18 257.397 177.34 257.53 177.558 257.644C177.776 257.759 178.057 257.86 178.4 257.947L179.757 258.274C180.585 258.475 181.2 258.764 181.604 259.14C182.012 259.516 182.216 260.02 182.216 260.652V260.668C182.216 261.191 182.061 261.654 181.751 262.057C181.44 262.455 181.018 262.766 180.484 262.989C179.956 263.212 179.356 263.324 178.686 263.324ZM184.004 266.111V254.359H185.426V255.765H185.557C185.737 255.438 185.963 255.16 186.235 254.931C186.508 254.697 186.818 254.517 187.167 254.392C187.516 254.267 187.894 254.204 188.303 254.204C189.049 254.204 189.698 254.395 190.248 254.776C190.804 255.152 191.234 255.68 191.539 256.361C191.844 257.042 191.997 257.841 191.997 258.756V258.772C191.997 259.693 191.844 260.494 191.539 261.175C191.234 261.856 190.804 262.384 190.248 262.76C189.698 263.136 189.049 263.324 188.303 263.324C187.9 263.324 187.518 263.261 187.159 263.136C186.805 263.005 186.489 262.825 186.211 262.597C185.938 262.368 185.721 262.095 185.557 261.779H185.426V266.111H184.004ZM187.976 262.065C188.515 262.065 188.976 261.935 189.357 261.673C189.738 261.406 190.03 261.028 190.231 260.537C190.439 260.042 190.542 259.453 190.542 258.772V258.756C190.542 258.069 190.439 257.481 190.231 256.991C190.03 256.5 189.738 256.124 189.357 255.863C188.976 255.596 188.515 255.463 187.976 255.463C187.442 255.463 186.982 255.596 186.595 255.863C186.208 256.13 185.911 256.509 185.704 256.999C185.497 257.489 185.394 258.075 185.394 258.756V258.772C185.394 259.448 185.497 260.033 185.704 260.529C185.911 261.019 186.208 261.398 186.595 261.665C186.982 261.932 187.442 262.065 187.976 262.065ZM196.22 263.324C195.664 263.324 195.163 263.218 194.716 263.005C194.275 262.793 193.924 262.49 193.662 262.098C193.406 261.706 193.278 261.243 193.278 260.709V260.693C193.278 260.17 193.403 259.723 193.654 259.352C193.905 258.976 194.27 258.682 194.749 258.47C195.228 258.257 195.809 258.132 196.49 258.094L199.726 257.898V259.034L196.661 259.23C195.991 259.268 195.501 259.407 195.19 259.647C194.885 259.886 194.733 260.224 194.733 260.66V260.676C194.733 261.123 194.902 261.472 195.239 261.722C195.577 261.967 196.002 262.09 196.514 262.09C196.999 262.09 197.429 261.995 197.805 261.804C198.181 261.608 198.475 261.344 198.688 261.011C198.906 260.679 199.015 260.303 199.015 259.884V257.138C199.015 256.593 198.849 256.179 198.516 255.896C198.189 255.607 197.696 255.463 197.037 255.463C196.509 255.463 196.076 255.558 195.738 255.749C195.4 255.934 195.174 256.198 195.059 256.541L195.051 256.566H193.629L193.638 256.517C193.714 256.054 193.905 255.65 194.21 255.307C194.52 254.959 194.921 254.689 195.411 254.498C195.901 254.302 196.46 254.204 197.086 254.204C197.805 254.204 198.413 254.321 198.908 254.555C199.41 254.79 199.788 255.127 200.044 255.569C200.306 256.005 200.437 256.528 200.437 257.138V263.169H199.015V261.869H198.884C198.699 262.18 198.473 262.444 198.206 262.662C197.944 262.88 197.647 263.046 197.315 263.161C196.983 263.269 196.618 263.324 196.22 263.324ZM206.221 263.324C205.398 263.324 204.684 263.136 204.08 262.76C203.475 262.384 203.006 261.853 202.674 261.167C202.342 260.48 202.176 259.671 202.176 258.739V258.723C202.176 257.808 202.339 257.012 202.666 256.337C202.998 255.661 203.467 255.138 204.072 254.768C204.676 254.392 205.39 254.204 206.213 254.204C206.926 254.204 207.542 254.329 208.059 254.58C208.577 254.831 208.991 255.168 209.302 255.593C209.612 256.013 209.811 256.484 209.898 257.007L209.906 257.056H208.493L208.484 257.032C208.375 256.596 208.128 256.225 207.741 255.92C207.354 255.615 206.845 255.463 206.213 255.463C205.684 255.463 205.227 255.596 204.84 255.863C204.453 256.13 204.153 256.509 203.941 256.999C203.734 257.484 203.63 258.058 203.63 258.723V258.739C203.63 259.415 203.736 260.003 203.949 260.505C204.161 261 204.461 261.384 204.848 261.657C205.235 261.929 205.69 262.065 206.213 262.065C206.806 262.065 207.291 261.937 207.667 261.681C208.043 261.425 208.313 261.052 208.476 260.562L208.493 260.513L209.898 260.505L209.882 260.595C209.762 261.123 209.549 261.594 209.244 262.008C208.939 262.417 208.536 262.738 208.035 262.973C207.534 263.207 206.929 263.324 206.221 263.324ZM215.159 263.324C214.32 263.324 213.598 263.139 212.994 262.768C212.394 262.398 211.931 261.875 211.604 261.199C211.283 260.518 211.122 259.717 211.122 258.797V258.789C211.122 257.879 211.283 257.081 211.604 256.394C211.931 255.708 212.392 255.171 212.986 254.784C213.579 254.397 214.274 254.204 215.069 254.204C215.87 254.204 216.557 254.389 217.129 254.76C217.706 255.13 218.147 255.648 218.453 256.312C218.763 256.972 218.918 257.74 218.918 258.617V259.173H211.858V258.037H218.191L217.488 259.075V258.511C217.488 257.819 217.385 257.249 217.178 256.803C216.971 256.356 216.685 256.024 216.32 255.806C215.955 255.582 215.535 255.471 215.061 255.471C214.587 255.471 214.162 255.588 213.786 255.822C213.416 256.051 213.122 256.391 212.904 256.844C212.686 257.296 212.577 257.851 212.577 258.511V259.075C212.577 259.701 212.683 260.238 212.896 260.684C213.108 261.126 213.41 261.466 213.803 261.706C214.195 261.94 214.658 262.057 215.192 262.057C215.59 262.057 215.936 262.003 216.23 261.894C216.524 261.785 216.766 261.646 216.957 261.477C217.148 261.308 217.281 261.137 217.358 260.962L217.39 260.889H218.812L218.796 260.954C218.72 261.254 218.583 261.545 218.387 261.828C218.197 262.106 217.949 262.36 217.644 262.588C217.338 262.812 216.976 262.992 216.557 263.128C216.143 263.259 215.677 263.324 215.159 263.324Z" fill="black"/>
</g>
<g filter="url(#filter31_d_47_594)">
<rect x="298.336" y="235.663" width="91.526" height="43.9325" rx="5.23006" fill="#ADB3BC"/>
<path d="M321.954 263.169V254.359H323.376V255.667H323.506C323.675 255.204 323.961 254.844 324.365 254.588C324.768 254.332 325.266 254.204 325.86 254.204C325.996 254.204 326.13 254.212 326.26 254.229C326.397 254.239 326.5 254.25 326.571 254.261V255.642C326.424 255.615 326.279 255.596 326.138 255.585C326.002 255.569 325.855 255.561 325.697 255.561C325.244 255.561 324.844 255.65 324.495 255.83C324.147 256.01 323.871 256.261 323.67 256.582C323.474 256.904 323.376 257.279 323.376 257.71V263.169H321.954ZM331.26 263.324C330.421 263.324 329.699 263.139 329.094 262.768C328.495 262.398 328.032 261.875 327.705 261.199C327.384 260.518 327.223 259.717 327.223 258.797V258.789C327.223 257.879 327.384 257.081 327.705 256.394C328.032 255.708 328.492 255.171 329.086 254.784C329.68 254.397 330.375 254.204 331.17 254.204C331.971 254.204 332.657 254.389 333.229 254.76C333.807 255.13 334.248 255.648 334.553 256.312C334.864 256.972 335.019 257.74 335.019 258.617V259.173H327.959V258.037H334.292L333.589 259.075V258.511C333.589 257.819 333.486 257.249 333.279 256.803C333.071 256.356 332.785 256.024 332.42 255.806C332.055 255.582 331.636 255.471 331.162 255.471C330.688 255.471 330.263 255.588 329.887 255.822C329.517 256.051 329.222 256.391 329.005 256.844C328.787 257.296 328.678 257.851 328.678 258.511V259.075C328.678 259.701 328.784 260.238 328.996 260.684C329.209 261.126 329.511 261.466 329.903 261.706C330.296 261.94 330.759 262.057 331.293 262.057C331.69 262.057 332.036 262.003 332.331 261.894C332.625 261.785 332.867 261.646 333.058 261.477C333.249 261.308 333.382 261.137 333.458 260.962L333.491 260.889H334.913L334.897 260.954C334.82 261.254 334.684 261.545 334.488 261.828C334.297 262.106 334.049 262.36 333.744 262.588C333.439 262.812 333.077 262.992 332.657 263.128C332.243 263.259 331.778 263.324 331.26 263.324ZM339.937 263.234C339.033 263.234 338.376 263.052 337.968 262.687C337.564 262.322 337.363 261.72 337.363 260.881V255.536H335.974V254.359H337.363V252.079H338.834V254.359H340.762V255.536H338.834V260.521C338.834 261.039 338.932 261.412 339.128 261.641C339.324 261.864 339.651 261.976 340.109 261.976C340.234 261.976 340.34 261.973 340.427 261.967C340.52 261.962 340.632 261.954 340.762 261.943V263.152C340.626 263.174 340.49 263.193 340.354 263.21C340.218 263.226 340.079 263.234 339.937 263.234ZM345.419 263.324C344.754 263.324 344.196 263.199 343.744 262.948C343.291 262.692 342.951 262.322 342.722 261.837C342.499 261.346 342.387 260.755 342.387 260.063V254.359H343.809V259.72C343.809 260.51 343.961 261.098 344.267 261.485C344.577 261.872 345.084 262.065 345.787 262.065C346.173 262.065 346.514 262.008 346.808 261.894C347.108 261.779 347.358 261.616 347.56 261.404C347.761 261.186 347.911 260.924 348.009 260.619C348.113 260.309 348.165 259.96 348.165 259.573V254.359H349.586V263.169H348.165V261.853H348.034C347.892 262.164 347.699 262.431 347.454 262.654C347.208 262.872 346.914 263.038 346.571 263.152C346.233 263.267 345.849 263.324 345.419 263.324ZM351.824 263.169V254.359H353.246V255.667H353.377C353.546 255.204 353.832 254.844 354.235 254.588C354.638 254.332 355.136 254.204 355.73 254.204C355.866 254.204 356 254.212 356.131 254.229C356.267 254.239 356.37 254.25 356.441 254.261V255.642C356.294 255.615 356.15 255.596 356.008 255.585C355.872 255.569 355.725 255.561 355.567 255.561C355.115 255.561 354.714 255.65 354.365 255.83C354.017 256.01 353.742 256.261 353.54 256.582C353.344 256.904 353.246 257.279 353.246 257.71V263.169H351.824ZM357.943 263.169V254.359H359.365V255.683H359.496C359.719 255.215 360.041 254.852 360.46 254.596C360.88 254.335 361.414 254.204 362.062 254.204C363.053 254.204 363.813 254.487 364.342 255.054C364.876 255.615 365.143 256.419 365.143 257.465V263.169H363.721V257.808C363.721 257.012 363.552 256.424 363.214 256.043C362.882 255.656 362.364 255.463 361.661 255.463C361.193 255.463 360.787 255.563 360.444 255.765C360.101 255.966 359.834 256.252 359.643 256.623C359.458 256.993 359.365 257.437 359.365 257.955V263.169H357.943Z" fill="black"/>
</g>
</g>
<defs>
<filter id="filter0_dd_47_594" x="-112.989" y="-102.964" width="619.723" height="578.928" filterUnits="userSpaceOnUse" color-interpolation-filters="sRGB">
<feFlood flood-opacity="0" result="BackgroundImageFix"/>
<feColorMatrix in="SourceAlpha" type="matrix" values="0 0 0 0 0 0 0 0 0 0 0 0 0 0 0 0 0 0 127 0" result="hardAlpha"/>
<feOffset dy="1.04601"/>
<feGaussianBlur stdDeviation="2.09202"/>
<feComposite in2="hardAlpha" operator="out"/>
<feColorMatrix type="matrix" values="0 0 0 0 0 0 0 0 0 0 0 0 0 0 0 0 0 0 0.4 0"/>
<feBlend mode="normal" in2="BackgroundImageFix" result="effect1_dropShadow_47_594"/>
<feColorMatrix in="SourceAlpha" type="matrix" values="0 0 0 0 0 0 0 0 0 0 0 0 0 0 0 0 0 0 127 0" result="hardAlpha"/>
<feOffset dy="2.09202"/>
<feGaussianBlur stdDeviation="6.27607"/>
<feComposite in2="hardAlpha" operator="out"/>
<feColorMatrix type="matrix" values="0 0 0 0 0 0 0 0 0 0.478431 0 0 0 0 1 0 0 0 0.1 0"/>
<feBlend mode="normal" in2="effect1_dropShadow_47_594" result="effect2_dropShadow_47_594"/>
<feBlend mode="normal" in="SourceGraphic" in2="effect2_dropShadow_47_594" result="shape"/>
</filter>
<filter id="filter1_d_47_594" x="3.88367" y="66.2087" width="32.9493" height="44.9785" filterUnits="userSpaceOnUse" color-interpolation-filters="sRGB">
<feFlood flood-opacity="0" result="BackgroundImageFix"/>
<feColorMatrix in="SourceAlpha" type="matrix" values="0 0 0 0 0 0 0 0 0 0 0 0 0 0 0 0 0 0 127 0" result="hardAlpha"/>
<feOffset dy="1.04601"/>
<feColorMatrix type="matrix" values="0 0 0 0 0 0 0 0 0 0 0 0 0 0 0 0 0 0 0.3 0"/>
<feBlend mode="normal" in2="BackgroundImageFix" result="effect1_dropShadow_47_594"/>
<feBlend mode="normal" in="SourceGraphic" in2="effect1_dropShadow_47_594" result="shape"/>
</filter>
<filter id="filter2_d_47_594" x="43.1091" y="66.2087" width="32.9493" height="44.9785" filterUnits="userSpaceOnUse" color-interpolation-filters="sRGB">
<feFlood flood-opacity="0" result="BackgroundImageFix"/>
<feColorMatrix in="SourceAlpha" type="matrix" values="0 0 0 0 0 0 0 0 0 0 0 0 0 0 0 0 0 0 127 0" result="hardAlpha"/>
<feOffset dy="1.04601"/>
<feColorMatrix type="matrix" values="0 0 0 0 0 0 0 0 0 0 0 0 0 0 0 0 0 0 0.3 0"/>
<feBlend mode="normal" in2="BackgroundImageFix" result="effect1_dropShadow_47_594"/>
<feBlend mode="normal" in="SourceGraphic" in2="effect1_dropShadow_47_594" result="shape"/>
</filter>
<filter id="filter3_d_47_594" x="82.3345" y="66.2087" width="32.9495" height="44.9785" filterUnits="userSpaceOnUse" color-interpolation-filters="sRGB">
<feFlood flood-opacity="0" result="BackgroundImageFix"/>
<feColorMatrix in="SourceAlpha" type="matrix" values="0 0 0 0 0 0 0 0 0 0 0 0 0 0 0 0 0 0 127 0" result="hardAlpha"/>
<feOffset dy="1.04601"/>
<feColorMatrix type="matrix" values="0 0 0 0 0 0 0 0 0 0 0 0 0 0 0 0 0 0 0.3 0"/>
<feBlend mode="normal" in2="BackgroundImageFix" result="effect1_dropShadow_47_594"/>
<feBlend mode="normal" in="SourceGraphic" in2="effect1_dropShadow_47_594" result="shape"/>
</filter>
<filter id="filter4_d_47_594" x="121.56" y="66.2087" width="32.9495" height="44.9785" filterUnits="userSpaceOnUse" color-interpolation-filters="sRGB">
<feFlood flood-opacity="0" result="BackgroundImageFix"/>
<feColorMatrix in="SourceAlpha" type="matrix" values="0 0 0 0 0 0 0 0 0 0 0 0 0 0 0 0 0 0 127 0" result="hardAlpha"/>
<feOffset dy="1.04601"/>
<feColorMatrix type="matrix" values="0 0 0 0 0 0 0 0 0 0 0 0 0 0 0 0 0 0 0.3 0"/>
<feBlend mode="normal" in2="BackgroundImageFix" result="effect1_dropShadow_47_594"/>
<feBlend mode="normal" in="SourceGraphic" in2="effect1_dropShadow_47_594" result="shape"/>
</filter>
<filter id="filter5_d_47_594" x="160.785" y="66.2087" width="32.9495" height="44.9785" filterUnits="userSpaceOnUse" color-interpolation-filters="sRGB">
<feFlood flood-opacity="0" result="BackgroundImageFix"/>
<feColorMatrix in="SourceAlpha" type="matrix" values="0 0 0 0 0 0 0 0 0 0 0 0 0 0 0 0 0 0 127 0" result="hardAlpha"/>
<feOffset dy="1.04601"/>
<feColorMatrix type="matrix" values="0 0 0 0 0 0 0 0 0 0 0 0 0 0 0 0 0 0 0.3 0"/>
<feBlend mode="normal" in2="BackgroundImageFix" result="effect1_dropShadow_47_594"/>
<feBlend mode="normal" in="SourceGraphic" in2="effect1_dropShadow_47_594" result="shape"/>
</filter>
<filter id="filter6_d_47_594" x="200.011" y="66.2087" width="32.9495" height="44.9785" filterUnits="userSpaceOnUse" color-interpolation-filters="sRGB">
<feFlood flood-opacity="0" result="BackgroundImageFix"/>
<feColorMatrix in="SourceAlpha" type="matrix" values="0 0 0 0 0 0 0 0 0 0 0 0 0 0 0 0 0 0 127 0" result="hardAlpha"/>
<feOffset dy="1.04601"/>
<feColorMatrix type="matrix" values="0 0 0 0 0 0 0 0 0 0 0 0 0 0 0 0 0 0 0.3 0"/>
<feBlend mode="normal" in2="BackgroundImageFix" result="effect1_dropShadow_47_594"/>
<feBlend mode="normal" in="SourceGraphic" in2="effect1_dropShadow_47_594" result="shape"/>
</filter>
<filter id="filter7_d_47_594" x="239.236" y="66.2087" width="32.9495" height="44.9785" filterUnits="userSpaceOnUse" color-interpolation-filters="sRGB">
<feFlood flood-opacity="0" result="BackgroundImageFix"/>
<feColorMatrix in="SourceAlpha" type="matrix" values="0 0 0 0 0 0 0 0 0 0 0 0 0 0 0 0 0 0 127 0" result="hardAlpha"/>
<feOffset dy="1.04601"/>
<feColorMatrix type="matrix" values="0 0 0 0 0 0 0 0 0 0 0 0 0 0 0 0 0 0 0.3 0"/>
<feBlend mode="normal" in2="BackgroundImageFix" result="effect1_dropShadow_47_594"/>
<feBlend mode="normal" in="SourceGraphic" in2="effect1_dropShadow_47_594" result="shape"/>
</filter>
<filter id="filter8_d_47_594" x="278.462" y="66.2087" width="32.9495" height="44.9785" filterUnits="userSpaceOnUse" color-interpolation-filters="sRGB">
<feFlood flood-opacity="0" result="BackgroundImageFix"/>
<feColorMatrix in="SourceAlpha" type="matrix" values="0 0 0 0 0 0 0 0 0 0 0 0 0 0 0 0 0 0 127 0" result="hardAlpha"/>
<feOffset dy="1.04601"/>
<feColorMatrix type="matrix" values="0 0 0 0 0 0 0 0 0 0 0 0 0 0 0 0 0 0 0.3 0"/>
<feBlend mode="normal" in2="BackgroundImageFix" result="effect1_dropShadow_47_594"/>
<feBlend mode="normal" in="SourceGraphic" in2="effect1_dropShadow_47_594" result="shape"/>
</filter>
<filter id="filter9_d_47_594" x="317.687" y="66.2087" width="32.9495" height="44.9785" filterUnits="userSpaceOnUse" color-interpolation-filters="sRGB">
<feFlood flood-opacity="0" result="BackgroundImageFix"/>
<feColorMatrix in="SourceAlpha" type="matrix" values="0 0 0 0 0 0 0 0 0 0 0 0 0 0 0 0 0 0 127 0" result="hardAlpha"/>
<feOffset dy="1.04601"/>
<feColorMatrix type="matrix" values="0 0 0 0 0 0 0 0 0 0 0 0 0 0 0 0 0 0 0.3 0"/>
<feBlend mode="normal" in2="BackgroundImageFix" result="effect1_dropShadow_47_594"/>
<feBlend mode="normal" in="SourceGraphic" in2="effect1_dropShadow_47_594" result="shape"/>
</filter>
<filter id="filter10_d_47_594" x="356.913" y="66.2087" width="32.9495" height="44.9785" filterUnits="userSpaceOnUse" color-interpolation-filters="sRGB">
<feFlood flood-opacity="0" result="BackgroundImageFix"/>
<feColorMatrix in="SourceAlpha" type="matrix" values="0 0 0 0 0 0 0 0 0 0 0 0 0 0 0 0 0 0 127 0" result="hardAlpha"/>
<feOffset dy="1.04601"/>
<feColorMatrix type="matrix" values="0 0 0 0 0 0 0 0 0 0 0 0 0 0 0 0 0 0 0.3 0"/>
<feBlend mode="normal" in2="BackgroundImageFix" result="effect1_dropShadow_47_594"/>
<feBlend mode="normal" in="SourceGraphic" in2="effect1_dropShadow_47_594" result="shape"/>
</filter>
<filter id="filter11_d_47_594" x="23.4963" y="122.693" width="32.9493" height="44.9785" filterUnits="userSpaceOnUse" color-interpolation-filters="sRGB">
<feFlood flood-opacity="0" result="BackgroundImageFix"/>
<feColorMatrix in="SourceAlpha" type="matrix" values="0 0 0 0 0 0 0 0 0 0 0 0 0 0 0 0 0 0 127 0" result="hardAlpha"/>
<feOffset dy="1.04601"/>
<feColorMatrix type="matrix" values="0 0 0 0 0 0 0 0 0 0 0 0 0 0 0 0 0 0 0.3 0"/>
<feBlend mode="normal" in2="BackgroundImageFix" result="effect1_dropShadow_47_594"/>
<feBlend mode="normal" in="SourceGraphic" in2="effect1_dropShadow_47_594" result="shape"/>
</filter>
<filter id="filter12_d_47_594" x="62.7218" y="122.693" width="32.9493" height="44.9785" filterUnits="userSpaceOnUse" color-interpolation-filters="sRGB">
<feFlood flood-opacity="0" result="BackgroundImageFix"/>
<feColorMatrix in="SourceAlpha" type="matrix" values="0 0 0 0 0 0 0 0 0 0 0 0 0 0 0 0 0 0 127 0" result="hardAlpha"/>
<feOffset dy="1.04601"/>
<feColorMatrix type="matrix" values="0 0 0 0 0 0 0 0 0 0 0 0 0 0 0 0 0 0 0.3 0"/>
<feBlend mode="normal" in2="BackgroundImageFix" result="effect1_dropShadow_47_594"/>
<feBlend mode="normal" in="SourceGraphic" in2="effect1_dropShadow_47_594" result="shape"/>
</filter>
<filter id="filter13_d_47_594" x="101.947" y="122.693" width="32.9495" height="44.9785" filterUnits="userSpaceOnUse" color-interpolation-filters="sRGB">
<feFlood flood-opacity="0" result="BackgroundImageFix"/>
<feColorMatrix in="SourceAlpha" type="matrix" values="0 0 0 0 0 0 0 0 0 0 0 0 0 0 0 0 0 0 127 0" result="hardAlpha"/>
<feOffset dy="1.04601"/>
<feColorMatrix type="matrix" values="0 0 0 0 0 0 0 0 0 0 0 0 0 0 0 0 0 0 0.3 0"/>
<feBlend mode="normal" in2="BackgroundImageFix" result="effect1_dropShadow_47_594"/>
<feBlend mode="normal" in="SourceGraphic" in2="effect1_dropShadow_47_594" result="shape"/>
</filter>
<filter id="filter14_d_47_594" x="141.173" y="122.693" width="32.9495" height="44.9785" filterUnits="userSpaceOnUse" color-interpolation-filters="sRGB">
<feFlood flood-opacity="0" result="BackgroundImageFix"/>
<feColorMatrix in="SourceAlpha" type="matrix" values="0 0 0 0 0 0 0 0 0 0 0 0 0 0 0 0 0 0 127 0" result="hardAlpha"/>
<feOffset dy="1.04601"/>
<feColorMatrix type="matrix" values="0 0 0 0 0 0 0 0 0 0 0 0 0 0 0 0 0 0 0.3 0"/>
<feBlend mode="normal" in2="BackgroundImageFix" result="effect1_dropShadow_47_594"/>
<feBlend mode="normal" in="SourceGraphic" in2="effect1_dropShadow_47_594" result="shape"/>
</filter>
<filter id="filter15_d_47_594" x="180.398" y="122.693" width="32.9495" height="44.9785" filterUnits="userSpaceOnUse" color-interpolation-filters="sRGB">
<feFlood flood-opacity="0" result="BackgroundImageFix"/>
<feColorMatrix in="SourceAlpha" type="matrix" values="0 0 0 0 0 0 0 0 0 0 0 0 0 0 0 0 0 0 127 0" result="hardAlpha"/>
<feOffset dy="1.04601"/>
<feColorMatrix type="matrix" values="0 0 0 0 0 0 0 0 0 0 0 0 0 0 0 0 0 0 0.3 0"/>
<feBlend mode="normal" in2="BackgroundImageFix" result="effect1_dropShadow_47_594"/>
<feBlend mode="normal" in="SourceGraphic" in2="effect1_dropShadow_47_594" result="shape"/>
</filter>
<filter id="filter16_d_47_594" x="219.624" y="122.693" width="32.9495" height="44.9785" filterUnits="userSpaceOnUse" color-interpolation-filters="sRGB">
<feFlood flood-opacity="0" result="BackgroundImageFix"/>
<feColorMatrix in="SourceAlpha" type="matrix" values="0 0 0 0 0 0 0 0 0 0 0 0 0 0 0 0 0 0 127 0" result="hardAlpha"/>
<feOffset dy="1.04601"/>
<feColorMatrix type="matrix" values="0 0 0 0 0 0 0 0 0 0 0 0 0 0 0 0 0 0 0.3 0"/>
<feBlend mode="normal" in2="BackgroundImageFix" result="effect1_dropShadow_47_594"/>
<feBlend mode="normal" in="SourceGraphic" in2="effect1_dropShadow_47_594" result="shape"/>
</filter>
<filter id="filter17_d_47_594" x="258.849" y="122.693" width="32.9495" height="44.9785" filterUnits="userSpaceOnUse" color-interpolation-filters="sRGB">
<feFlood flood-opacity="0" result="BackgroundImageFix"/>
<feColorMatrix in="SourceAlpha" type="matrix" values="0 0 0 0 0 0 0 0 0 0 0 0 0 0 0 0 0 0 127 0" result="hardAlpha"/>
<feOffset dy="1.04601"/>
<feColorMatrix type="matrix" values="0 0 0 0 0 0 0 0 0 0 0 0 0 0 0 0 0 0 0.3 0"/>
<feBlend mode="normal" in2="BackgroundImageFix" result="effect1_dropShadow_47_594"/>
<feBlend mode="normal" in="SourceGraphic" in2="effect1_dropShadow_47_594" result="shape"/>
</filter>
<filter id="filter18_d_47_594" x="298.074" y="122.693" width="32.9495" height="44.9785" filterUnits="userSpaceOnUse" color-interpolation-filters="sRGB">
<feFlood flood-opacity="0" result="BackgroundImageFix"/>
<feColorMatrix in="SourceAlpha" type="matrix" values="0 0 0 0 0 0 0 0 0 0 0 0 0 0 0 0 0 0 127 0" result="hardAlpha"/>
<feOffset dy="1.04601"/>
<feColorMatrix type="matrix" values="0 0 0 0 0 0 0 0 0 0 0 0 0 0 0 0 0 0 0.3 0"/>
<feBlend mode="normal" in2="BackgroundImageFix" result="effect1_dropShadow_47_594"/>
<feBlend mode="normal" in="SourceGraphic" in2="effect1_dropShadow_47_594" result="shape"/>
</filter>
<filter id="filter19_d_47_594" x="337.3" y="122.693" width="32.9495" height="44.9785" filterUnits="userSpaceOnUse" color-interpolation-filters="sRGB">
<feFlood flood-opacity="0" result="BackgroundImageFix"/>
<feColorMatrix in="SourceAlpha" type="matrix" values="0 0 0 0 0 0 0 0 0 0 0 0 0 0 0 0 0 0 127 0" result="hardAlpha"/>
<feOffset dy="1.04601"/>
<feColorMatrix type="matrix" values="0 0 0 0 0 0 0 0 0 0 0 0 0 0 0 0 0 0 0.3 0"/>
<feBlend mode="normal" in2="BackgroundImageFix" result="effect1_dropShadow_47_594"/>
<feBlend mode="normal" in="SourceGraphic" in2="effect1_dropShadow_47_594" result="shape"/>
</filter>
<filter id="filter20_d_47_594" x="3.88367" y="179.178" width="43.9325" height="44.9785" filterUnits="userSpaceOnUse" color-interpolation-filters="sRGB">
<feFlood flood-opacity="0" result="BackgroundImageFix"/>
<feColorMatrix in="SourceAlpha" type="matrix" values="0 0 0 0 0 0 0 0 0 0 0 0 0 0 0 0 0 0 127 0" result="hardAlpha"/>
<feOffset dy="1.04601"/>
<feColorMatrix type="matrix" values="0 0 0 0 0 0 0 0 0 0 0 0 0 0 0 0 0 0 0.3 0"/>
<feBlend mode="normal" in2="BackgroundImageFix" result="effect1_dropShadow_47_594"/>
<feBlend mode="normal" in="SourceGraphic" in2="effect1_dropShadow_47_594" result="shape"/>
</filter>
<filter id="filter21_d_47_594" x="62.7218" y="179.178" width="32.9493" height="44.9785" filterUnits="userSpaceOnUse" color-interpolation-filters="sRGB">
<feFlood flood-opacity="0" result="BackgroundImageFix"/>
<feColorMatrix in="SourceAlpha" type="matrix" values="0 0 0 0 0 0 0 0 0 0 0 0 0 0 0 0 0 0 127 0" result="hardAlpha"/>
<feOffset dy="1.04601"/>
<feColorMatrix type="matrix" values="0 0 0 0 0 0 0 0 0 0 0 0 0 0 0 0 0 0 0.3 0"/>
<feBlend mode="normal" in2="BackgroundImageFix" result="effect1_dropShadow_47_594"/>
<feBlend mode="normal" in="SourceGraphic" in2="effect1_dropShadow_47_594" result="shape"/>
</filter>
<filter id="filter22_d_47_594" x="101.947" y="179.178" width="32.9495" height="44.9785" filterUnits="userSpaceOnUse" color-interpolation-filters="sRGB">
<feFlood flood-opacity="0" result="BackgroundImageFix"/>
<feColorMatrix in="SourceAlpha" type="matrix" values="0 0 0 0 0 0 0 0 0 0 0 0 0 0 0 0 0 0 127 0" result="hardAlpha"/>
<feOffset dy="1.04601"/>
<feColorMatrix type="matrix" values="0 0 0 0 0 0 0 0 0 0 0 0 0 0 0 0 0 0 0.3 0"/>
<feBlend mode="normal" in2="BackgroundImageFix" result="effect1_dropShadow_47_594"/>
<feBlend mode="normal" in="SourceGraphic" in2="effect1_dropShadow_47_594" result="shape"/>
</filter>
<filter id="filter23_d_47_594" x="141.173" y="179.178" width="32.9495" height="44.9785" filterUnits="userSpaceOnUse" color-interpolation-filters="sRGB">
<feFlood flood-opacity="0" result="BackgroundImageFix"/>
<feColorMatrix in="SourceAlpha" type="matrix" values="0 0 0 0 0 0 0 0 0 0 0 0 0 0 0 0 0 0 127 0" result="hardAlpha"/>
<feOffset dy="1.04601"/>
<feColorMatrix type="matrix" values="0 0 0 0 0 0 0 0 0 0 0 0 0 0 0 0 0 0 0.3 0"/>
<feBlend mode="normal" in2="BackgroundImageFix" result="effect1_dropShadow_47_594"/>
<feBlend mode="normal" in="SourceGraphic" in2="effect1_dropShadow_47_594" result="shape"/>
</filter>
<filter id="filter24_d_47_594" x="180.398" y="179.178" width="32.9495" height="44.9785" filterUnits="userSpaceOnUse" color-interpolation-filters="sRGB">
<feFlood flood-opacity="0" result="BackgroundImageFix"/>
<feColorMatrix in="SourceAlpha" type="matrix" values="0 0 0 0 0 0 0 0 0 0 0 0 0 0 0 0 0 0 127 0" result="hardAlpha"/>
<feOffset dy="1.04601"/>
<feColorMatrix type="matrix" values="0 0 0 0 0 0 0 0 0 0 0 0 0 0 0 0 0 0 0.3 0"/>
<feBlend mode="normal" in2="BackgroundImageFix" result="effect1_dropShadow_47_594"/>
<feBlend mode="normal" in="SourceGraphic" in2="effect1_dropShadow_47_594" result="shape"/>
</filter>
<filter id="filter25_d_47_594" x="219.624" y="179.178" width="32.9495" height="44.9785" filterUnits="userSpaceOnUse" color-interpolation-filters="sRGB">
<feFlood flood-opacity="0" result="BackgroundImageFix"/>
<feColorMatrix in="SourceAlpha" type="matrix" values="0 0 0 0 0 0 0 0 0 0 0 0 0 0 0 0 0 0 127 0" result="hardAlpha"/>
<feOffset dy="1.04601"/>
<feColorMatrix type="matrix" values="0 0 0 0 0 0 0 0 0 0 0 0 0 0 0 0 0 0 0.3 0"/>
<feBlend mode="normal" in2="BackgroundImageFix" result="effect1_dropShadow_47_594"/>
<feBlend mode="normal" in="SourceGraphic" in2="effect1_dropShadow_47_594" result="shape"/>
</filter>
<filter id="filter26_d_47_594" x="258.849" y="179.178" width="32.9495" height="44.9785" filterUnits="userSpaceOnUse" color-interpolation-filters="sRGB">
<feFlood flood-opacity="0" result="BackgroundImageFix"/>
<feColorMatrix in="SourceAlpha" type="matrix" values="0 0 0 0 0 0 0 0 0 0 0 0 0 0 0 0 0 0 127 0" result="hardAlpha"/>
<feOffset dy="1.04601"/>
<feColorMatrix type="matrix" values="0 0 0 0 0 0 0 0 0 0 0 0 0 0 0 0 0 0 0.3 0"/>
<feBlend mode="normal" in2="BackgroundImageFix" result="effect1_dropShadow_47_594"/>
<feBlend mode="normal" in="SourceGraphic" in2="effect1_dropShadow_47_594" result="shape"/>
</filter>
<filter id="filter27_d_47_594" x="298.074" y="179.178" width="32.9495" height="44.9785" filterUnits="userSpaceOnUse" color-interpolation-filters="sRGB">
<feFlood flood-opacity="0" result="BackgroundImageFix"/>
<feColorMatrix in="SourceAlpha" type="matrix" values="0 0 0 0 0 0 0 0 0 0 0 0 0 0 0 0 0 0 127 0" result="hardAlpha"/>
<feOffset dy="1.04601"/>
<feColorMatrix type="matrix" values="0 0 0 0 0 0 0 0 0 0 0 0 0 0 0 0 0 0 0.3 0"/>
<feBlend mode="normal" in2="BackgroundImageFix" result="effect1_dropShadow_47_594"/>
<feBlend mode="normal" in="SourceGraphic" in2="effect1_dropShadow_47_594" result="shape"/>
</filter>
<filter id="filter28_d_47_594" x="345.929" y="179.178" width="43.9326" height="44.9785" filterUnits="userSpaceOnUse" color-interpolation-filters="sRGB">
<feFlood flood-opacity="0" result="BackgroundImageFix"/>
<feColorMatrix in="SourceAlpha" type="matrix" values="0 0 0 0 0 0 0 0 0 0 0 0 0 0 0 0 0 0 127 0" result="hardAlpha"/>
<feOffset dy="1.04601"/>
<feColorMatrix type="matrix" values="0 0 0 0 0 0 0 0 0 0 0 0 0 0 0 0 0 0 0.3 0"/>
<feBlend mode="normal" in2="BackgroundImageFix" result="effect1_dropShadow_47_594"/>
<feBlend mode="normal" in="SourceGraphic" in2="effect1_dropShadow_47_594" result="shape"/>
</filter>
<filter id="filter29_d_47_594" x="3.88367" y="235.663" width="91.526" height="44.9785" filterUnits="userSpaceOnUse" color-interpolation-filters="sRGB">
<feFlood flood-opacity="0" result="BackgroundImageFix"/>
<feColorMatrix in="SourceAlpha" type="matrix" values="0 0 0 0 0 0 0 0 0 0 0 0 0 0 0 0 0 0 127 0" result="hardAlpha"/>
<feOffset dy="1.04601"/>
<feColorMatrix type="matrix" values="0 0 0 0 0 0 0 0 0 0 0 0 0 0 0 0 0 0 0.3 0"/>
<feBlend mode="normal" in2="BackgroundImageFix" result="effect1_dropShadow_47_594"/>
<feBlend mode="normal" in="SourceGraphic" in2="effect1_dropShadow_47_594" result="shape"/>
</filter>
<filter id="filter30_d_47_594" x="101.686" y="235.663" width="190.374" height="44.9785" filterUnits="userSpaceOnUse" color-interpolation-filters="sRGB">
<feFlood flood-opacity="0" result="BackgroundImageFix"/>
<feColorMatrix in="SourceAlpha" type="matrix" values="0 0 0 0 0 0 0 0 0 0 0 0 0 0 0 0 0 0 127 0" result="hardAlpha"/>
<feOffset dy="1.04601"/>
<feColorMatrix type="matrix" values="0 0 0 0 0 0 0 0 0 0 0 0 0 0 0 0 0 0 0.3 0"/>
<feBlend mode="normal" in2="BackgroundImageFix" result="effect1_dropShadow_47_594"/>
<feBlend mode="normal" in="SourceGraphic" in2="effect1_dropShadow_47_594" result="shape"/>
</filter>
<filter id="filter31_d_47_594" x="298.336" y="235.663" width="91.5261" height="44.9785" filterUnits="userSpaceOnUse" color-interpolation-filters="sRGB">
<feFlood flood-opacity="0" result="BackgroundImageFix"/>
<feColorMatrix in="SourceAlpha" type="matrix" values="0 0 0 0 0 0 0 0 0 0 0 0 0 0 0 0 0 0 127 0" result="hardAlpha"/>
<feOffset dy="1.04601"/>
<feColorMatrix type="matrix" values="0 0 0 0 0 0 0 0 0 0 0 0 0 0 0 0 0 0 0.3 0"/>
<feBlend mode="normal" in2="BackgroundImageFix" result="effect1_dropShadow_47_594"/>
<feBlend mode="normal" in="SourceGraphic" in2="effect1_dropShadow_47_594" result="shape"/>
</filter>
</defs>
</svg>
