<svg width="58" height="58" viewBox="0 0 58 58" fill="none" xmlns="http://www.w3.org/2000/svg">
<circle cx="29" cy="29" r="29" fill="#1F1F1F"/>
<g clip-path="url(#clip0_34_2)">
<path d="M33.5384 17.0087C34.304 16.9649 34.9493 17.1005 35.5947 17.5216C36.24 17.9427 39.0279 20.7291 39.444 21.3649C40.1827 22.4925 40.1898 23.8914 39.444 25.019C35.5168 28.8736 31.785 33.0109 27.7984 36.8005C27.0766 37.4873 26.4964 37.3982 25.5383 37.5056C23.9378 37.6851 21.9622 37.9394 20.3828 37.9988C19.5592 38.0299 18.9775 37.7557 19.0016 36.8359C19.0497 34.975 19.3341 32.6407 19.5719 30.7741C19.6115 30.4618 19.6342 29.8853 19.7813 29.6437L31.434 17.9384C32.0878 17.3958 32.6709 17.0581 33.5384 17.0087ZM33.3247 18.4852C33.0983 18.5177 32.8563 18.6096 32.6709 18.7495L31.2274 20.2557L36.7565 25.7255C37.8448 24.8324 39.3237 23.5452 38.1802 22.063C37.7684 21.5288 35.3286 19.0632 34.8191 18.7198C34.413 18.4457 33.796 18.4188 33.3233 18.4867L33.3247 18.4852ZM30.1377 21.2929L21.9041 29.5731L27.3837 35.1035L35.6668 26.8149L30.1377 21.2943V21.2929ZM20.4889 36.5179L26.137 35.9188L21.089 30.808L20.4889 36.5179Z" fill="#ECECEC"/>
</g>
<defs>
<clipPath id="clip0_34_2">
<rect width="21" height="21" fill="white" transform="translate(19 17)"/>
</clipPath>
</defs>
</svg>
