<svg width="27" height="30" viewBox="0 0 27 30" fill="none" xmlns="http://www.w3.org/2000/svg">
<g clip-path="url(#clip0_1_2242)">
<path d="M25.9619 13.0072C25.9331 11.4575 25.9019 9.8542 25.9487 8.29604C25.7519 7.26785 25.0404 6.43503 24.0866 6.1212C23.1651 5.81836 22.1824 6.0577 21.4577 6.75986C20.6971 7.49742 20.6275 8.44379 20.5531 9.44634C20.5363 9.67958 20.5195 9.91892 20.4931 10.1595L20.4595 10.4538L12.855 5.42027C12.0247 4.91106 10.9557 4.861 10.069 5.29206C9.26272 5.68526 8.7324 6.41428 8.61361 7.29471L8.58962 7.47666L8.41084 7.45102C8.21647 7.42293 8.0365 7.36065 7.86252 7.30082C7.68615 7.24098 7.52057 7.18359 7.349 7.16283C6.34474 7.04438 5.38008 7.45346 4.76937 8.25696C4.16226 9.05436 4.01468 10.0972 4.37583 11.0485C4.5654 11.5504 4.83776 11.8678 5.18211 12.2684L5.33209 12.4442L5.18331 12.5639C4.35423 13.2294 3.9271 14.177 4.01108 15.1637C4.09987 16.1845 4.73098 17.1102 5.70044 17.6401L5.9476 17.7745L5.72443 17.9466C4.98414 18.5181 4.551 19.3656 4.53421 20.2753C4.51741 21.1619 4.90855 22.0057 5.60565 22.5918C6.53672 23.1645 7.43419 23.7922 8.30286 24.4003C11.7548 26.8157 15.0159 29.098 19.6856 27.4287C23.4255 26.0928 25.7699 22.6749 25.9559 18.2849C26.0303 16.5472 25.9955 14.7473 25.9619 13.0072Z" fill="#D6A9D6"/>
</g>
<path d="M20.6796 10.6804C20.6982 10.2821 20.7641 9.88642 20.7989 9.4894C20.9059 8.28513 20.8437 7.15364 21.7998 6.29874C23.165 5.07727 25.1457 5.70058 25.7885 7.41964C25.9514 7.85768 25.9054 7.97149 25.9016 8.40821C25.8668 11.6968 26.0832 15.0132 25.9638 18.2885C25.8034 22.6795 23.9881 26.5345 20.0243 28.2284C14.3833 30.6396 10.5649 26.9169 6.19456 23.8295C5.60895 23.4153 5.09171 23.1969 4.68017 22.5511C3.98389 21.4593 4.08087 20.0314 4.88035 19.0336C5.16632 18.6763 5.54429 18.4275 5.88 18.1284C4.91143 17.6692 4.01746 16.9413 3.74641 15.794C3.4132 14.3885 4.07963 13.2187 5.13399 12.4419C4.84678 12.0038 4.45263 11.6478 4.20396 11.178C3.21923 9.31737 4.40414 7.00675 6.40096 6.89956C6.94555 6.87044 7.24768 7.06895 7.74129 7.1907C7.95515 7.24363 8.17397 7.25951 8.38659 7.31377C8.42389 6.67855 8.56936 6.07906 8.9548 5.58412C9.78535 4.51616 11.3072 4.28853 12.425 4.97007L20.6808 10.6804H20.6796ZM11.0051 5.7019C10.0987 5.71116 9.36137 6.56342 9.39867 7.52154C9.42851 8.29837 9.97683 8.72317 10.5127 9.13077C12.4138 10.5785 14.5287 11.7286 16.3826 13.2372C16.6698 13.6422 16.3838 14.2139 15.9064 14.1252C12.8701 12.2751 10.0701 10.028 7.05372 8.14353C5.67236 7.67373 4.39047 9.20223 5.12777 10.6063C5.36401 11.0576 5.74447 11.2614 6.1324 11.538C8.68002 13.359 11.3047 15.0635 13.8561 16.8791C14.4019 17.2325 14.0973 18.1734 13.4594 17.9365C13.0628 17.7896 12.3802 17.2722 11.9998 17.0128C10.652 16.0997 9.36137 15.086 8.01358 14.1728C7.1793 13.6078 6.31766 12.9077 5.35779 13.7295C4.39793 14.5513 4.58816 15.8548 5.54181 16.6131C7.40434 18.094 9.58517 19.2652 11.4875 20.7024C12.1291 21.1907 11.817 22.0363 11.0038 21.7253C10.8198 21.6552 10.5711 21.4686 10.3996 21.3521C9.23082 20.5621 7.05247 18.2197 5.69971 19.7469C4.93754 20.6071 5.26703 21.7452 6.06153 22.4135C6.98533 23.1903 8.15159 23.9645 9.14627 24.6566C10.6731 25.7166 12.4648 27.0321 14.2278 27.5376C19.4275 29.0277 24.294 25.1026 24.8274 19.5272C25.127 16.4014 24.81 12.9646 24.7963 9.80966C24.7938 9.21944 24.8759 8.5326 24.8286 7.96487C24.7863 7.46331 24.2194 6.99087 23.7842 6.885C22.986 6.69311 22.2151 7.12453 22.0075 7.98208C21.7538 9.03152 21.9105 10.3589 21.7837 11.4599C21.7314 11.9085 21.6208 12.3717 21.0849 12.2989C20.8549 12.2685 19.9559 11.6015 19.6973 11.4255C17.9268 10.2212 16.2184 8.91638 14.4579 7.69623C13.6932 7.16556 12.8577 6.54886 12.0644 6.08303C11.7461 5.89644 11.3768 5.70058 11.0038 5.70455L11.0051 5.7019Z" fill="#1F1F1F" stroke="#1F1F1F" stroke-width="0.1"/>
<path d="M13.5713 1.0013C14.8768 0.970861 16.1587 1.47639 17.1286 2.40408C17.4841 2.74419 18.3582 3.75525 17.7055 4.19328C17.1733 4.55059 16.7232 3.68643 16.4273 3.34103C15.879 2.69919 15.1069 2.24395 14.2776 2.19895C13.8088 2.17249 13.2555 2.30615 12.793 2.22278C12.4187 2.15528 12.2497 1.65505 12.4871 1.34008C12.7022 1.0582 13.2493 1.01056 13.5713 1.0013Z" fill="#1F1F1F" stroke="#1F1F1F" stroke-width="0.1"/>
<path d="M1.39525 24.5032C1.76577 24.4304 1.92243 24.7056 2.07536 25.0034C2.2544 25.3541 2.37252 25.7418 2.58513 26.0806C2.98922 26.7291 3.90681 27.3458 4.62049 27.5032C5.17751 27.6263 6.10256 27.5191 5.93223 28.4111C5.83773 28.9073 4.90025 28.7459 4.56579 28.6731C3.43931 28.4296 2.25689 27.5562 1.58797 26.5703C1.31443 26.1666 0.870556 25.3488 1.03592 24.8512C1.08939 24.6924 1.23486 24.5349 1.39525 24.5032Z" fill="#1F1F1F" stroke="#1F1F1F" stroke-width="0.1"/>
<defs>
<clipPath id="clip0_1_2242">
<rect width="22" height="23" fill="white" transform="translate(3.99988 5)"/>
</clipPath>
</defs>
</svg>
