<svg width="25" height="23" viewBox="0 0 25 23" fill="none" xmlns="http://www.w3.org/2000/svg">
<g clip-path="url(#clip0_1_2231)">
<path d="M2.45287 0.0247156L22.3609 0C23.6215 0.107585 24.5616 0.913022 24.891 2.32181C25.1077 8.23755 24.9202 14.2013 24.9861 20.1359C24.8682 21.6537 23.8965 22.8793 22.5509 23.0015H2.36925C1.06933 22.8386 0.178644 21.7381 0 20.2784V2.72307C0.187513 1.21979 1.13775 0.178824 2.45287 0.0247156ZM2.5783 1.5469C2.3173 1.60796 2.08925 1.6385 1.86499 1.81587C1.70155 1.94526 1.30625 2.44248 1.44816 2.65329L12.4911 11.2456L23.5772 2.57914C23.3466 1.84204 22.8892 1.58325 22.2342 1.52364L2.5783 1.5469ZM23.6557 4.42844L12.4911 12.9946L1.32779 4.42844V20.2784C1.32779 20.3031 1.46336 20.6811 1.4925 20.7422C1.67114 21.1318 2.05124 21.4269 2.43513 21.4749L22.4888 21.4778C22.9931 21.5171 23.657 20.748 23.657 20.2057V4.42844H23.6557Z" fill="#1F1F1F"/>
<path d="M17.9823 18.8129C18.0988 18.7068 18.3471 18.6573 18.4992 18.6428C19.2796 18.5672 21.2333 18.5323 21.9745 18.653C22.7157 18.7737 22.8398 19.9062 22.1037 20.1664H18.2521C17.706 20.0501 17.5654 19.1938 17.9823 18.8144V18.8129Z" fill="#1F1F1F"/>
</g>
<defs>
<clipPath id="clip0_1_2231">
<rect width="25" height="23" fill="white"/>
</clipPath>
</defs>
</svg>
