<svg width="25" height="25" viewBox="0 0 25 25" fill="none" xmlns="http://www.w3.org/2000/svg">
<g clip-path="url(#clip0_1_2239)">
<path d="M20.897 2.57036C21.8493 2.78746 22.9352 2.46181 23.8754 2.65344C25.0481 2.89199 24.9226 3.89172 24.9626 4.84321C25.0735 7.53149 25.0695 10.1287 22.9125 12.0464C21.8226 13.0153 20.8489 13.0903 19.6108 13.6545C18.6612 14.0874 18.3099 14.8218 17.5046 15.4007C16.9636 15.7893 16.3546 16.0989 15.7362 16.3441L15.7295 19.5658C16.1008 19.7722 16.615 19.8311 16.9115 20.1555C17.18 20.4489 17.5192 21.5318 17.6541 21.9512C17.789 22.3707 18.1203 23.3248 18.1029 23.7188C18.0722 24.4385 17.4965 24.8486 16.8354 24.9263C15.5719 25.0737 14.1949 24.9585 12.9261 24.9263C11.4395 24.8874 9.95701 24.8419 8.4678 24.862C8.10986 24.8673 8.01636 24.9424 7.64373 24.7909C6.55921 24.35 6.99863 23.089 7.26709 22.2407C7.43671 21.706 7.7813 20.5655 8.11654 20.1662C8.45177 19.7668 8.80972 19.7467 9.25581 19.5993L9.24913 16.4259C8.56797 16.0346 7.85743 15.6875 7.2377 15.1957C6.82366 14.8673 6.60863 14.5457 6.25736 14.1852C5.63497 13.5473 4.43692 13.365 3.6222 13.0019C1.751 12.1616 0.337926 10.3565 0.122892 8.2833C-0.00799796 7.02359 -0.0574156 5.09113 0.0908374 3.84481C0.26981 2.33181 1.52529 2.632 2.63785 2.64004C3.12669 2.64406 3.61151 2.63334 4.09768 2.60654C4.13107 2.57304 4.03891 2.16028 4.03357 2.07585C3.96278 0.959528 4.72274 0.121951 5.81127 0L19.4332 0.0361833C20.1424 0.210399 20.702 0.687483 20.885 1.40981C20.9892 1.82123 20.9491 2.1576 20.8983 2.57036H20.897ZM5.75517 1.2624C5.48538 1.38435 5.27569 1.64433 5.25165 1.9472C5.24096 2.08523 5.2837 2.18306 5.28504 2.29965C5.32911 6.67649 4.27264 11.9566 8.62006 14.6489C13.097 17.4216 18.9016 14.7548 19.6402 9.53364C19.9794 7.13214 19.6255 4.64755 19.6749 2.23533C19.6776 2.11873 19.7203 2.01555 19.7097 1.88153C19.6936 1.66577 19.5106 1.49826 19.4051 1.31868L14.5929 1.29054C11.6532 1.21683 8.69886 1.27044 5.75384 1.26374L5.75517 1.2624ZM4.03223 3.89306H1.30758C1.34765 4.14232 1.34631 4.39694 1.34097 4.65023C1.3009 6.60145 1.0872 8.90244 2.36672 10.5334C2.90764 11.2235 3.63956 11.6014 4.41689 11.966V11.1136C4.41689 10.9635 4.2112 10.461 4.1698 10.2359C3.95209 9.05789 4.06028 7.86116 4.06562 6.67649C4.06963 5.74913 4.08031 4.81774 4.03223 3.89306ZM23.7138 3.89306H20.9571C20.7942 6.25972 21.2429 8.68132 20.5805 10.993C20.4923 11.3026 20.3227 11.6524 20.2546 11.9526C20.2439 12.0008 20.2519 12.0062 20.3 11.9981C20.4616 11.9713 21.104 11.6859 21.279 11.5974C22.4036 11.0292 23.2343 9.7829 23.4747 8.55803C23.7152 7.33315 23.5295 6.27714 23.5843 5.09783C23.603 4.69579 23.6831 4.29376 23.7138 3.89306ZM14.3859 16.7904C13.097 17.0973 11.7641 17.0973 10.4752 16.7904V19.7494H14.3859V16.7904ZM16.9503 23.7054C16.8741 23.4575 16.6845 23.2632 16.5816 23.03C16.4374 22.7017 16.368 22.2903 16.2531 21.9445C16.1649 21.6792 15.998 21.0654 15.7001 20.9877L9.01407 20.9702L8.1339 23.7068H16.9489L16.9503 23.7054Z" fill="#1F1F1F"/>
</g>
<defs>
<clipPath id="clip0_1_2239">
<rect width="25" height="25" fill="white"/>
</clipPath>
</defs>
</svg>
