<svg width="147" height="19" viewBox="0 0 147 19" fill="none" xmlns="http://www.w3.org/2000/svg">
<g clip-path="url(#clip0_47_920)">
<path d="M0 7.97204C0 3.56921 3.5692 0 7.97204 0H139.028C143.431 0 147 3.5692 147 7.97204V11.028C147 15.4308 143.431 19 139.028 19H7.97204C3.56921 19 0 15.4308 0 11.028V7.97204Z" fill="black"/>
<path d="M6.76731 13.5396C7.09283 13.5303 7.32535 13.4559 7.46486 13.3164C7.60437 13.1769 7.68343 13.0141 7.70203 12.8281C7.72063 12.6328 7.72993 12.298 7.72993 11.8236V5.79677C7.72993 5.40614 7.74388 5.07131 7.77179 4.79229L6.76731 4.8481V4.23425C7.73458 4.21565 8.46469 4.20635 8.95763 4.20635C9.40406 4.20635 9.73889 4.211 9.9621 4.2203C11.2735 4.2389 12.2315 4.46212 12.836 4.88995C13.4499 5.30848 13.7568 5.91768 13.7568 6.71754C13.7661 7.35929 13.5754 7.93593 13.1848 8.44747C12.7942 8.95901 12.1152 9.31244 11.1479 9.50775C11.3061 9.62866 11.4502 9.77282 11.5804 9.94024C11.7106 10.1077 11.8874 10.3681 12.1106 10.7215L13.0592 12.2143C13.2639 12.5398 13.4313 12.7909 13.5615 12.9676C13.701 13.135 13.8638 13.2745 14.0498 13.3862C14.2451 13.4885 14.4823 13.5396 14.7613 13.5396V14H13.0034C12.7523 13.7861 12.5384 13.5675 12.3617 13.3443C12.1943 13.1118 11.9943 12.8142 11.7618 12.4514L10.8271 10.9587L10.6457 10.6657C10.4969 10.4146 10.3667 10.21 10.2551 10.0518C10.1435 9.89373 10.0226 9.75422 9.89235 9.63331C9.80864 9.64261 9.67843 9.64727 9.50172 9.64727C9.2506 9.64727 9.06459 9.64261 8.94368 9.63331V12.3398C8.94368 12.8328 8.92973 13.2001 8.90182 13.442L9.9063 13.3862V14H6.76731V13.5396ZM9.55752 9.11712C11.4549 9.11712 12.4035 8.36842 12.4035 6.871C12.4035 6.16415 12.1989 5.63401 11.7897 5.28058C11.3805 4.92715 10.7527 4.75044 9.9063 4.75044C9.58078 4.75044 9.34826 4.81554 9.20875 4.94575C9.06924 5.07596 8.99018 5.23408 8.97158 5.42009C8.95298 5.6061 8.94368 5.93628 8.94368 6.41062V9.08922C9.2227 9.10782 9.42731 9.11712 9.55752 9.11712ZM18.6549 14.2232C18.0132 14.2232 17.4319 14.0744 16.911 13.7768C16.3995 13.4699 15.9949 13.0374 15.6973 12.4793C15.3997 11.912 15.2509 11.2609 15.2509 10.5262C15.2509 9.87513 15.3997 9.26594 15.6973 8.69859C15.9949 8.12195 16.4088 7.66156 16.9389 7.31744C17.4784 6.97331 18.0876 6.80125 18.7665 6.80125C19.2967 6.80125 19.7757 6.91751 20.2035 7.15002C20.6313 7.38254 20.9708 7.73132 21.2219 8.19635C21.473 8.65209 21.5986 9.21478 21.5986 9.88443L16.6878 9.96814C16.6785 11.0842 16.8599 11.9538 17.2319 12.577C17.6133 13.2001 18.1992 13.5117 18.9898 13.5117C19.4176 13.5117 19.8547 13.4001 20.3012 13.1769C20.7569 12.9537 21.1057 12.6793 21.3475 12.3538L21.6823 12.6328C21.3289 13.1722 20.8685 13.5722 20.3012 13.8326C19.7431 14.093 19.1944 14.2232 18.6549 14.2232ZM20.2872 9.38219C20.2872 8.82415 20.1616 8.34516 19.9105 7.94523C19.6594 7.5453 19.2827 7.34534 18.7805 7.34534C17.6272 7.34534 16.9436 8.02429 16.7297 9.38219H20.2872ZM23.4277 9.4938C23.0557 8.63814 22.8604 7.99174 22.8418 7.5546L22.2419 7.59646V7.02446H24.8089V7.443C24.3996 7.443 24.195 7.61506 24.195 7.95919C24.195 8.2103 24.2927 8.55443 24.488 8.99156L25.5622 11.447C25.6831 11.7353 25.8227 12.0794 25.9808 12.4793H25.9947C26.0226 12.3863 26.0598 12.284 26.1063 12.1724L26.3156 11.5725L27.4317 8.51723C27.5247 8.24751 27.6642 7.92663 27.8502 7.5546L26.9573 7.59646V7.02446H29.1616V7.443C28.9663 7.443 28.7989 7.51275 28.6594 7.65226C28.5199 7.78247 28.3897 7.96849 28.2687 8.2103C28.1571 8.45212 28.0037 8.82415 27.8084 9.32639L25.9808 14.0419H25.4227L23.4277 9.4938ZM31.1968 5.5038C31.0015 5.5038 30.8295 5.42474 30.6806 5.26663C30.5318 5.09921 30.4574 4.9039 30.4574 4.68068C30.4574 4.45747 30.5318 4.26215 30.6806 4.09474C30.8388 3.92732 31.0155 3.84362 31.2108 3.84362C31.4247 3.84362 31.6014 3.92732 31.7409 4.09474C31.8897 4.25285 31.9641 4.44817 31.9641 4.68068C31.9641 4.9039 31.8851 5.09921 31.727 5.26663C31.5782 5.42474 31.4015 5.5038 31.1968 5.5038ZM29.8157 13.5815C30.0854 13.5815 30.2761 13.5164 30.3877 13.3862C30.5086 13.2466 30.5783 13.0746 30.5969 12.87C30.6248 12.656 30.6388 12.3259 30.6388 11.8794V8.69859C30.6388 8.42887 30.6574 8.1266 30.6946 7.79177L29.7041 7.84758V7.26163C30.2528 7.26163 30.6434 7.22908 30.876 7.16397C31.1178 7.09887 31.3038 7.00586 31.434 6.88495H31.8386V12.5212C31.8386 12.9397 31.82 13.2559 31.7828 13.4699L32.6617 13.428V14H29.8157V13.5815ZM36.5994 14.2232C36.1623 14.2232 35.7623 14.1628 35.3996 14.0419C35.0369 13.9302 34.7253 13.7861 34.4649 13.6094L34.5207 14.0977H33.9347L33.851 11.6981H34.2835C34.3021 12.0794 34.4044 12.4189 34.5904 12.7165C34.7857 13.0141 35.0369 13.2513 35.3438 13.428C35.66 13.5954 35.9948 13.6791 36.3483 13.6791C36.7482 13.6791 37.1016 13.5861 37.4086 13.4001C37.7248 13.2048 37.8829 12.9304 37.8829 12.577C37.8829 12.3166 37.8038 12.098 37.6457 11.9213C37.4969 11.7446 37.3062 11.6004 37.0737 11.4888C36.8505 11.3679 36.5343 11.2284 36.1251 11.0703C35.6321 10.8843 35.2368 10.7122 34.9392 10.5541C34.6416 10.3867 34.3858 10.1635 34.1719 9.88443C33.958 9.60541 33.851 9.25198 33.851 8.82415C33.851 8.51723 33.9254 8.2103 34.0742 7.90338C34.2231 7.59646 34.4742 7.33604 34.8276 7.12212C35.181 6.9082 35.6507 6.80125 36.2367 6.80125C36.525 6.80125 36.818 6.84775 37.1156 6.94076C37.4225 7.03376 37.7062 7.18723 37.9666 7.40114L37.9387 6.871H38.5246V9.31244H38.0782C38.0503 8.773 37.8829 8.30796 37.576 7.91733C37.2783 7.5174 36.8552 7.31744 36.3064 7.31744C35.8879 7.31744 35.5531 7.42439 35.3019 7.63831C35.0601 7.84293 34.9392 8.0894 34.9392 8.37772C34.9392 8.64744 35.0183 8.87531 35.1764 9.06132C35.3438 9.24733 35.5484 9.40545 35.7902 9.53566C36.032 9.66587 36.3576 9.81003 36.7668 9.96814C37.2504 10.1635 37.6411 10.3448 37.9387 10.5122C38.2363 10.6796 38.4874 10.9029 38.6921 11.1819C38.906 11.4516 39.0129 11.7818 39.0129 12.1724C39.0129 12.6188 38.8967 12.9955 38.6641 13.3024C38.4409 13.6094 38.1433 13.8419 37.7713 14C37.4086 14.1488 37.0179 14.2232 36.5994 14.2232ZM42.1504 14.2232C41.4714 14.2232 40.9506 14.0698 40.5879 13.7628C40.2344 13.4559 40.0577 13.056 40.0577 12.563C40.0577 12.0236 40.2716 11.5679 40.6995 11.1958C41.1366 10.8238 41.6807 10.5494 42.3318 10.3727C42.9921 10.1867 43.6525 10.0983 44.3128 10.1077V9.24268C44.3128 8.63814 44.2245 8.16845 44.0477 7.83363C43.871 7.4895 43.4943 7.31744 42.9177 7.31744C42.6294 7.31744 42.355 7.37789 42.0946 7.4988C41.8342 7.61971 41.6435 7.80107 41.5226 8.04289C41.6435 8.1731 41.704 8.34982 41.704 8.57303C41.704 8.71254 41.6528 8.8474 41.5505 8.97761C41.4482 9.09852 41.2994 9.15898 41.1041 9.15898C40.9087 9.15898 40.7553 9.09852 40.6437 8.97761C40.5321 8.8474 40.4763 8.67999 40.4763 8.47537C40.4763 8.16845 40.5925 7.88943 40.825 7.63831C41.0669 7.37789 41.397 7.17327 41.8156 7.02446C42.2434 6.87565 42.7177 6.80125 43.2386 6.80125C44.0198 6.80125 44.5965 7.01051 44.9685 7.42904C45.3405 7.83828 45.5219 8.48933 45.5126 9.38219L45.4986 12.5212C45.4986 12.8188 45.48 13.135 45.4428 13.4699L46.4334 13.4141V14H44.4384C44.4105 13.8605 44.3779 13.5954 44.3407 13.2048C43.6618 13.8837 42.9317 14.2232 42.1504 14.2232ZM42.4713 13.428C42.8247 13.428 43.1456 13.3629 43.4339 13.2327C43.7222 13.0932 44.0152 12.8839 44.3128 12.6049C44.3035 12.4654 44.2989 12.2282 44.2989 11.8934L44.3128 10.582C43.5501 10.6099 42.8712 10.768 42.276 11.0563C41.6807 11.3353 41.3831 11.7678 41.3831 12.3538C41.3831 12.6979 41.4854 12.963 41.69 13.149C41.8946 13.335 42.155 13.428 42.4713 13.428ZM47.3908 13.5815C47.6605 13.5815 47.8511 13.5164 47.9628 13.3862C48.0837 13.2466 48.1534 13.0746 48.172 12.87C48.1999 12.656 48.2139 12.3259 48.2139 11.8794V8.69859C48.2139 8.30796 48.2325 8.00569 48.2697 7.79177L47.2792 7.83363V7.26163H47.7116C48.0651 7.26163 48.3208 7.23373 48.4789 7.17793C48.6371 7.11282 48.7859 7.01516 48.9254 6.88495H49.33C49.3672 7.24768 49.3904 7.70807 49.3997 8.26611C49.6322 7.88478 49.9624 7.5453 50.3902 7.24768C50.8274 6.95006 51.2785 6.80125 51.7435 6.80125C52.0225 6.80125 52.255 6.87565 52.441 7.02446C52.6271 7.17327 52.7201 7.39184 52.7201 7.68016C52.7201 7.82898 52.6596 7.97779 52.5387 8.1266C52.4271 8.27541 52.2643 8.34982 52.0504 8.34982C51.8458 8.34982 51.6784 8.27541 51.5482 8.1266C51.418 7.96849 51.3668 7.78247 51.3947 7.56856C51.0413 7.55925 50.6832 7.69411 50.3205 7.97314C49.9671 8.25216 49.6648 8.62419 49.4137 9.08922L49.4276 12.5212C49.4276 12.9397 49.409 13.2559 49.3718 13.4699L50.2507 13.428V14H47.3908V13.5815ZM60.4952 14.2232C59.8627 14.2232 59.2814 14.0791 58.7513 13.7907C58.2305 13.5024 57.8166 13.0885 57.5096 12.5491C57.2027 12.0096 57.0493 11.3725 57.0493 10.6378C57.0493 9.98674 57.2027 9.36824 57.5096 8.7823C57.8259 8.18705 58.2584 7.70807 58.8071 7.34534C59.3651 6.98261 59.9929 6.80125 60.6905 6.80125C61.1927 6.80125 61.6392 6.8803 62.0298 7.03841C62.4204 7.19653 62.7227 7.40579 62.9366 7.66621C63.1598 7.92663 63.2714 8.2103 63.2714 8.51723C63.2714 8.73114 63.211 8.90786 63.0901 9.04737C62.9692 9.18688 62.8018 9.25664 62.5878 9.25664C62.3832 9.25664 62.2298 9.19153 62.1275 9.06132C62.0251 8.92181 61.974 8.77765 61.974 8.62884C61.974 8.39632 62.0437 8.2103 62.1833 8.07079C62.0809 7.78247 61.881 7.58716 61.5834 7.48485C61.295 7.37324 61.0067 7.31744 60.7184 7.31744C60.2906 7.31744 59.9046 7.43369 59.5605 7.66621C59.2256 7.89873 58.9606 8.23821 58.7652 8.68464C58.5699 9.13108 58.4723 9.66587 58.4723 10.289C58.4723 10.9122 58.5699 11.4656 58.7652 11.9492C58.9699 12.4328 59.2535 12.8142 59.6163 13.0932C59.979 13.3629 60.3975 13.4978 60.8719 13.4978C61.2904 13.4978 61.6996 13.3862 62.0996 13.1629C62.5088 12.9304 62.8297 12.6421 63.0622 12.298L63.4249 12.577C63.0808 13.1164 62.6343 13.5257 62.0856 13.8047C61.5462 14.0837 61.016 14.2232 60.4952 14.2232ZM67.908 14.2232C67.2662 14.2232 66.6757 14.0744 66.1362 13.7768C65.6061 13.4699 65.1829 13.0467 64.8667 12.5072C64.5597 11.9678 64.4063 11.3586 64.4063 10.6796C64.4063 9.95419 64.5597 9.29849 64.8667 8.71254C65.1736 8.1173 65.5921 7.65226 66.1223 7.31744C66.6617 6.97331 67.2569 6.80125 67.908 6.80125C68.5497 6.80125 69.1403 6.95936 69.6798 7.27558C70.2192 7.58251 70.6424 8.00569 70.9493 8.54513C71.2656 9.08457 71.4237 9.68447 71.4237 10.3448C71.4237 11.0517 71.2656 11.7027 70.9493 12.298C70.6424 12.8932 70.2192 13.3629 69.6798 13.707C69.1496 14.0512 68.559 14.2232 67.908 14.2232ZM68.0196 13.6652C68.6986 13.6652 69.1961 13.3862 69.5124 12.8281C69.8379 12.2701 70.0007 11.5772 70.0007 10.7494C70.0007 9.81003 69.8239 9.00552 69.4705 8.33586C69.1264 7.66621 68.6055 7.33139 67.908 7.33139C67.2197 7.33139 66.6989 7.61506 66.3455 8.1824C66.0013 8.74975 65.8293 9.4473 65.8293 10.2751C65.8293 10.8703 65.9083 11.4284 66.0665 11.9492C66.2339 12.4607 66.4803 12.8746 66.8059 13.1908C67.1407 13.5071 67.5453 13.6652 68.0196 13.6652ZM72.4694 13.5815C72.7392 13.5815 72.9298 13.5164 73.0414 13.3862C73.1623 13.2466 73.2321 13.0746 73.2507 12.87C73.2786 12.656 73.2926 12.3259 73.2926 11.8794V5.28058C73.2926 4.92715 73.3065 4.62488 73.3344 4.37376L72.3439 4.42956V3.84362C72.9019 3.84362 73.2972 3.81107 73.5297 3.74596C73.7715 3.68086 73.9576 3.58785 74.0878 3.46694H74.4924L74.5063 12.5212C74.5063 12.8839 74.4831 13.2001 74.4365 13.4699L75.3155 13.428V14H72.4694V13.5815ZM78.3632 14.2232C77.6843 14.2232 77.1634 14.0698 76.8007 13.7628C76.4473 13.4559 76.2706 13.056 76.2706 12.563C76.2706 12.0236 76.4845 11.5679 76.9123 11.1958C77.3495 10.8238 77.8935 10.5494 78.5446 10.3727C79.2049 10.1867 79.8653 10.0983 80.5256 10.1077V9.24268C80.5256 8.63814 80.4373 8.16845 80.2606 7.83363C80.0839 7.4895 79.7072 7.31744 79.1305 7.31744C78.8422 7.31744 78.5678 7.37789 78.3074 7.4988C78.047 7.61971 77.8563 7.80107 77.7354 8.04289C77.8563 8.1731 77.9168 8.34982 77.9168 8.57303C77.9168 8.71254 77.8656 8.8474 77.7633 8.97761C77.661 9.09852 77.5122 9.15898 77.3169 9.15898C77.1216 9.15898 76.9681 9.09852 76.8565 8.97761C76.7449 8.8474 76.6891 8.67999 76.6891 8.47537C76.6891 8.16845 76.8054 7.88943 77.0379 7.63831C77.2797 7.37789 77.6099 7.17327 78.0284 7.02446C78.4562 6.87565 78.9306 6.80125 79.4514 6.80125C80.2327 6.80125 80.8093 7.01051 81.1813 7.42904C81.5534 7.83828 81.7347 8.48933 81.7254 9.38219L81.7115 12.5212C81.7115 12.8188 81.6929 13.135 81.6557 13.4699L82.6462 13.4141V14H80.6512C80.6233 13.8605 80.5908 13.5954 80.5536 13.2048C79.8746 13.8837 79.1445 14.2232 78.3632 14.2232ZM78.6841 13.428C79.0375 13.428 79.3584 13.3629 79.6467 13.2327C79.9351 13.0932 80.228 12.8839 80.5256 12.6049C80.5163 12.4654 80.5117 12.2282 80.5117 11.8934L80.5256 10.582C79.763 10.6099 79.084 10.768 78.4888 11.0563C77.8935 11.3353 77.5959 11.7678 77.5959 12.3538C77.5959 12.6979 77.6982 12.963 77.9028 13.149C78.1075 13.335 78.3679 13.428 78.6841 13.428ZM86.8961 14.2232C86.524 14.2232 86.1566 14.1581 85.7939 14.0279C85.4312 13.8977 85.115 13.6791 84.8452 13.3722L84.5104 14H84.0221L84.05 5.28058C84.05 4.92715 84.064 4.62488 84.0919 4.37376L83.1014 4.42956V3.84362C83.6594 3.84362 84.0547 3.81107 84.2872 3.74596C84.529 3.68086 84.715 3.58785 84.8452 3.46694H85.2498V7.62436C85.5102 7.36394 85.8172 7.16397 86.1706 7.02446C86.5333 6.87565 86.9286 6.80125 87.3564 6.80125C87.9517 6.80125 88.4911 6.94541 88.9748 7.23373C89.4584 7.52205 89.8351 7.93593 90.1048 8.47537C90.3838 9.01482 90.5233 9.63796 90.5233 10.3448C90.5233 11.1168 90.3559 11.7957 90.0211 12.3817C89.6863 12.9676 89.2398 13.4234 88.6818 13.7489C88.1237 14.0651 87.5285 14.2232 86.8961 14.2232ZM86.8961 13.6512C87.5657 13.6512 88.0958 13.3815 88.4865 12.8421C88.8864 12.2933 89.0864 11.5772 89.0864 10.6936C89.0864 9.71702 88.905 8.94041 88.5423 8.36377C88.1796 7.77782 87.6448 7.48485 86.9379 7.48485C86.631 7.48485 86.3241 7.55925 86.0171 7.70807C85.7195 7.84758 85.4637 8.03824 85.2498 8.28006V11.8097C85.2498 13.0374 85.7986 13.6512 86.8961 13.6512ZM95.1834 14.2232C94.5417 14.2232 93.9511 14.0744 93.4116 13.7768C92.8815 13.4699 92.4583 13.0467 92.1421 12.5072C91.8352 11.9678 91.6817 11.3586 91.6817 10.6796C91.6817 9.95419 91.8352 9.29849 92.1421 8.71254C92.449 8.1173 92.8676 7.65226 93.3977 7.31744C93.9371 6.97331 94.5324 6.80125 95.1834 6.80125C95.8252 6.80125 96.4158 6.95936 96.9552 7.27558C97.4947 7.58251 97.9178 8.00569 98.2248 8.54513C98.541 9.08457 98.6991 9.68447 98.6991 10.3448C98.6991 11.0517 98.541 11.7027 98.2248 12.298C97.9178 12.8932 97.4947 13.3629 96.9552 13.707C96.4251 14.0512 95.8345 14.2232 95.1834 14.2232ZM95.295 13.6652C95.974 13.6652 96.4716 13.3862 96.7878 12.8281C97.1133 12.2701 97.2761 11.5772 97.2761 10.7494C97.2761 9.81003 97.0994 9.00552 96.746 8.33586C96.4018 7.66621 95.881 7.33139 95.1834 7.33139C94.4952 7.33139 93.9743 7.61506 93.6209 8.1824C93.2768 8.74975 93.1047 9.4473 93.1047 10.2751C93.1047 10.8703 93.1838 11.4284 93.3419 11.9492C93.5093 12.4607 93.7558 12.8746 94.0813 13.1908C94.4161 13.5071 94.8207 13.6652 95.295 13.6652ZM99.8844 13.5815C100.154 13.5815 100.345 13.5164 100.456 13.3862C100.577 13.2466 100.647 13.0746 100.666 12.87C100.694 12.656 100.708 12.3259 100.708 11.8794V8.69859C100.708 8.30796 100.726 8.00569 100.763 7.79177L99.7728 7.83363V7.26163H100.205C100.559 7.26163 100.814 7.23373 100.973 7.17793C101.131 7.11282 101.28 7.01516 101.419 6.88495H101.824C101.861 7.24768 101.884 7.70807 101.893 8.26611C102.126 7.88478 102.456 7.5453 102.884 7.24768C103.321 6.95006 103.772 6.80125 104.237 6.80125C104.516 6.80125 104.749 6.87565 104.935 7.02446C105.121 7.17327 105.214 7.39184 105.214 7.68016C105.214 7.82898 105.153 7.97779 105.032 8.1266C104.921 8.27541 104.758 8.34982 104.544 8.34982C104.339 8.34982 104.172 8.27541 104.042 8.1266C103.912 7.96849 103.86 7.78247 103.888 7.56856C103.535 7.55925 103.177 7.69411 102.814 7.97314C102.461 8.25216 102.158 8.62419 101.907 9.08922L101.921 12.5212C101.921 12.9397 101.903 13.2559 101.865 13.4699L102.744 13.428V14H99.8844V13.5815ZM107.778 14.2232C107.099 14.2232 106.578 14.0698 106.215 13.7628C105.862 13.4559 105.685 13.056 105.685 12.563C105.685 12.0236 105.899 11.5679 106.327 11.1958C106.764 10.8238 107.308 10.5494 107.959 10.3727C108.619 10.1867 109.28 10.0983 109.94 10.1077V9.24268C109.94 8.63814 109.852 8.16845 109.675 7.83363C109.498 7.4895 109.122 7.31744 108.545 7.31744C108.257 7.31744 107.982 7.37789 107.722 7.4988C107.461 7.61971 107.271 7.80107 107.15 8.04289C107.271 8.1731 107.331 8.34982 107.331 8.57303C107.331 8.71254 107.28 8.8474 107.178 8.97761C107.075 9.09852 106.927 9.15898 106.731 9.15898C106.536 9.15898 106.383 9.09852 106.271 8.97761C106.159 8.8474 106.104 8.67999 106.104 8.47537C106.104 8.16845 106.22 7.88943 106.452 7.63831C106.694 7.37789 107.024 7.17327 107.443 7.02446C107.871 6.87565 108.345 6.80125 108.866 6.80125C109.647 6.80125 110.224 7.01051 110.596 7.42904C110.968 7.83828 111.149 8.48933 111.14 9.38219L111.126 12.5212C111.126 12.8188 111.107 13.135 111.07 13.4699L112.061 13.4141V14H110.066C110.038 13.8605 110.005 13.5954 109.968 13.2048C109.289 13.8837 108.559 14.2232 107.778 14.2232ZM108.099 13.428C108.452 13.428 108.773 13.3629 109.061 13.2327C109.349 13.0932 109.642 12.8839 109.94 12.6049C109.931 12.4654 109.926 12.2282 109.926 11.8934L109.94 10.582C109.177 10.6099 108.498 10.768 107.903 11.0563C107.308 11.3353 107.01 11.7678 107.01 12.3538C107.01 12.6979 107.113 12.963 107.317 13.149C107.522 13.335 107.782 13.428 108.099 13.428ZM116.422 14.2232C115.79 14.2232 115.208 14.0791 114.678 13.7907C114.157 13.5024 113.743 13.0885 113.437 12.5491C113.13 12.0096 112.976 11.3725 112.976 10.6378C112.976 9.98674 113.13 9.36824 113.437 8.7823C113.753 8.18705 114.185 7.70807 114.734 7.34534C115.292 6.98261 115.92 6.80125 116.617 6.80125C117.12 6.80125 117.566 6.8803 117.957 7.03841C118.347 7.19653 118.65 7.40579 118.864 7.66621C119.087 7.92663 119.198 8.2103 119.198 8.51723C119.198 8.73114 119.138 8.90786 119.017 9.04737C118.896 9.18688 118.729 9.25664 118.515 9.25664C118.31 9.25664 118.157 9.19153 118.054 9.06132C117.952 8.92181 117.901 8.77765 117.901 8.62884C117.901 8.39632 117.971 8.2103 118.11 8.07079C118.008 7.78247 117.808 7.58716 117.51 7.48485C117.222 7.37324 116.934 7.31744 116.645 7.31744C116.217 7.31744 115.831 7.43369 115.487 7.66621C115.153 7.89873 114.887 8.23821 114.692 8.68464C114.497 9.13108 114.399 9.66587 114.399 10.289C114.399 10.9122 114.497 11.4656 114.692 11.9492C114.897 12.4328 115.18 12.8142 115.543 13.0932C115.906 13.3629 116.324 13.4978 116.799 13.4978C117.217 13.4978 117.627 13.3862 118.026 13.1629C118.436 12.9304 118.757 12.6421 118.989 12.298L119.352 12.577C119.008 13.1164 118.561 13.5257 118.013 13.8047C117.473 14.0837 116.943 14.2232 116.422 14.2232ZM121.824 5.5038C121.629 5.5038 121.457 5.42474 121.308 5.26663C121.159 5.09921 121.085 4.9039 121.085 4.68068C121.085 4.45747 121.159 4.26215 121.308 4.09474C121.466 3.92732 121.643 3.84362 121.838 3.84362C122.052 3.84362 122.229 3.92732 122.368 4.09474C122.517 4.25285 122.592 4.44817 122.592 4.68068C122.592 4.9039 122.513 5.09921 122.354 5.26663C122.206 5.42474 122.029 5.5038 121.824 5.5038ZM120.443 13.5815C120.713 13.5815 120.904 13.5164 121.015 13.3862C121.136 13.2466 121.206 13.0746 121.224 12.87C121.252 12.656 121.266 12.3259 121.266 11.8794V8.69859C121.266 8.42887 121.285 8.1266 121.322 7.79177L120.332 7.84758V7.26163C120.88 7.26163 121.271 7.22908 121.503 7.16397C121.745 7.09887 121.931 7.00586 122.061 6.88495H122.466V12.5212C122.466 12.9397 122.447 13.2559 122.41 13.4699L123.289 13.428V14H120.443V13.5815ZM127.827 14.2232C127.185 14.2232 126.594 14.0744 126.055 13.7768C125.525 13.4699 125.102 13.0467 124.785 12.5072C124.478 11.9678 124.325 11.3586 124.325 10.6796C124.325 9.95419 124.478 9.29849 124.785 8.71254C125.092 8.1173 125.511 7.65226 126.041 7.31744C126.58 6.97331 127.176 6.80125 127.827 6.80125C128.469 6.80125 129.059 6.95936 129.599 7.27558C130.138 7.58251 130.561 8.00569 130.868 8.54513C131.184 9.08457 131.342 9.68447 131.342 10.3448C131.342 11.0517 131.184 11.7027 130.868 12.298C130.561 12.8932 130.138 13.3629 129.599 13.707C129.068 14.0512 128.478 14.2232 127.827 14.2232ZM127.938 13.6652C128.617 13.6652 129.115 13.3862 129.431 12.8281C129.757 12.2701 129.919 11.5772 129.919 10.7494C129.919 9.81003 129.743 9.00552 129.389 8.33586C129.045 7.66621 128.524 7.33139 127.827 7.33139C127.139 7.33139 126.618 7.61506 126.264 8.1824C125.92 8.74975 125.748 9.4473 125.748 10.2751C125.748 10.8703 125.827 11.4284 125.985 11.9492C126.153 12.4607 126.399 12.8746 126.725 13.1908C127.059 13.5071 127.464 13.6652 127.938 13.6652ZM128.65 4.42956C128.845 4.22495 128.943 4.02498 128.943 3.82967C128.943 3.68086 128.887 3.55065 128.775 3.43904C128.664 3.36463 128.552 3.32743 128.441 3.32743C128.236 3.32743 128.045 3.45299 127.869 3.70411L126.697 5.5875L127.087 5.90838L128.65 4.42956ZM132.528 13.5815C132.797 13.5815 132.988 13.5164 133.1 13.3862C133.221 13.2466 133.29 13.0792 133.309 12.8839C133.328 12.6793 133.342 12.3445 133.351 11.8794L133.365 8.69859C133.365 8.30796 133.383 8.00569 133.421 7.79177L132.43 7.84758V7.26163C132.979 7.26163 133.355 7.23373 133.56 7.17793C133.765 7.11282 133.937 7.01516 134.076 6.88495H134.481C134.499 7.06167 134.518 7.34534 134.537 7.73597C134.853 7.45695 135.211 7.23373 135.611 7.06632C136.02 6.8896 136.42 6.80125 136.811 6.80125C137.62 6.80125 138.21 7.05702 138.582 7.56856C138.955 8.07079 139.141 8.8567 139.141 9.92629V12.5212C139.141 12.9397 139.122 13.2559 139.085 13.4699L139.964 13.428V14H137.118V13.5815C137.387 13.5815 137.578 13.5164 137.69 13.3862C137.811 13.2466 137.88 13.0746 137.899 12.87C137.927 12.656 137.941 12.3259 137.941 11.8794V9.92629C137.931 9.12642 137.801 8.52653 137.55 8.1266C137.299 7.71737 136.904 7.51275 136.364 7.51275C136.029 7.51275 135.695 7.59646 135.36 7.76387C135.034 7.93128 134.765 8.14985 134.551 8.41957C134.56 8.52188 134.565 8.70324 134.565 8.96366L134.551 12.5212C134.551 12.9397 134.532 13.2559 134.495 13.4699L135.374 13.428V14H132.528V13.5815Z" fill="white"/>
</g>
<defs>
<clipPath id="clip0_47_920">
<path d="M0 7.97204C0 3.56921 3.5692 0 7.97204 0H139.028C143.431 0 147 3.5692 147 7.97204V11.028C147 15.4308 143.431 19 139.028 19H7.97204C3.56921 19 0 15.4308 0 11.028V7.97204Z" fill="white"/>
</clipPath>
</defs>
</svg>
