<svg width="33" height="32" viewBox="0 0 33 32" fill="none" xmlns="http://www.w3.org/2000/svg">
<ellipse cx="16.6845" cy="15.6129" rx="15.8436" ry="15.4752" fill="#DCDCDC"/>
<path d="M10.526 22.2608C10.445 22.2608 10.3976 22.1695 10.4442 22.1033L14.9859 15.6419L10.7921 9.68417C10.7455 9.61792 10.7929 9.52661 10.8739 9.52661H12.8386C13.1759 9.52661 13.4905 9.69668 13.6752 9.97891L15.3336 12.5123C15.7014 13.0799 15.9971 13.5555 16.221 13.9392C16.5727 13.4116 16.8964 12.944 17.1922 12.5363L19.0395 9.94599C19.2271 9.68283 19.5304 9.52661 19.8536 9.52661H21.7191C21.801 9.52661 21.8482 9.61973 21.7997 9.68578L17.516 15.522L22.1416 22.1033C22.1882 22.1695 22.1408 22.2608 22.0598 22.2608H20.1402C19.8044 22.2608 19.491 22.0922 19.3059 21.812L16.9884 18.3038L16.2929 17.2367L13.2443 21.815C13.0589 22.0935 12.7465 22.2608 12.4119 22.2608H10.526Z" fill="#878785"/>
</svg>
