<svg width="24" height="24" viewBox="0 0 24 24" fill="none" xmlns="http://www.w3.org/2000/svg">
<g clip-path="url(#clip0_1_2228)">
<path d="M9.64829 0.0386548C18.7619 -0.681251 24.5252 8.90301 19.6534 16.62C19.5074 16.8502 18.908 17.5055 18.9574 17.6957C18.9951 17.839 19.4532 18.1361 19.5969 18.2829C20.8522 19.5654 22.1441 20.8149 23.3723 22.1267C23.5902 22.3593 23.8858 22.4227 23.9694 22.8232C24.1755 23.8155 23.3217 24.324 22.5115 23.7756L17.6173 18.9077C12.5606 23.2201 4.61277 21.7697 1.37195 16.0022C-2.37644 9.33284 1.94192 0.646993 9.64829 0.0386548ZM10.296 1.75915C5.46066 1.86132 1.50031 6.344 1.7429 11.1097C2.11503 18.4309 10.8224 22.3557 16.4667 17.5325C22.9425 11.9987 18.8703 1.58064 10.296 1.75915Z" fill="#1F1F1F"/>
</g>
<defs>
<clipPath id="clip0_1_2228">
<rect width="24" height="24" fill="white"/>
</clipPath>
</defs>
</svg>
