<svg width="19" height="11" viewBox="0 0 19 11" fill="none" xmlns="http://www.w3.org/2000/svg">
<path d="M4.62919 5.97013C4.97871 6.39324 5.22706 6.75196 5.37423 7.0463C5.53979 7.32224 5.68696 7.59818 5.81573 7.87412C5.9445 8.15006 6.04568 8.47199 6.11927 8.83991C6.21125 9.20783 6.27563 9.62174 6.31242 10.0816C5.44781 8.95949 4.5464 8.03049 3.60821 7.29465C2.68841 6.54041 1.62144 5.89655 0.407297 5.36306C1.01437 5.12391 1.58464 4.85717 2.11813 4.56283C2.65161 4.2501 3.1575 3.90977 3.6358 3.54185C4.1141 3.15554 4.574 2.73243 5.0155 2.27253C5.45701 1.81263 5.88932 1.29754 6.31242 0.72726C6.27563 1.15037 6.21125 1.55508 6.11927 1.9414C6.04568 2.30932 5.9445 2.64965 5.81573 2.96238C5.66856 3.3303 5.5122 3.64303 5.34663 3.90058C5.19946 4.15812 4.97871 4.45246 4.68437 4.78359H18.9229V5.97013H4.62919Z" fill="black"/>
</svg>
